<svg xmlns="http://www.w3.org/2000/svg" xmlns:xlink="http://www.w3.org/1999/xlink" width="276" height="155" viewBox="0 0 276 155"><defs><style>.a,.b,.c{fill:none;}.b{clip-rule:evenodd;}.c{fill-rule:evenodd;}.d{fill:#fafdff;}.e{clip-path:url(#c);}.f{fill:#253b80;}.g{fill:#179bd7;}.h{fill:#222d65;}.i{clip-path:url(#f);}.j{filter:url(#a);}</style><filter id="a" x="0" y="0" width="276" height="155" filterUnits="userSpaceOnUse"><feOffset dy="10" input="SourceAlpha"/><feGaussianBlur stdDeviation="14.5" result="b"/><feFlood flood-color="#2d2d4f" flood-opacity="0.302"/><feComposite operator="in" in2="b"/><feComposite in="SourceGraphic"/></filter><clipPath id="c"><rect class="a" width="106" height="28" transform="translate(7.46 45.427)"/></clipPath><clipPath id="f"><path class="b" d="M113.46,45.427v28H7.46v-28"/></clipPath></defs><g transform="translate(-707.5 -5258.5)"><g class="j" transform="matrix(1, 0, 0, 1, 707.5, 5258.5)"><rect class="d" width="189" height="68" rx="10" transform="translate(43.5 33.5)"/></g><g transform="translate(784.54 5267.573)"><path class="f" d="M47.637,56.588c-.32,2.082-1.923,2.082-3.472,2.082h-.882l.619-3.889a.486.486,0,0,1,.481-.408h.4c1.056,0,2.052,0,2.566.6A1.922,1.922,0,0,1,47.637,56.588Zm-.675-5.435H41.116a.81.81,0,0,0-.8.681l-2.365,14.88a.484.484,0,0,0,.482.558h2.791a.81.81,0,0,0,.8-.681l.638-4.013a.81.81,0,0,1,.8-.681h1.851c3.851,0,6.074-1.85,6.654-5.515a4.444,4.444,0,0,0-.745-3.746A5.447,5.447,0,0,0,46.963,51.153Z"/><path class="f" d="M60.536,61.929a3.114,3.114,0,0,1-3.159,2.653,2.158,2.158,0,0,1-2.319-2.7A3.127,3.127,0,0,1,58.2,59.206a2.208,2.208,0,0,1,2.341,2.723Zm3.9-5.408h-2.8a.487.487,0,0,0-.481.408l-.124.777-.2-.282c-.606-.873-1.958-1.165-3.306-1.165a6.421,6.421,0,0,0-6.251,5.588,5.217,5.217,0,0,0,1.043,4.269,4.4,4.4,0,0,0,3.526,1.414,5.373,5.373,0,0,0,3.875-1.591l-.125.772a.485.485,0,0,0,.481.56H62.6a.81.81,0,0,0,.8-.681l1.513-9.511A.483.483,0,0,0,64.438,56.521Z"/><path class="f" d="M79.348,56.521H76.535a.817.817,0,0,0-.673.354l-3.88,5.673L70.337,57.1a.814.814,0,0,0-.78-.575H66.793a.485.485,0,0,0-.463.64l3.1,9.026-2.913,4.082a.483.483,0,0,0,.4.764h2.81a.813.813,0,0,0,.668-.346L79.748,57.28A.483.483,0,0,0,79.348,56.521Z"/><path class="g" d="M89.337,56.588c-.319,2.082-1.922,2.082-3.472,2.082h-.881l.62-3.889a.484.484,0,0,1,.481-.408h.4c1.055,0,2.052,0,2.566.6A1.923,1.923,0,0,1,89.337,56.588Zm-.675-5.435H82.815a.81.81,0,0,0-.8.681l-2.365,14.88a.484.484,0,0,0,.481.558h3a.567.567,0,0,0,.561-.477l.671-4.218a.81.81,0,0,1,.8-.681h1.85c3.852,0,6.074-1.85,6.655-5.515a4.44,4.44,0,0,0-.746-3.746A5.442,5.442,0,0,0,88.662,51.153Z"/><path class="g" d="M102.235,61.929a3.112,3.112,0,0,1-3.159,2.653,2.158,2.158,0,0,1-2.319-2.7,3.128,3.128,0,0,1,3.137-2.674,2.208,2.208,0,0,1,2.341,2.723Zm3.9-5.408h-2.8a.484.484,0,0,0-.48.408l-.124.777-.2-.282c-.606-.873-1.957-1.165-3.306-1.165a6.42,6.42,0,0,0-6.25,5.588,5.218,5.218,0,0,0,1.042,4.269,4.4,4.4,0,0,0,3.526,1.414,5.373,5.373,0,0,0,3.875-1.591l-.125.772a.485.485,0,0,0,.482.56H104.3a.81.81,0,0,0,.8-.681l1.514-9.511A.486.486,0,0,0,106.137,56.521Z"/><path class="g" d="M109.438,51.561l-2.4,15.152a.484.484,0,0,0,.481.558h2.412a.809.809,0,0,0,.8-.681L113.1,51.711a.485.485,0,0,0-.481-.559h-2.7A.487.487,0,0,0,109.438,51.561Z"/><path class="f" d="M13.671,70.163l.447-2.818-1-.023H8.367l3.3-20.8a.274.274,0,0,1,.092-.163.271.271,0,0,1,.176-.064h8.019c2.662,0,4.5.55,5.458,1.635a3.723,3.723,0,0,1,.874,1.627A5.833,5.833,0,0,1,26.3,51.8l-.01.065v.574l.45.253a3.156,3.156,0,0,1,.91.689,3.2,3.2,0,0,1,.739,1.645,6.905,6.905,0,0,1-.105,2.386,8.361,8.361,0,0,1-.985,2.7,5.569,5.569,0,0,1-1.56,1.7,6.351,6.351,0,0,1-2.1.941,10.56,10.56,0,0,1-2.626.3h-.624a1.9,1.9,0,0,0-1.22.445,1.872,1.872,0,0,0-.636,1.127l-.047.254-.79,4.968-.036.182a.156.156,0,0,1-.05.106.132.132,0,0,1-.082.03Z"/><path class="g" d="M27.162,51.932c-.024.152-.051.307-.082.467-1.057,5.389-4.675,7.25-9.3,7.25H15.432a1.14,1.14,0,0,0-1.129.96l-1.2,7.582-.341,2.149a.6.6,0,0,0,.594.691h4.173a1,1,0,0,0,.992-.84l.041-.21.786-4.948.05-.271a1,1,0,0,1,.992-.842h.624c4.043,0,7.207-1.629,8.132-6.343.386-1.969.186-3.614-.836-4.77A3.984,3.984,0,0,0,27.162,51.932Z"/><path class="h" d="M26.056,51.494q-.242-.07-.5-.127t-.529-.1a13.173,13.173,0,0,0-2.074-.15H16.669a1,1,0,0,0-.991.842l-1.337,8.405-.039.245a1.14,1.14,0,0,1,1.129-.96h2.353c4.62,0,8.238-1.863,9.3-7.25.032-.159.058-.315.082-.467a5.658,5.658,0,0,0-.869-.364C26.216,51.542,26.136,51.518,26.056,51.494Z"/><path class="f" d="M15.678,51.959a.993.993,0,0,1,.557-.743,1,1,0,0,1,.433-.1h6.285a13.172,13.172,0,0,1,2.074.15q.272.043.529.1t.5.127l.238.073a5.741,5.741,0,0,1,.869.364,5.061,5.061,0,0,0-1.087-4.575c-1.2-1.352-3.354-1.93-6.116-1.93H11.941a1.143,1.143,0,0,0-1.133.961L7.468,67.4a.686.686,0,0,0,.68.791H13.1l1.243-7.827Z"/></g></g></svg>