<svg xmlns="http://www.w3.org/2000/svg" xmlns:xlink="http://www.w3.org/1999/xlink" width="287" height="155" viewBox="0 0 287 155"><defs><style>.a{fill:#fafdff;}.b{fill:url(#c);}.c{filter:url(#a);}</style><filter id="a" x="0" y="0" width="287" height="155" filterUnits="userSpaceOnUse"><feOffset dy="10" input="SourceAlpha"/><feGaussianBlur stdDeviation="14.5" result="b"/><feFlood flood-color="#2d2d4f" flood-opacity="0.302"/><feComposite operator="in" in2="b"/><feComposite in="SourceGraphic"/></filter><linearGradient id="c" x1="-0.434" y1="3.29" x2="-0.434" y2="3.298" gradientUnits="objectBoundingBox"><stop offset="0" stop-color="#04b6f0"/><stop offset="1" stop-color="#3ecaf0"/></linearGradient></defs><g transform="translate(-936.5 -5258.5)"><g class="c" transform="matrix(1, 0, 0, 1, 936.5, 5258.5)"><rect class="a" width="200" height="68" rx="10" transform="translate(43.5 33.5)"/></g><g transform="translate(1016 5313.879)"><path class="b" d="M13.382,13.675a7.344,7.344,0,0,1-1.8,5.043,6.211,6.211,0,0,1-4.885,2.144,6.2,6.2,0,0,1-4.885-2.144A7.345,7.345,0,0,1,0,13.675,7.327,7.327,0,0,1,1.808,8.633,6.275,6.275,0,0,1,6.693,6.512a6.234,6.234,0,0,1,4.885,2.121,7.326,7.326,0,0,1,1.8,5.043Zm-3.977,0a3.857,3.857,0,0,0-.656-2.286,2.362,2.362,0,0,0-2.055-1.051,2.364,2.364,0,0,0-2.055,1.051,3.828,3.828,0,0,0-.661,2.286,3.95,3.95,0,0,0,.661,2.309,2.364,2.364,0,0,0,2.055,1.051,2.363,2.363,0,0,0,2.055-1.051A3.98,3.98,0,0,0,9.4,13.675Zm18.358,0a7.715,7.715,0,0,1-1.632,4.891,5.424,5.424,0,0,1-4.5,2.3,5,5,0,0,1-3.277-1.107c0,.169.019.579.057,1.235s.057,1.2.057,1.621q0,3.514-2.112,3.511a1.864,1.864,0,0,1-1.423-.6,2.089,2.089,0,0,1-.557-1.465V8.816a2.035,2.035,0,0,1,.571-1.442,1.872,1.872,0,0,1,1.413-.6,1.94,1.94,0,0,1,1.855,1.253A4.186,4.186,0,0,1,21.63,6.512a5.441,5.441,0,0,1,4.5,2.267A7.766,7.766,0,0,1,27.762,13.675Zm-3.977,0a3.859,3.859,0,0,0-.661-2.286,2.535,2.535,0,0,0-4.11,0,3.857,3.857,0,0,0-.656,2.286,3.98,3.98,0,0,0,.656,2.309,2.535,2.535,0,0,0,4.11,0A3.983,3.983,0,0,0,23.785,13.675Zm18.448-.424a1.674,1.674,0,0,1-.471,1.366,2.345,2.345,0,0,1-1.465.377H33.118a1.9,1.9,0,0,0,1.071,1.738,4.332,4.332,0,0,0,2.112.477,5.781,5.781,0,0,0,2.331-.632,5.96,5.96,0,0,1,1.746-.632,1.557,1.557,0,0,1,1.175.5,1.7,1.7,0,0,1,.481,1.207q0,1.618-2.441,2.521a10.992,10.992,0,0,1-3.791.683,6.58,6.58,0,0,1-5.028-2.045,7.21,7.21,0,0,1-1.922-5.142,7.081,7.081,0,0,1,2-5.056A6.531,6.531,0,0,1,35.8,6.512a6,6,0,0,1,4.591,1.993A6.766,6.766,0,0,1,42.233,13.252Zm-3.977-.99a2.3,2.3,0,0,0-.842-1.645,2.53,2.53,0,0,0-1.727-.739,2.56,2.56,0,0,0-1.755.739,2.2,2.2,0,0,0-.814,1.645Zm17.339,6.272A2.09,2.09,0,0,1,55.039,20a1.864,1.864,0,0,1-1.423.6q-2.084,0-2.084-3.275c0-.42.029-1.079.086-1.989s.091-1.569.091-1.989q0-3.472-2.264-3.473t-2.26,3.473c0,.42.024,1.084.066,1.989s.071,1.569.071,1.989q0,3.273-2.055,3.275A1.846,1.846,0,0,1,43.85,20a2.072,2.072,0,0,1-.561-1.466V8.812a2.011,2.011,0,0,1,.561-1.447,1.866,1.866,0,0,1,1.423-.593,2,2,0,0,1,1.983,1.253,3.722,3.722,0,0,1,3.406-1.513,5.19,5.19,0,0,1,3.587,1.183,4.537,4.537,0,0,1,1.346,3.478Zm12.477-.419q0,1.336-1.755,2.116a7.126,7.126,0,0,1-2.954.631,6.2,6.2,0,0,1-4.886-2.144,7.348,7.348,0,0,1-1.807-5.043,7.369,7.369,0,0,1,1.845-5.08,6.162,6.162,0,0,1,4.848-2.083,7.939,7.939,0,0,1,2.978.5,2.266,2.266,0,0,1,1.73,2.121,1.971,1.971,0,0,1-.456,1.286,1.455,1.455,0,0,1-1.17.556,4.7,4.7,0,0,1-1.4-.32,4.59,4.59,0,0,0-1.45-.321,2.659,2.659,0,0,0-2.212,1,3.573,3.573,0,0,0-.737,2.333,3.818,3.818,0,0,0,.662,2.281,2.351,2.351,0,0,0,2.059,1.079,5.324,5.324,0,0,0,1.6-.345,5.481,5.481,0,0,1,1.475-.343,1.485,1.485,0,0,1,1.147.556A1.821,1.821,0,0,1,68.072,18.115Zm14.457.419A2.086,2.086,0,0,1,81.972,20a1.872,1.872,0,0,1-1.428.6,1.907,1.907,0,0,1-1.855-1.254,4.185,4.185,0,0,1-3.411,1.513,5.468,5.468,0,0,1-4.529-2.3,7.833,7.833,0,0,1-1.6-4.891,7.857,7.857,0,0,1,1.6-4.9,5.519,5.519,0,0,1,4.529-2.267A4.186,4.186,0,0,1,78.69,8.025a1.906,1.906,0,0,1,1.855-1.253,1.874,1.874,0,0,1,1.414.6,2.027,2.027,0,0,1,.57,1.438Zm-3.977-4.858a3.857,3.857,0,0,0-.656-2.286,2.409,2.409,0,0,0-2.055-1.051,2.364,2.364,0,0,0-2.056,1.051,3.831,3.831,0,0,0-.66,2.286,4.081,4.081,0,0,0,.637,2.309,2.423,2.423,0,0,0,2.08,1.051A2.364,2.364,0,0,0,77.9,15.984,3.98,3.98,0,0,0,78.552,13.675ZM92.676,8.552a1.735,1.735,0,0,1-1.242,1.739q-1.149.382-2.288.782A2.747,2.747,0,0,0,87.9,13.694v4.839A2.1,2.1,0,0,1,87.339,20a1.989,1.989,0,0,1-2.854,0,2.069,2.069,0,0,1-.562-1.466V8.812a2.026,2.026,0,0,1,.556-1.447,1.884,1.884,0,0,1,1.428-.593A2,2,0,0,1,87.89,8.025a3.619,3.619,0,0,1,2.75-1.513,1.965,1.965,0,0,1,1.441.6A2,2,0,0,1,92.676,8.552Zm10.375.179a1.555,1.555,0,0,1-1.036,1.664,7.964,7.964,0,0,1-2.127.179v7.959A2.1,2.1,0,0,1,99.327,20a1.979,1.979,0,0,1-2.846,0,2.063,2.063,0,0,1-.57-1.466V10.574a3.948,3.948,0,0,1-1.788-.306,1.6,1.6,0,0,1-.767-1.537,1.538,1.538,0,0,1,.79-1.513,3.85,3.85,0,0,1,1.765-.3V5.23q0-2.976,1.988-2.973c1.323,0,1.988.989,1.988,2.973V6.917a7.964,7.964,0,0,1,2.127.179A1.537,1.537,0,0,1,103.051,8.732ZM135,6.339c-.011-1.21-2.267-1.759-8.108-1.759-13.7,0-17.181-.58-20.9-4.459,1.565,2.329,2.422,6.7,16.907,6.48,15.113-.231,5.893,3.86,3.211,8.483,4.838-4.278,8.878-7.1,8.892-8.728V6.339ZM115.742,18.76a2.072,2.072,0,1,1-2.069-2.055A2.06,2.06,0,0,1,115.742,18.76Zm9.438,0a2.071,2.071,0,1,1-2.069-2.055A2.06,2.06,0,0,1,125.18,18.76Z"/></g></g></svg>