<svg xmlns="http://www.w3.org/2000/svg" xmlns:xlink="http://www.w3.org/1999/xlink" width="1941.482" height="538.083" viewBox="0 0 1941.482 538.083"><defs><style>.a{opacity:0.149;fill:url(#a);}.b{opacity:0.102;fill:url(#b);}</style><linearGradient id="a" x1="1.01" y1="1.25" x2="-0.01" y2="-0.25" gradientUnits="objectBoundingBox"><stop offset="0" stop-color="#16a3e4"/><stop offset="1" stop-color="#34bdeb"/></linearGradient><linearGradient id="b" x1="1.155" x2="-0.155" xlink:href="#a"/></defs><g transform="translate(122.481 -124.923)"><path class="a" d="M990.169,543.65c-140.819-151.742,48.223-354.377,157.008-292.568,93.452,53.1,161.873,99.593,246.719,15.846C1575.281,87.895,1773.82,75.4,1811.517,245.51c75.492,340.666-443.755,523.8-498.5,352.01C1271.76,468.063,1061.123,620.109,990.169,543.65Z"/><path class="b" d="M-114.054,280.591C-94.741,190.4,35.269,34.8,156.426,192.624,271.56,342.6,308.1,312.3,374.34,286.328s125.829,50.1,50.655,156.81S108.018,640.164-28.035,537.8C-140.587,453.113-126.895,340.554-114.054,280.591Z"/></g></svg>