<?xml version="1.0" encoding="utf-8"?>
<!-- Generator: Adobe Illustrator 19.0.0, SVG Export Plug-In . SVG Version: 6.00 Build 0)  -->
<svg version="1.1" id="Layer_1" xmlns="http://www.w3.org/2000/svg" xmlns:xlink="http://www.w3.org/1999/xlink" x="0px" y="0px"
	 width="60px" height="60px" viewBox="0 0 60 60" style="enable-background:new 0 0 60 60;" xml:space="preserve">
<style type="text/css">
	.st0{fill:none;stroke:#527DBF;stroke-width:2;stroke-miterlimit:10;}
	.st1{fill:#FFFFFF;}
	.st2{fill:none;stroke:#527DBF;stroke-width:2;stroke-linecap:round;stroke-linejoin:round;stroke-miterlimit:10;}
</style>
<g id="XMLID_1_">
	<path id="XMLID_13_" class="st0" d="M45.5,48h-31c-2.2,0-4-1.8-4-4V5c0-2.2,1.8-4,4-4h31c2.2,0,4,1.8,4,4v39
		C49.5,46.2,47.7,48,45.5,48z"/>
	<ellipse id="XMLID_12_" class="st0" cx="30" cy="12.9" rx="5.5" ry="5.3"/>
	<line id="XMLID_11_" class="st1" x1="16.5" y1="26" x2="31.5" y2="26"/>
	<line id="XMLID_10_" class="st2" x1="16.5" y1="26" x2="31.5" y2="26"/>
	<line id="XMLID_9_" class="st1" x1="16.5" y1="31" x2="41.5" y2="31"/>
	<line id="XMLID_8_" class="st2" x1="16.5" y1="31" x2="41.5" y2="31"/>
	<line id="XMLID_7_" class="st1" x1="16.5" y1="36" x2="27.5" y2="36"/>
	<line id="XMLID_6_" class="st2" x1="16.5" y1="36" x2="27.5" y2="36"/>
	<line id="XMLID_5_" class="st1" x1="32.5" y1="36" x2="42.5" y2="36"/>
	<line id="XMLID_4_" class="st2" x1="32.5" y1="36" x2="42.5" y2="36"/>
	<line id="XMLID_3_" class="st1" x1="36.5" y1="26" x2="43.5" y2="26"/>
	<line id="XMLID_2_" class="st2" x1="36.5" y1="26" x2="43.5" y2="26"/>
</g>
</svg>
