<?xml version="1.0" encoding="utf-8"?>
<!-- Generator: Adobe Illustrator 24.1.2, SVG Export Plug-In . SVG Version: 6.00 Build 0)  -->
<svg version="1.1" id="Layer_1" xmlns="http://www.w3.org/2000/svg" xmlns:xlink="http://www.w3.org/1999/xlink" x="0px" y="0px"
	 width="60px" height="60px" viewBox="0 0 60 60" style="enable-background:new 0 0 60 60;" xml:space="preserve">
<style type="text/css">
	.st0{fill:#FFFFFF;stroke:#4680DC;stroke-width:2;stroke-linejoin:round;stroke-miterlimit:10;}
</style>
<g>
	<g id="XMLID_918_" transform="translate(0,-952.36218)">
		<path id="XMLID_922_" class="st0" d="M7.7,953.7c-2.4,0.5-3.6,4-1.7,5.6c1.7,0.5,3.4,2.6,2,4.3c-1.6,1.7-4.7,0.9-5.8,3.2
			c-0.9,1.9,3.1,13.5,4.4,16.4c1,1.6,3.1,1.3,4.6,0.8c1.4-0.3,2.9-0.9,3.3-2.4c0.5-2.1-2.1-2.5-3-3.7c-1.4-1.9,0.1-4.8,2.2-5.3
			c2-0.6,4.8,0.9,4.7,3.1c-0.3,1.6-1.9,3.6-0.1,4.8c1.8,1.1,3.9,0,5.6-0.7c1.7-1,1.9-3.3,0.8-4.9c-0.6-1.3-0.8-3.5,0.8-4.3
			c1.8-0.7,3.5,1.6,5.3,0.6c2.2-1,2.7-4.3,0.9-6c-1.1-1.3-3.5-1.9-4.7-0.4c-0.8,1.4-2.1,3.6-4,2.5c-2.2-1.4-1.2-4.7-3.5-6
			c-2.3-1.2-4.5,1.6-6.8,0.7c-1.7-0.7-1.3-2.7-0.7-4c1.1-2-0.8-4.4-2.9-4.4C8.6,953.4,8.1,953.6,7.7,953.7L7.7,953.7z"/>
	</g>
	<path id="XMLID_917_" class="st0" d="M46.9,32.6c1-1.1,2.3-1.5,3.5-1.1c1.2,0.4,2,1.5,2.1,2.8c0,0.4,0.2,0.7,0.5,0.8
		c0.3,0.1,0.7-0.2,0.9-0.5l3.7-4.1c0.5-0.5,0.4-1.3-0.1-1.8l-4-3.6c-1.3-1.2-0.6-2.6,0.8-2.8c2.3-0.2,3.5-2.8,1.5-4.7
		c-2.1-1.8-4.5-0.4-4.6,1.9c0,1.4-1.3,2.3-2.7,1L44.7,17c-0.5-0.5-1.3-0.5-1.8,0l-3.7,4.1c-0.2,0.2-0.5,0.7-0.3,1
		c0.1,0.3,0.5,0.5,1,0.5c1.4,0,2.5,0.7,3,1.9c0.5,1.1,0.3,2.6-0.7,3.7l0,0l0,0c-1,1.1-2.4,1.4-3.6,1c-1.2-0.4-2-1.5-2.1-2.9
		c0-0.4-0.2-0.8-0.5-0.9c-0.3-0.1-0.8,0.2-1,0.4l-3.7,4.1c-0.5,0.5-0.5,1.4,0.1,1.9l3.9,3.6c1.3,1.2,0.6,2.6-0.7,2.7
		c-2.3,0.2-3.5,2.7-1.5,4.7c2.1,1.8,4.5,0.4,4.5-1.9c0-1.4,1.3-2.2,2.7-1l4,3.6c0.5,0.5,1.4,0.4,1.9-0.1l3.7-4.1
		c0.2-0.2,0.5-0.7,0.4-1c-0.1-0.3-0.5-0.4-0.9-0.4c-1.4,0-2.4-0.6-2.9-1.8C45.6,35,45.9,33.7,46.9,32.6L46.9,32.6L46.9,32.6z"/>
</g>
</svg>
