<?xml version="1.0" encoding="utf-8"?>
<!-- Generator: Adobe Illustrator 19.0.0, SVG Export Plug-In . SVG Version: 6.00 Build 0)  -->
<svg version="1.1" id="Layer_1" xmlns="http://www.w3.org/2000/svg" xmlns:xlink="http://www.w3.org/1999/xlink" x="0px" y="0px"
	 width="60px" height="60px" viewBox="0 0 60 60" style="enable-background:new 0 0 60 60;" xml:space="preserve">
<style type="text/css">
	.st0{fill:#6099D1;}
	.st1{fill:#B2CFED;}
	.st2{fill:none;stroke:#527DBF;stroke-width:2;stroke-linejoin:round;stroke-miterlimit:10;}
	.st3{fill:#FFFFFF;}
</style>
<g>
	<path id="XMLID_5_" class="st0" d="M50.4,5.9C48.2,0.3,33,0,30,0S11.8,0.3,9.6,5.9C-0.5,31.3,29.2,47.9,29.5,48
		c0.2,0.1,0.4,0.1,0.5,0.1s0.4,0,0.5-0.1C30.8,47.9,60.5,31.3,50.4,5.9z"/>
	<g>
		<path id="XMLID_4_" class="st1" d="M50.4,5.9C48.2,0.3,33,0,30,0S11.8,0.3,9.6,5.9c-4.3,10.7-1.4,19.9,3.3,26.9L50.4,5.9
			C50.4,5.9,50.4,5.9,50.4,5.9z"/>
	</g>
	<path id="XMLID_3_" class="st2" d="M49.3,6.3c-2.7-6.9-36-6.9-38.7,0C0.8,31.1,30,47,30,47S59.2,31.1,49.3,6.3z"/>
	<g>
		<path class="st3" d="M38.7,18c0,2.3-0.7,4.1-2.1,5.4c-1.4,1.3-3.3,1.9-5.8,1.9h-1.6v6.9h-5.6V11.4h7.2c2.6,0,4.6,0.6,5.9,1.7
			C38,14.3,38.7,15.9,38.7,18z M29.2,20.7h1c0.8,0,1.5-0.2,2-0.7c0.5-0.5,0.7-1.1,0.7-2c0-1.4-0.8-2.1-2.3-2.1h-1.5V20.7z"/>
	</g>
</g>
</svg>
