<?xml version="1.0" encoding="utf-8"?>
<!-- Generator: Adobe Illustrator 24.1.2, SVG Export Plug-In . SVG Version: 6.00 Build 0)  -->
<svg version="1.1" id="Layer_1" xmlns="http://www.w3.org/2000/svg" xmlns:xlink="http://www.w3.org/1999/xlink" x="0px" y="0px"
	 width="60px" height="60px" viewBox="0 0 60 60" style="enable-background:new 0 0 60 60;" xml:space="preserve">
<style type="text/css">
	.st0{fill:#4680DC;}
	.st1{fill:#5181DF;}
</style>
<g>
	<g>
		<path class="st0" d="M52.4,36.6c0-5.1-3.5-9.4-8.3-10.6V5.5c0-2.8-2.2-5-5-5H16.6l-9.5,9.6v32.4c0,2.8,2.2,5,5,5h30v0
			C47.8,47.1,52.4,42.4,52.4,36.6z M16.1,4v2.6c0,1.7-1.3,3-3,3h-2.5L16.1,4z M12.1,45.5c-1.7,0-3-1.3-3-3v-31h4c2.8,0,5-2.2,5-5v-4
			h21c1.7,0,3,1.3,3,3v20.1c-0.2,0-0.5,0-0.7,0c-1,0-1.9,0.1-2.8,0.4V15.6c0-0.6-0.4-1-1-1h-24c-0.6,0-1,0.4-1,1v23.9
			c0,0.6,0.4,1,1,1h17.5c0.8,2,2.2,3.8,3.9,5H12.1z M30.5,38.5h-11v-2h10.8c0,0,0,0,0,0C30.4,37.2,30.4,37.9,30.5,38.5z M19.6,34.5
			v-2h11.6c-0.3,0.6-0.4,1.3-0.6,2H19.6z M19.6,30.5v-2h14.3c-0.6,0.6-1.2,1.3-1.7,2H19.6z M19.6,26.5v-2h17v2H19.6z M19.6,22.5v-2
			h17v2H19.6z M19.6,18.5v-1.9h17v1.9H19.6z M14.6,34.5v-2h3v2H14.6z M17.6,36.5v2h-3v-2H17.6z M14.6,30.5v-2h3v2H14.6z M14.6,26.5
			v-2h3v2H14.6z M14.6,22.5v-2h3v2H14.6z M14.6,18.5v-1.9h3v1.9H14.6z M41.4,45.5c-5,0-9-4-9-9s4-9,9-9s9,4,9,9S46.3,45.5,41.4,45.5
			z"/>
		<path class="st1" d="M44.5,38.2c0-1.5-1-1.9-2.2-2.3V34c0.4,0.1,0.6,0.2,0.9,0.2c0.5,0,0.9-0.4,0.9-0.8c0-0.7-1-1-1.8-1.1v-1
			c0-0.4-0.3-0.8-0.8-0.8s-0.8,0.3-0.8,0.8v1c-1.4,0.2-2.3,1-2.3,2.4c0,1.6,1.2,2.1,2.3,2.5v2c-0.6-0.1-1-0.4-1.4-0.4
			c-0.6,0-0.9,0.5-0.9,0.8c0,0.8,1.3,1.1,2.3,1.2v0.8c0,0.4,0.3,0.8,0.8,0.8s0.8-0.3,0.8-0.8v-0.8C43.6,40.4,44.5,39.6,44.5,38.2z
			 M40.3,34.6c0-0.3,0.2-0.5,0.5-0.6v1.3C40.6,35.2,40.3,35,40.3,34.6z M42.3,38.9v-1.2c0.2,0.1,0.3,0.3,0.3,0.6
			C42.6,38.6,42.5,38.8,42.3,38.9z"/>
	</g>
</g>
</svg>
