<?xml version="1.0" encoding="utf-8"?>
<!-- Generator: Adobe Illustrator 24.1.2, SVG Export Plug-In . SVG Version: 6.00 Build 0)  -->
<svg version="1.1" id="Layer_1" xmlns="http://www.w3.org/2000/svg" xmlns:xlink="http://www.w3.org/1999/xlink" x="0px" y="0px"
	 width="60px" height="60px" viewBox="0 0 60 60" style="enable-background:new 0 0 60 60;" xml:space="preserve">
<style type="text/css">
	.st0{fill:#FFFFFF;stroke:#4680DC;stroke-width:2;stroke-linejoin:round;stroke-miterlimit:10;}
	.st1{fill:none;stroke:#4680DC;stroke-width:2;stroke-linecap:round;stroke-linejoin:round;stroke-miterlimit:10;}
	.st2{fill:#4680DC;}
</style>
<g>
	<path class="st0" d="M48,38.3"/>
	<line class="st1" x1="4" y1="4" x2="5" y2="4"/>
	<line class="st1" x1="8" y1="4" x2="9" y2="4"/>
	<line class="st1" x1="12" y1="4" x2="13" y2="4"/>
	<g>
		<path class="st2" d="M60,23c0-7.3-4.6-13.5-11-15.9V7V3c0-1.6-1.3-3-3-3H3C1.4,0,0,1.4,0,3v4v34c0,1.7,1.4,3,3,3h43
			c1.7,0,3-1.3,3-3v-2.1C55.4,36.5,60,30.3,60,23z M2,3c0-0.5,0.5-1,1-1h43c0.5,0,1,0.5,1,1v3H2V3z M47,41c0,0.5-0.5,1-1,1H3
			c-0.5,0-1-0.5-1-1V8h33c-5.4,2.9-9,8.5-9,15c0,9.4,7.6,17,17,17c1.4,0,2.7-0.2,4-0.5V41z M43,38c-8.3,0-15-6.7-15-15S34.7,8,43,8
			s15,6.7,15,15S51.3,38,43,38z"/>
		<g>
			<g>
				<path class="st2" d="M50.5,31.3h-15c-0.5,0-1-0.5-1-1V28c0-0.5,0.5-1,1-1s1,0.5,1,1v1.3h13V28c0-0.5,0.5-1,1-1s1,0.5,1,1v2.3
					C51.5,30.9,51,31.3,50.5,31.3z"/>
			</g>
			<path class="st2" d="M47.8,23.2c-0.4-0.4-1-0.5-1.4-0.1l-2.3,2V13.3c0-0.5-0.5-1-1-1s-1,0.5-1,1v11.8l-2.3-2
				c-0.4-0.4-1-0.3-1.4,0.1c-0.4,0.4-0.3,1,0.1,1.4l4,3.5c0,0,0.1,0.1,0.2,0.1l0,0c0,0,0,0,0.1,0l0,0c0.1,0,0.2,0.1,0.4,0.1l0,0l0,0
				l0,0l0,0c0.1,0,0.3,0,0.4-0.1l0,0c0,0,0,0,0.1,0l0,0c0,0,0.1,0,0.2-0.1l4-3.5C48.1,24.2,48.1,23.6,47.8,23.2z"/>
		</g>
	</g>
	<g>
		<path class="st2" d="M22,23H6c-0.6,0-1-0.5-1-1V12c0-0.5,0.4-1,1-1h16c0.5,0,1,0.5,1,1v10C23,22.6,22.5,23,22,23z M7,21h14v-8H7
			V21z"/>
	</g>
	<g>
		<path class="st2" d="M6,27h12c0.5,0,1-0.5,1-1s-0.5-1-1-1H6c-0.6,0-1,0.5-1,1S5.4,27,6,27z"/>
		<path class="st2" d="M22,30H6c-0.6,0-1,0.5-1,1s0.4,1,1,1h16c0.5,0,1-0.5,1-1S22.5,30,22,30z"/>
		<path class="st2" d="M15,35H6c-0.6,0-1,0.5-1,1s0.4,1,1,1h9c0.6,0,1-0.5,1-1S15.6,35,15,35z"/>
	</g>
</g>
</svg>
