<svg xmlns="http://www.w3.org/2000/svg" xmlns:xlink="http://www.w3.org/1999/xlink" width="226.686" height="157.997" viewBox="0 0 226.686 157.997"><defs><style>.a{fill:#0d0d0d;}.b{fill:#0f0f0f;}.c{clip-path:url(#e);}.d{fill:#2d2d2d;}.e{fill:#505050;}.f,.g{fill:#fff;font-family:OpenSans, Open Sans;letter-spacing:0.05em;}.f{font-size:8px;}.g{font-size:5.11px;}.h{fill:#e54800;}.i{fill:#d90010;}.j{fill:#f78b00;}.k{fill:#dbd18b;}.l{filter:url(#c);}.m{filter:url(#a);}</style><filter id="a" x="-0.168" y="0.076" width="227" height="158" filterUnits="userSpaceOnUse"><feOffset dy="3" input="SourceAlpha"/><feGaussianBlur stdDeviation="6.5" result="b"/><feFlood flood-color="#4a4a56" flood-opacity="0.58"/><feComposite operator="in" in2="b"/><feComposite in="SourceGraphic"/></filter><filter id="c" x="0" y="0" width="226.686" height="157.997" filterUnits="userSpaceOnUse"><feOffset dy="3" input="SourceAlpha"/><feGaussianBlur stdDeviation="6.5" result="d"/><feFlood flood-color="#4a4a56" flood-opacity="0.58"/><feComposite operator="in" in2="d"/><feComposite in="SourceGraphic"/></filter><clipPath id="e"><g class="m" transform="matrix(1, 0, 0, 1, 0, 0)"><rect class="a" width="188" height="119" rx="10" transform="translate(0 0.15)"/></g></clipPath></defs><g transform="translate(-484.668 -974.424)"><g transform="translate(-378.846 -106.082)"><g transform="translate(882.846 1096.928)"><g class="l" transform="matrix(1, 0, 0, 1, -19.33, -16.42)"><path class="b" d="M9.675,0H178.012a9.675,9.675,0,0,1,9.675,9.675v99.648A9.675,9.675,0,0,1,178.012,119H9.675A9.675,9.675,0,0,1,0,109.322V9.675A9.675,9.675,0,0,1,9.675,0Z" transform="translate(19.5 16.5)"/></g><g class="c" transform="translate(0 0)"><path class="d" d="M868.382,1217.872V1078.188s60.561,23.075,95.168,65.1,15.243,80.349,15.243,80.349l-105.467,1.236S868.382,1222.816,868.382,1217.872Z" transform="translate(-882.356 -1096.309)"/></g></g><path class="e" d="M1009.754,1115.239a.91.91,0,0,0-.4,0Zm-.613,0-.006-.026v.026Zm-.006-.119c0-.009.007-.02.012-.032l-.012,0v.033Zm-117.148,13.108v.215h-1.165a.8.8,0,0,1,.719-.029c.133-.024.163-.108.254,0a1.027,1.027,0,0,1,.192-.187Zm5.271-6.14v1.074h-.094c.029-.03.077-.074.045-.136a2.523,2.523,0,0,1-1.39.018v-.06c.073-.074.093-.2.165-.277l-.01-.008.022,0a.2.2,0,0,1,.05-.033c0,.027-.026.03-.05.033l-.012.012c.082.055.248-.068.389-.045-.178-.069-.458-.036-.554-.187v-.067a5.546,5.546,0,0,0,1.439-.319Zm0,2.273v1.441h-1.439v-1.441Zm-1.439,2.76V1127h.363q-.179.062-.363.12Zm6.709-7.371v.771H901.09v-.315c.479-.162.961-.323,1.439-.457Zm0,1.97v1.442H901.09v-1.442Zm0,2.641v1.094c-.132-.044-.261.172-.451.155.021-.075.076-.118.109-.182-.147.05-.115-.079-.218-.073a.258.258,0,0,1,.109-.073,1.754,1.754,0,0,0-.988.29v-1.212Zm0,1.11v.325l-.051,0c.087-.092-.132-.082-.182-.146a.553.553,0,0,1,.233-.175Zm0,12.359v1.176h-.383c.038-.085.077-.167.114-.253,0-.093-.067-.127-.109-.182q.18-.38.378-.742Zm0,2.376v1.441h-.15c-.063-.186-.17-.377-.228-.563a1.186,1.186,0,0,0,.341-.878Zm5.27-20.465v.78H906.36v-1.029c.2-.013.429-.056.549-.071-.036.048-.034.136-.109.146-.032.088.268.081.073.109.287.029.6.047.925.066Zm0,1.978v1.442H906.36v-1.442Zm0,2.641v1.441H906.36v-1.441Zm0,2.64v1.442H906.36V1127Zm0,2.641v1.441H906.36v-1.441Zm0,2.641v1.442H906.36v-.246c.091-.119.146-.259.041-.369.077-.044.106-.137.218-.145-.155-.054.061-.253-.182-.219a.637.637,0,0,1,.146-.291c-.021-.056-.133.049-.223.041v-.209l0,0Zm0,2.64v1.442H906.36v-1.442Zm0,2.641v1.442H906.36v-1.442Zm0,2.641v1.441H906.36v-1.441Zm0,2.64v1.442H906.36v-1.442Zm0,2.641v1.441H906.36v-1.441Zm0,2.641v1.315a1.773,1.773,0,0,0-.526-.531c-.028-.137.044-.174.036-.291-.089-.142-.344-.117-.363-.328-.206.035-.294-.045-.3-.165Zm5.271-27.856v.248h-.66a1.421,1.421,0,0,1,.66-.248Zm-1.14.248h-.3v-.161c.1.052.195.109.3.161Zm1.14,1.2v1.442h-1.439v-1.442Zm0,2.641v1.441h-1.439v-1.441Zm0,2.64v1.442h-1.439V1127Zm0,2.641v1.441h-1.439v-1.441Zm0,2.641v1.442h-1.439v-1.442Zm0,2.64v1.442h-1.439v-1.442Zm0,2.641v1.442h-1.439v-1.442Zm0,2.641v1.441h-1.439v-1.441Zm0,2.64v1.442h-1.439v-1.442Zm0,2.641v1.441h-1.439v-1.441Zm0,2.641v.857h-.02a.467.467,0,0,1,.02.051v.4c-.008.044-.019.089-.03.136h-1.409v-1.442Zm0,3.439v.643h-1.439v-1.441h1.192a.91.91,0,0,0,.082.29c.147-.093,0-.171-.031-.29h.041a.344.344,0,0,1,.1.181.954.954,0,0,0,.056.617Zm0,1.842v1.384a1.655,1.655,0,0,1-1.4-.53l-.039-.007v-.847Zm5.271-33.239v.35H916.9v-.871c.215.01.146.308.036.5-.006.091.056.114.109.146.342-.055.388-.236.763-.292-.024-.108-.078.036-.145,0,.132-.14.3-.054.472-.181-.035.147-.169.195-.291.254.011.05.091.03.145.037-.066.1-.222.117-.363.145a1.94,1.94,0,0,0,.713-.087Zm0,1.549V1122c-.322.07-.8.147-.93.005.165-.182.554-.139.753-.286Zm0,.45v.992H916.9v-.361c.242-.478.687-.458,1.235-.43-.044,0-.086-.011-.072-.073a.656.656,0,0,1,.276-.128Zm-1.439.568v-.067l.036-.01a.209.209,0,0,1-.036.077Zm0-.876v-.142h1.127c-.332.067-.73.1-1.127.142Zm1.439,2.5v.24a1.859,1.859,0,0,1-.386-.01.775.775,0,0,0-.32-.23Zm0,.389v1.052H916.9v-.593a6.428,6.428,0,0,0,1.439-.459Zm-1.439.065v-.454h.461a.265.265,0,0,0,.011.3,3.74,3.74,0,0,0-.472.151ZM918.34,1127v1.442H916.9V1127Zm0,2.641v1.441H916.9v-1.441Zm0,2.641v1.442H916.9v-1.442Zm0,2.64v1.442H916.9v-1.442Zm0,2.641v1.442H916.9v-1.442Zm0,2.641v1.441H916.9v-1.441Zm0,2.64v1.442H916.9v-1.442Zm0,2.641v.225a.153.153,0,0,1-.059-.078.612.612,0,0,1-.145.292c-.075-.01-.009-.162-.109-.146-.207.156-.364.041-.545,0,.024-.037.084-.038.073-.109-.044-.065-.211-.008-.145-.182a.888.888,0,0,1-.129,0Zm-1.439.037v-.037h.252a.172.172,0,0,0-.035.111,1.9,1.9,0,0,0-.218-.074Zm1.439,5.412v1.275H916.9v-.769c.25-.418.873-.468,1.439-.505Zm0,3.818v.1H916.9v-1.443h1.019c-.117.479-.172,1-.583,1.255a.655.655,0,0,0,.145.109c.043-.006.031-.067.036-.109.076.044.142.1.218.145.113-.02.156-.111.254-.145a1.85,1.85,0,0,0,.349.089Zm0,1.3v1.254c-.181-.221-.359-.444-.531-.673.1-.113.138.1.218,0,.018-.115-.111-.082-.073-.219-.082.07-.109.084-.145-.037-.052.044-.055.139-.109.182a2.171,2.171,0,0,1-.8-.218v-.289Zm5.27-39.489v.207a2.18,2.18,0,0,0-.569.029c0-.088.276-.1.036-.109.172-.036.35-.08.533-.128Zm0,1.078v.24h-1.439v-.373a1.9,1.9,0,0,1,.906.239.961.961,0,0,1,.533-.106Zm0,1.438v1.443h-1.439v-.729c.493,0,1.021.026,1.342-.008a2.1,2.1,0,0,0-1.342-.16v-.39a1.514,1.514,0,0,0,.324-.069,1.328,1.328,0,0,0-.324.005v-.092Zm0,2.641v1.442h-1.439v-1.442h.953c-.009.016-.026.034-.047.068.1.06.139-.006.19-.068h.1a.191.191,0,0,0,0,.032.143.143,0,0,1,.067-.032Zm0,2.641v1.441h-1.439v-1.441Zm0,2.64v1.442h-1.439V1127Zm0,2.641v1.441h-1.439v-1.441Zm0,2.641v.942a5.809,5.809,0,0,1-1.08.5h-.359v-1.442Zm0,2.64v.207a1.428,1.428,0,0,0-.424.419,1.6,1.6,0,0,0,.424-.292v.13a5.272,5.272,0,0,0-.8.978h-.642v-1.442Zm0,1.321v.121h-.048l.048-.121Zm0,1.32v1.442h-1.439v-1.442h.324v.024c.031-.007.061-.015.09-.024Zm0,2.641v1.441h-1.439v-1.441Zm0,2.64v1.256a1.2,1.2,0,0,0-.1.186h-1.335v-1.442Zm-.153,4.082h-1.286v0c.075-.044.116-.141.07-.2-.015.03-.045.043-.07.062v-.026a1.543,1.543,0,0,0,0-.94v-.336h1.175c.018.466.084.967.11,1.441Zm-.81,1.2h.715a1.221,1.221,0,0,1-.321.529c-.107-.032.084-.055.036-.146-.123.01-.438.135-.4-.11.1-.026.073.072.145.073a1.033,1.033,0,0,1-.175-.347Zm.963,2.641v.142a1.049,1.049,0,0,1-.674-.142Zm0,8.744v.62h-.556a2.009,2.009,0,0,1-.086-.226c.164.055.079-.14.145-.182-.024-.109-.078.034-.145,0-.142-.559-.495-.4-.8-.167v-.531c.061-.046.12-.092.179-.14.105.034.415-.005.327.109a1,1,0,0,1,.933.517Zm0,1.819v1.438c-.056-.057-.142-.084-.17-.169q-.01-.119.109-.109c-.118-.159.084-.643-.109-.874-.035-.132.163-.03.145-.145-.017-.056-.031-.1-.043-.141Zm0,2.641v1.442h-1.439v-.8c.179-.054.357-.108.433-.265-.032-.053-.055-.115-.145-.109a.186.186,0,0,1,.291-.146c-.016-.044-.03-.084-.04-.122Zm0,2.641v1.441h-1.439v-1.441Zm0,2.64v1.443H922.6a4.144,4.144,0,0,0-.43-.632v-.81Zm0,2.641v1l-.061-.063c-.134-.293-.26-.612-.392-.937Zm5.271-55.458v.187a.354.354,0,0,1-.063.029.165.165,0,0,0,.063.082v.5a1.741,1.741,0,0,1-1.008,0,2.859,2.859,0,0,0-.431.063v-.333a2.055,2.055,0,0,0,.758-.022c-.034-.1-.183-.083-.291-.108.066-.1.273-.067.4-.109.013-.123-.157-.061-.218-.109a3.269,3.269,0,0,1,.425-.179Zm0,3.684v.4h-.865c.157-.2.688-.049.657-.336.083-.01.137.009.145.073a.311.311,0,0,1,.063-.136Zm-1.439,0v-.519c.089.09.148.212.358.181-.089.189.055.028.218.073a.794.794,0,0,1-.254.291c-.167-.06-.241,0-.322-.026Zm1.439,1.6v1.442h-1.439v-1.442Zm-1.439,2.827v-.185h.277a.186.186,0,0,0-.028.157c-.124.027-.046-.148-.182-.109.031.07-.005.109-.067.137Zm.5,3.9h-.5v-.15c.153.063.345.087.5.15Zm.941,1.2v.394c-.031.042-.064.084-.1.125.036.093.057.2.1.29v.16a.624.624,0,0,1-.1.022.532.532,0,0,1,.1.044v.405h-1.439v-1.441Zm0,2.641v1.442h-1.439v-1.442Zm0,2.64v1.442h-1.439v-1.442Zm0,2.641v1.442h-.78l.026-.034a.375.375,0,0,0-.116.034h-.569v-1.442Zm-1.439,3.909v-.126a.083.083,0,0,1,.031.028.4.4,0,0,1-.031.1Zm0-.285v-.547l.031,0a1.649,1.649,0,0,1,.109.765c-.093,0-.072-.122-.073-.218l-.067,0Zm0-.793v-.19h.086c-.021.071-.038.147-.056.223a.426.426,0,0,1-.031-.033Zm.306-.19h.16a1.056,1.056,0,0,1-.327.332.554.554,0,0,1,.167-.332Zm.9,12h-1.209v-.08a.243.243,0,0,0,.249-.124,6.114,6.114,0,0,1,.945.182.09.09,0,0,1,.016.022Zm-1.127,1.2h.212a.684.684,0,0,1-.227.2.23.23,0,0,0,.015-.2Zm.685,4.083h-.3c-.046-.138.045-.373.217-.316.068.065.065.2.082.316Zm.672,1.2v1.442h-1.439v-1.442Zm0,2.641v1.442h-1.439v-1.442Zm0,2.641v1.442h-1.439v-1.442Zm0,2.641v1.441h-1.439v-1.441Zm0,2.64v1.443h-1.439v-1.443Zm0,2.641v1.442h-1.439V1171.9Zm0,2.641v1.442h-1.439v-1.442Zm0,2.641v1.441h-.344a2.02,2.02,0,0,0-.758-1.441Zm0,2.64v1.443h-.2c0-.089-.007-.179-.009-.272-.036-.1-.1.052-.145-.036v-.328c.059-.01.063.034.109.036,0-.253,0-.541-.005-.842Zm0,2.641v1.442h-.152a.951.951,0,0,1,.088-.182c-.014-.459-.04-.861-.067-1.259Zm0,2.641v.72q-.061-.174-.136-.354a.477.477,0,0,0,.093-.366Zm4.472-69.862h-.241a.745.745,0,0,1,.241,0Zm-.321,0h-.319v-.141c.116.006.227.018.319.026v.114Zm1.119,1.2v.187a1.884,1.884,0,0,0-.284.029.323.323,0,0,0-.123-.216Zm0,1.351v.091h-1.439v-.142a5.376,5.376,0,0,1,1.439.051Zm-1.439-.936v-.407l.02-.007h.234a.162.162,0,0,0,.174.034,1.059,1.059,0,0,1-.428.381Zm1.439,2.226v.305c-.029-.041-.128-.012-.1-.109a3.627,3.627,0,0,1-.763-.037c.04-.054.082-.107.125-.16Zm0,.343v.4a.612.612,0,0,1-.138-.106c.012.168-.289.043-.509.11-.049-.135-.064-.08-.218-.11.042-.151-.077-.142-.073-.255.059.027.158-.072.073-.073.224-.067.547.077.865.038Zm0,.888v.132h-.029a.253.253,0,0,1,.029-.131Zm-1.426.212h-.013v-.008l.013.008Zm1.426,1.2v.17c-.174.056-.354.106-.538.152.039-.135-.09-.1-.073-.218-.147.039.011.173-.036.328-.121-.025-.258-.033-.291-.146-.149.047.018.226.145.219-.093.206.077.073.109.218-.107.046-.229-.011-.363-.036.095-.133-.073-.164,0-.255a.367.367,0,0,0-.291-.073.237.237,0,0,0,.036-.182.426.426,0,0,1-.138.052v-.229Zm-.555,1.442h-.884v-.892a.267.267,0,0,1,.174-.045c0,.12.015.257-.109.254.005.1.174.118.073.219h.254c.062.189.484.309.492.463Zm.555,1.834v.807h-.341a.5.5,0,0,0-.124-.01c.147-.116.043-.266.182-.4.01-.037-.073-.1-.1-.065a.133.133,0,0,0-.008.029.05.05,0,0,1,.008-.029c.046-.11.24-.216.384-.331Zm0,2.006v1.442h-1.439v-.329c.353-.343.526-.734.3-1.113Zm0,2.641v1.441h-1.439v-1.441Zm0,2.641v.658c-.207.1-.4.208-.574.314a1.1,1.1,0,0,1-.426.469h-.439v-1.442Zm0,.894v.548h-.9c.286-.174.586-.369.9-.548Zm0,1.746v.595c-.248.04-.544.282-.683.177-.049.025.032.111-.073.146-.077.017-.069-.052-.073-.11-.042.006-.031.067-.036.11-.088.015-.079-.067-.182-.037.013-.048.064-.058.073-.109-.17.036-.219.193-.291.328-.07.015-.124.01-.174.024v-1.123Zm0,24.872v.338h-1.439v-1.439a.2.2,0,0,0,.247.011c.017.226.339.146.4.328-.048.146-.163.226-.218.364.009.095.062-.05.145,0,.074-.009.013-.152.069-.18,0-.023,0-.028,0,0l0,0a1.22,1.22,0,0,1,.04.362,1.338,1.338,0,0,1,.756.217Zm0,1.536v1.442h-1.439v-1.442Zm0,2.641v1.442h-1.439v-1.442Zm0,2.641v1.441h-1.439v-1.441Zm0,2.64v1.443h-1.439v-1.443Zm0,2.641v1.442h-1.439V1171.9Zm0,2.641v1.442h-1.439v-1.442Zm0,2.641v1.441h-1.439v-1.441Zm0,2.64v1.443h-1.439v-1.443Zm0,2.641v1.442h-1.439v-1.442Zm0,2.641v1.442h-1.439V1185.1Zm0,2.641v1.442h-1.439v-1.442Zm0,2.641v1.442h-1.439v-1.442Zm0,2.641v1.442h-1.439v-1.442Zm0,2.641v1.442h-1.439v-1.442Zm0,2.641v1.442h-1.41a.174.174,0,0,1-.028-.056v-1.386Zm0,2.641v.356a.175.175,0,0,1-.066,0c.095-.186-.131,0-.036-.218a1.515,1.515,0,0,1-.327.036c0-.072.1-.046.073-.145,0-.019-.005-.028-.01-.031Zm-.643,0h.265c-.025.009-.067.065-.124.031.067.07.067.028.036.145h-.145c.021-.09-.016-.123-.032-.177Zm-38.886-76.585v1.441h-.555a.436.436,0,0,0,.054-.083c.023-.052-.13-.058-.146-.016a.1.1,0,0,0,0,.016.021.021,0,0,1,0-.016c.007-.165.452-.17.582-.311a3.892,3.892,0,0,0-.984.41h-.389v-.5c.2-.075.453-.089.5-.312-.085-.106-.2.069-.327.037-.023-.079.1-.116-.036-.11.35-.165.732-.363,1.133-.557Zm0,2.677v.474a11.4,11.4,0,0,1-1.439.58v-.376a10.466,10.466,0,0,0,1.119-.357,1.759,1.759,0,0,1,.32-.32Zm5.271-5.319v1.442h-1.439v-.965c.354.029.753-.143.935-.045.076-.02.077-.057.036-.11s-.3-.061-.291.037a.449.449,0,0,1,.157-.359h.163c.037.085-.068.149-.1.213.182-.023.264-.147.436-.181l-.053-.032Zm-1.439.22v-.024l.054.009a.088.088,0,0,1,.045.008l-.045-.008a.132.132,0,0,0-.054.015Zm1.439,2.422v1.441h-.941a2.822,2.822,0,0,1,.583-.41c-.382.125-.738.25-1.08.383v-1.414Zm5.27-5.095v1.255h-1.439v-1.033c.081-.012.162-.022.242-.031.31-.033.8-.156,1.2-.191Zm0,2.453v1.442h-1.439v-1.442Zm0,2.641v1.441h-.509l0-.01-.022.01h-.846a.15.15,0,0,0,.032-.046c-.032-.007-.064-.013-.1-.018v-1.377Zm0,7.923v.351c-.064-.071-.131-.009-.07-.143-.16,0-.149.051-.254,0,.047-.062.075-.143.182-.145a.139.139,0,0,1-.031-.063Zm0,.367v.139a.136.136,0,0,1-.107-.079c.007-.048.092-.019.107-.06Zm0,.917v.157h-.052l.052-.157Zm0,1.356v1.442h-1.439v-.4c.262-.358.535-.7.815-1.044Zm0,2.641v1.442h-1.439v-1.442Zm0,2.641v1.441h-1.439v-1.441Zm0,2.64v1.44a.722.722,0,0,1-.252-.144,1.287,1.287,0,0,0-.115.146h-1.05a6.189,6.189,0,0,0-.022-.855v-.588Zm0,3.689v.394H903.9a.194.194,0,0,1-.116-.2c.119.011.3.084.4,0,.123,0,.007.083.109.145.076-.021-.052-.137-.036-.218.128-.042.14-.2.218-.292-.018-.421-.448-.605-.587-.875h.822c.116.348.3.7.453,1.047Zm0,1.594v.865a1.091,1.091,0,0,1-.143-.19c-.077-.017-.069.052-.072.109-.144-.011.04-.126-.109-.109a.836.836,0,0,0,.21-.674Zm5.27-28.036v.429H909v-.7a5.935,5.935,0,0,1,1.439.272Zm0,1.627v1.442H909v-1.442Zm0,2.641v1.441H909v-1.441Zm0,2.64v1.442H909V1127Zm0,2.641v1.441H909v-1.441Zm0,2.641v1.442H909v-1.442Zm0,2.64v1.442H909v-1.442Zm0,2.641v1.442H909v-1.442Zm0,2.641v1.441H909v-1.441Zm0,2.64v1.442H909v-1.442Zm0,2.641v1.441H909v-1.441Zm0,2.641v1.442H909v-1.442Zm0,2.641v1.441H909v-1.441Zm0,2.64v.373a2.107,2.107,0,0,1-.4-.373Zm5.271-33.542v.654h-1.439v-.363c.474-.1.949-.208,1.439-.291Zm0,1.852v.325a1.635,1.635,0,0,0-.439.181,2.428,2.428,0,0,0,.439-.054v.414a.986.986,0,0,0-.33.149.562.562,0,0,0,.33.1v.33h-1.439v-1.442Zm0,2.641v.707l-.039,0,.039.017v.721h-1.439v-1.441Zm0,2.64v1.442h-1.439V1127Zm0,2.641v1.441h-1.439v-1.441Zm0,2.641v1.442h-1.439v-1.442Zm0,2.64v1.442h-1.439v-1.442Zm0,2.641v1.442h-1.439v-1.442Zm0,2.641v1.441h-1.439v-1.441Zm0,2.64v1.442h-1.439v-1.442Zm0,2.641v.227l-.076.03c.031-.063.135-.126-.036-.109-.026-.1.072-.073.073-.145l-.008,0Zm-1.439,1.046v-1.046H915.6c-.038.013-.052.049-.113.039-.024.133.079.139.073.254-.048.036-.135.035-.145.109-.1-.033.083-.082.073-.146a2.18,2.18,0,0,1-.8.546c-.1-.1-.178,0-.254-.109-.09.073.068.175.036.219a1.926,1.926,0,0,1-.2.134Zm1.439,6.876v1.443h-1.079c-.068-.1-.133-.2-.195-.3-.012.053-.1.067-.164.04v-1.185Zm5.27-35.68v.151h-.1a.367.367,0,0,1,.1-.151Zm0,2.364v.154a.265.265,0,0,1,0-.154Zm-.35.427h-1.088v-.033c.3.012.711,0,1.088.033Zm-1.088-1.185v-.258h1.1a4.158,4.158,0,0,1-1.1.258Zm1.438,2.383v1.442h-1.438v-1.442Zm0,2.641v1.441h-1.438v-1.441Zm0,2.64v1.442h-1.438V1127Zm0,2.641Zm0,1.348v.094h-.23c.05-.058.149-.068.23-.094Zm-.274.094h-1.164v-1.441h1.3c-.127.16-.315.26-.416.446.038.084.26-.017.291.073-.064.058-.194.049-.291.073h0c-.018.308.167.332.073.619.121.1.126-.143.254-.146.032.033.111,0,.109.146.006.1-.134.166-.16.23Zm.274,1.2v1.442h-1.438v-1.442Zm0,2.64v1.442h-1.438v-1.442Zm0,2.641v1.442h-1.438v-1.442Zm0,2.641v1.441h-1.438v-1.441Zm0,2.64v1.442h-1.438v-1.442Zm-.076,2.641h0l0,0,0,0Zm-.727,5.282h.076a.145.145,0,0,1-.076,0Zm.218,0h.108a1.031,1.031,0,0,1-.11.035.07.07,0,0,1,0-.035Zm-.247,4.083h-.607v-.2c.119-.014.221,0,.271.123a.334.334,0,0,1,.336.078Zm-.045,2.64h-.562v-1.441h.86a6.35,6.35,0,0,1-.372,1.308.13.13,0,0,1,.073.133Zm.877,1.717v.022a.031.031,0,0,1,0-.022Zm0,.118v.529c-.128-.009-.29-.007-.223-.093a.543.543,0,0,1-.291,0c-.033.01-.122.136-.036.146-.156.07-.137-.348-.291-.4-.086.031.1.09.036.219a.521.521,0,0,1-.291-.146c.253-.277-.038-.5-.343-.615v-.273h.867a1.258,1.258,0,0,0,.494.378c.009.106-.069.125-.109.181.03.057.1.077.187.075Zm5.271-42.8v.687c-.214.028-.381.054-.335-.049-.137-.073-.583.306-.69.036-.113.094-.146.1-.327.073-.01-.059.034-.063.036-.109a.33.33,0,0,1-.123.035v-.176c.151-.012.325,0,.487-.005-.062-.083-.277-.013-.4-.036a4.641,4.641,0,0,1,1.352-.456Zm0,.755v.284a1.334,1.334,0,0,1-.916-.146,6.147,6.147,0,0,1,.916-.138Zm-1.439-.654v-.189h.426a3.124,3.124,0,0,0-.426.189Zm.555-.189H926c-.29.046-.5.231-.782.143a.181.181,0,0,1,.141-.143Zm.884,2.641v1.443h-.687a.185.185,0,0,1,.1-.008.885.885,0,0,0-.509-.073c0-.094.142-.052.145-.146q-.239.08-.487.149v-1.365Zm0,2.641v1.442h-1.439v-1.442Zm0,2.641v.9a1.34,1.34,0,0,0-.371.382c-.174.008-.266.1-.472.073a.3.3,0,0,0,.218.073l0,.01h-.81v-1.441Zm0,3.181v.9h-1.439V1127h.864a1.179,1.179,0,0,1-.268.611,2.919,2.919,0,0,1,.843-.071Zm0,2.1v1.441h-1.439v-1.441Zm0,2.641v1.442h-.65a.1.1,0,0,1-.048-.1c.044-.077.137-.106.145-.218-.424.115-.638-.026-.509-.474a.808.808,0,0,1-.378-.053v-.592Zm0,3.773v.309h-.3a2.614,2.614,0,0,0,.3-.309Zm-.612.309h-.827v-1.281a1.61,1.61,0,0,0,.178-.161h.3a.673.673,0,0,1,.411.3c.008.48-.588.672-.69,1.019.233-.034.436-.467.654-.182a.584.584,0,0,1-.023.306Zm.612,1.2v1.442h-1.439v-1.442h.015a1.514,1.514,0,0,0,.866,0Zm0,2.641v1.441h-1.439v-1.441Zm-1.439,3.134v-.494h.5a6.039,6.039,0,0,1-.5.494Zm1.439,8.431v.039a2.357,2.357,0,0,1-1.439.2V1151a.922.922,0,0,0,.668.243c-.017.168.007.151-.109.219a1.435,1.435,0,0,1,.88.311Zm0,6.92v1.442h-1.439v-1.442Zm0,2.641v1.442h-1.439v-1.442Zm0,2.641v1.442h-1.439v-1.442Zm0,2.641v1.441h-1.439v-1.441Zm0,2.64v1.443h-1.439v-1.443Zm0,2.641v1.442h-1.439V1171.9Zm0,2.641v1.442h-.223a3.875,3.875,0,0,1-1.216-.88v-.561Zm5.271-58.029v.45a8.892,8.892,0,0,0-.991.059c.169-.175,0-.021-.073-.181.265-.024.646-.206.763.035a.326.326,0,0,1,.3-.364Zm0,.484v.294a1.682,1.682,0,0,1-.373-.013c.016-.2.177-.259.373-.281Zm0,.731v.094l-.046,0a.07.07,0,0,0,.046.033v.029h-.667c.037-.111.4-.134.667-.158Zm-.759.158H930.2a.817.817,0,0,1,.557,0Zm.759,1.2v.954a1.09,1.09,0,0,1-.192.043c.047.063.145.073.182.146h.01v.3h-1.36a4.057,4.057,0,0,0,.368-.19c.027-.124-.148-.046-.109-.182a.337.337,0,0,1-.339-.02v-.365a.344.344,0,0,1,.266-.125c.017-.078-.052-.069-.109-.073a1.155,1.155,0,0,0,.291-.328c.162.028.6-.016.4-.109a.231.231,0,0,1,.058-.051Zm0,2.641v.89l-.046.015c0,.023.024.028.046.032v.09a5.452,5.452,0,0,1-.611.415h-.828v-1.442Zm0,7.923v1.441h-1.439v-.173c.111-.126.243-.239.375-.385-.126-.243.087-.645.211-.883Zm0,2.641v1.442h-1.439v-1.442Zm0,2.64v1.442h-1.439v-1.442Zm0,2.641v.058l-.046,0a.07.07,0,0,1,.014-.06Zm-1.439.6v-.176a1.684,1.684,0,0,0,.448-.112c-.174.1.1.075.182.037a2.77,2.77,0,0,1-.629.251Zm0-.315v-.288h1.006c-.047.062-.065.155-.122.206a4.313,4.313,0,0,0-.884.082Zm1.117-.288h.228a.468.468,0,0,1-.243.1c.018-.068.025-.082.015-.1Zm.322,21.127v1.442h-1.439v-1.442Zm0,2.641v1.442h-1.439v-1.442Zm0,2.641v1.442h-1.439v-1.442Zm0,2.641v1.441h-1.439v-1.441Zm0,2.64v1.443h-1.439v-1.443Zm0,2.641v1.442h-1.439V1171.9Zm0,2.641v1.442h-1.439v-1.442Zm0,2.641v1.441h-1.439v-1.441Zm0,2.64v1.443h-1.439v-1.443Zm0,2.641v1.442h-1.439v-1.442Zm0,2.641v1.442h-1.439V1185.1Zm0,2.641v1.442h-1.439v-1.442Zm0,2.641v1.442h-1.439v-1.442Zm0,2.641v1.442h-.742l.005-.005c-.081-.106-.065-.147-.182-.255.1-.337-.048-.5-.145-.8.141-.016.129-.041.218.036-.015-.069-.1-.065-.073-.182a.179.179,0,0,1-.218,0c-.068-.064.016-.107.036-.182a.148.148,0,0,0-.03-.053Zm-1.439,1.141v-.5a.262.262,0,0,0,.193.1c-.089.112-.043.146.073.219-.136.068-.145.027-.073.182a.873.873,0,0,1-.193,0Zm0-.542v-.066c.033.035.078.064,0,.066Zm0-.118v-.2c.048.049.109.086.121.172a.156.156,0,0,0-.121.028Zm0-.345v-.136h.1c0,.066.007.143-.1.136Zm1.439,2.5v1.442H931.1a.252.252,0,0,0,.039-.061c-.1,0-.208.014-.254-.036.148-.193-.015-.217.218-.436a1.341,1.341,0,0,1-.291-.182c-.054.016.014.047,0,.109-.125-.081-.377-.034-.4-.219a.2.2,0,0,1-.145.036c-.1.057.2.13.073.219-.141,0-.184-.108-.254-.182.053-.19.228-.257.327-.4a.154.154,0,0,1-.218-.11.267.267,0,0,1,.363,0c-.015-.069-.077-.091-.073-.179h.089a.174.174,0,0,1-.016.07c.19-.023.258.267.472.328.008-.118-.064-.154-.036-.292-.031-.065-.159-.035-.185-.106Zm-.595,1.442h-.033a.122.122,0,0,0,.036-.024.214.214,0,0,0,0,.024Zm-.578-1.442h.142c-.047.046-.07.105-.142.033a.2.2,0,0,1,0-.033Zm.307,0h.128c0,.019-.013.033-.036.033a.108.108,0,0,1-.092-.033Zm.866,2.641v.188c-.048-.044-.131-.053-.046-.137a.348.348,0,0,1-.436-.036l0-.014Zm0,.261v.129c-.013.019-.029.038-.046.061a.127.127,0,0,1,.046.038v.214c-.2-.029-.035-.3-.228-.289-.02-.053.042-.188-.036-.182.059-.088.187,0,.264.028Zm5.27-84.112v.018l-.012,0,.012-.015Zm0,.057v.583c-.154,0-.286.057-.485.067.007-.029.037-.036.036-.073a2.856,2.856,0,0,1-.436.073c.017-.077-.052-.069-.109-.073.005-.079.091-.078.182-.073-.045-.052-.139-.055-.182-.109-.027-.113.1-.071.073-.182.178-.009.275.063.472.036-.039-.094-.3.035-.254-.146.208.046.448-.1.7-.1Zm0,.685v.042H936.2a1.782,1.782,0,0,1,.587-.042Zm0,1.242v.112c-.27-.034-.525-.081-.756-.112Zm0,.567v.549c-.465.012-.944-.034-1.248-.027-.027-.124.134-.06.145-.145a1.074,1.074,0,0,1-.336.093v-1.037h.591c.008.056-.035.06-.037.106.145-.012.2.065.363.037-.038.169-.322.09-.509.11a.277.277,0,0,0,.254.146c.027.123-.134.06-.145.145.1.12.164-.1.29-.073.024.036.084.037.073.109a.793.793,0,0,1,.557-.013Zm-.366.875h-.489a4.3,4.3,0,0,1,.489,0Zm.366,1.2v1.083a1.1,1.1,0,0,1-.194.1,2.159,2.159,0,0,1-.545-.292c-.174.016-.427.039-.7.045v-.792l.009.019c.047-.073.193-.05.218-.145a.044.044,0,0,0,0-.015Zm-1.1,1.443h-.336v-.4l.3.031c-.011.05-.091.03-.145.036-.015.088.066.079.036.182a.77.77,0,0,1,.327.036c-.029.07-.1.1-.182.117Zm1.1,2.1v.53l-.039.008h-.18a.726.726,0,0,1-.23-.1c-.016.044-.03.044-.055.1h-.935v-.265c.185-.167.562-.132.59-.382a1.837,1.837,0,0,0,.848.108Zm0,1.9v1.284h-1.438v-1.436a1.54,1.54,0,0,0,1,0h.17a.347.347,0,0,0,.272.158Zm0,2.483v1.442h-1.438V1127Zm0,2.641v1.441h-1.438v-1.441Zm-.81,4.083h-.629v-.386a.8.8,0,0,1,.3.245,1.622,1.622,0,0,0,.291-.109c.023.062.11.06.145.109a.3.3,0,0,1,.145-.146.888.888,0,0,1-.252.287Zm-.629-.391v-.649a2.584,2.584,0,0,1,1.281.026c.029.186-.076.238-.073.4a1.935,1.935,0,0,1-1.208.224Zm0-1.018v-.033h.054l-.054.033Zm1.438,2.608v.452a2.754,2.754,0,0,0-.884.355,1,1,0,0,0-.327-.073.78.78,0,0,1-.227.272v-.636a1.832,1.832,0,0,0,.3-.182c.075.01.01.16.073.182a.367.367,0,0,1,.291-.146c-.19-.13-.4-.027-.618,0,.027-.132.159-.158.25-.226Zm-1.438.111v-.111h.208c-.065.038-.134.076-.208.111Zm1.438,26.3v1.442h-1.438v-1.442h.5a.948.948,0,0,1,.24.1.133.133,0,0,1,.067-.1h.34a.137.137,0,0,1,.029.031,1.408,1.408,0,0,1,.194-.031Zm0,2.641v1.442h-1.438v-1.442Zm0,2.641v1.441h-1.438v-1.441Zm0,2.64v1.443h-1.438v-1.443Zm0,2.641v1.442h-1.438V1171.9Zm0,2.641v1.442h-1.438v-1.442Zm0,2.641v1.441h-1.438v-1.441Zm0,2.64v1.443h-1.438v-1.443Zm0,2.641v1.442h-1.438v-1.442Zm0,2.641v1.442h-1.438V1185.1Zm0,2.641v.236a.344.344,0,0,1-.049-.071.377.377,0,0,0,.049.331v.946h-1.438v-1.442Zm0,2.641v.8a2.174,2.174,0,0,1-1.393-.04c-.042.224.342.337.327.655a.183.183,0,0,1-.007.022h-.365v-1.442Zm-1.438,3.461v-.47a.536.536,0,0,1,.155.431.214.214,0,0,1-.155.038Zm.256,3.263h-.256v-.389a.618.618,0,0,1,.256.389Zm1.182,4.078v.615a.242.242,0,0,1-.376-.13c-.057.015-.031.115-.145.072.19.1.394.188.472.4-.185-.079-.287-.232-.545-.146a.237.237,0,0,1-.037-.182.134.134,0,0,1-.181,0c-.067.022.063.151.145.145-.181.1-.752-.243-.472-.363a.288.288,0,0,0-.3.014v-.665h1.009a3.655,3.655,0,0,0,.429.238Zm-1.438.594v-.087c.041,0,.086-.022.082.088a.539.539,0,0,1-.082,0Zm4.074-87.788v.528c-.213-.039-.409-.133-.577-.159-.02-.177.24-.074.327-.145a2.871,2.871,0,0,1-.581-.109c.276-.031.554-.073.831-.115Zm0,.951v.255c-.1.013-.194.027-.284.042h-1.154V1114.2c.1.015.21.035.317.05-.038.278.327.311.581.327-.01.075-.1.073-.145.109.213.186.267-.248.618-.073-.006.139-.192.118,0,.182a.257.257,0,0,1-.218.145c.057.1.161-.047.286,0Zm0,1.5v.054c-.342-.067-.632.223-.973-.054Zm0,.2v.048l-.032.008a.073.073,0,0,1,.032-.055Zm0,.324v.229a.73.73,0,0,1-.141.011c.035.037.072.073.109.11a4.082,4.082,0,0,1-1.407.225v-.664c.361-.027.762-.032,1.152-.034.01.058-.034.062-.036.108a.324.324,0,0,1,.322.015Zm-1.439-.4v-.118h.454a2.475,2.475,0,0,1-.454.118Zm1.439,2.522v1.443h-1.158v-.008l-.01.008h-.27v-.031a.458.458,0,0,0,.317-.086.85.85,0,0,0-.317-.175v-1.15Zm0,2.641v1.442h-1.439v-1.2q.256-.12.515-.237Zm0,2.641v.239a2.69,2.69,0,0,1-.874-.239Zm0,2.64v1.442h-1.439V1127Zm0,2.641v1.441h-1.439v-1.441Zm0,3.317v.086a.728.728,0,0,0-.286.065c-.115-.118.183-.13.218-.218.105.02-.056.056-.036.109a.284.284,0,0,0,.1-.042Zm0,.176v.507a2.072,2.072,0,0,0-.54.052v-.255c.2-.085.335-.228.54-.3Zm-.5,29.64h-.935v-.964c.194.142.371.287.535.391a2.4,2.4,0,0,1,.073.327c.049-.011.03-.091.036-.145a.579.579,0,0,1,.291.391Zm.5,1.286v.736a.216.216,0,0,0-.177.1c.025.033.107.033.177-.006v.139c-.047.039-.1.08-.1.123a.563.563,0,0,0,.1-.027v.18a.137.137,0,0,1-.1-.043c-.091.027-.135.1-.2.156h-.2c.017-.1.111-.114.217-.119-.039-.1.127-.144.109-.328a1.577,1.577,0,0,0-.37.448h-.892v-1.442H939.2l.008.012a.083.083,0,0,0,.032-.012h.112a.158.158,0,0,1-.034.085.277.277,0,0,1,.1,0Zm0,1.34v.015h-.243a.517.517,0,0,0,.03-.047,2.049,2.049,0,0,0,.213.031Zm0,1.214v1.441h-1.439v-1.441Zm0,2.64v1.443h-1.439v-1.443Zm0,2.641v1.442h-1.439V1171.9Zm0,2.641v1.442h-1.439v-1.442Zm0,2.641v1.441h-1.439v-1.441Zm0,2.64v1.443h-1.439v-1.443Zm0,2.641v1.442h-1.439v-1.442Zm0,2.641v1.442h-1.439V1185.1Zm0,2.641v.4c-.011.029-.021.059-.032.089a5.365,5.365,0,0,1-.545.364,1.353,1.353,0,0,0-.862-.038v-.819Zm2.635-73.859v.615c-.4.042-.874.169-1.032-.028a.732.732,0,0,1-.406.117v-.757a4.651,4.651,0,0,1,1.439.053Zm0,.689v.668h-1.439v-.541a.832.832,0,0,1,.516.282.185.185,0,0,0,.109-.109c-.076-.082-.211-.1-.291-.182a5.82,5.82,0,0,1,1.1-.117Zm-1.439,1.942v-.075h.176a.883.883,0,0,1-.176.075Zm1.439,3.31v.279c-.184.03-.443-.014-.56.083.114.141.429,0,.56.111v.152c-.264.027-.471-.088-.633-.044a.159.159,0,0,0,.145.073.038.038,0,0,1-.016.045h-.935v-1.028c.178-.025.33-.172.552-.146.041.163-.111.131-.182.182.078.053.285-.077.436-.073.02.081-.07.052-.073.11a.453.453,0,0,1,.581.145,2.362,2.362,0,0,1-.327.073c.04.114.023.1-.073.145.1.008.378-.178.524-.108Zm-1.439-.437v-.307h.233a.284.284,0,0,1,.21.2,1.2,1.2,0,0,1-.443.11Zm1.439,2.334v1.053a.376.376,0,0,1-.2.107c-.114-.13-.2-.186-.363-.109,0-.158-.306-.333-.036-.473-.016-.082-.179-.015-.254-.037.089-.086-.054-.068-.036-.182a.164.164,0,0,1-.109.036c.1-.093-.084-.038-.036-.182-.083-.05-.136.094-.145,0-.055.032.01.055-.036.146a.23.23,0,0,1-.225-.083v-.276Zm-1.02,1.442h-.418v-.345c.091.027.207.133.334.1.01.1-.013.157-.109.146,0,.08.154.015.218.036a.335.335,0,0,1-.025.064Zm-.418-.871v-.184a.3.3,0,0,1,.08.118c-.035,0-.028.044-.036.073a.207.207,0,0,0-.043-.007Zm1.2,8.794h-.143a.158.158,0,0,1,.145-.012l0,.012Zm-.242,0h-.164a1,1,0,0,1,.19-.049.241.241,0,0,0-.027.049Zm-.42,0h-.541v-1.441h.921a.238.238,0,0,1-.006.045c-.076.021-.1.09-.218.073.007.03.036.036.036.073a1.07,1.07,0,0,1,.472-.146c-.145.09.224.15.218.328-.022.1-.1.143-.218.146.257.067-.089.17.073.218-.094.065-.123-.01-.218.073.015.082.193,0,.218.073-.136.069-.145.026-.073.182a1.188,1.188,0,0,1-.665.377Zm.9,1.376v.312a.517.517,0,0,1-.124.047c.022.033.044.066,0,.073.06.028.2.121,0,.109.009.04.072.025.073.073l.051-.018v.2a.8.8,0,0,0-.306.333.171.171,0,0,1,.036.109,1.249,1.249,0,0,1,.269-.283v.193a.15.15,0,0,0-.017.122h-.41a.284.284,0,0,0-.024-.214c-.093.067-.183.141-.274.214h-.259l.061-.032c-.037-.061-.154-.04-.218-.073-.047,0-.039.062-.047.1h-.25v-.089c.023-.016.041-.031.043-.052l-.043.019v-1.32h.477c-.062.28.2.045.22.208.07-.015,0-.167.145-.109.017.115-.1.1-.109.182a.812.812,0,0,0,.4-.145c-.025-.091-.1.067-.182.036.027-.158.11-.033.182-.145.081.015.028.193,0,.218a.34.34,0,0,1,.306-.068Zm0,34.155v1.441h-1.439v-1.441Zm0,2.64v1.443h-1.439v-1.443Zm0,2.641v1.442h-1.439V1171.9Zm0,2.641v1.442h-1.439v-1.442Zm0,2.641v1.441h-1.439v-1.441Zm0,2.64v1.443h-1.439v-1.443Zm-.507,4.083h-.932v-1.442h.794a1.323,1.323,0,0,0,.121.932c-.1.079-.053.19-.036.327.086-.032-.083-.2.109-.182-.017.123-.037.243-.056.364Zm-.932,2.159v-.96h.32a8.278,8.278,0,0,1-.32.96Zm4.074-72.264v1.089c-.145.013-.29.019-.434.02-.067,0-.022.123-.073.145-.337-.027-.6.062-.932.032V1113.8Zm-1.241,1.442h-.2v-.085c.11-.019.216-.042.278.007a.226.226,0,0,1-.08.078Zm1.241,1.2v.335a1.311,1.311,0,0,1-.761-.229c.1-.073.334,0,.4-.106Zm-1.439,5.607v-.326h.17a.212.212,0,0,1,.108.177.2.2,0,0,1-.238-.021.038.038,0,0,0-.016-.016l.016.016c.023.039,0,.126.056.13a.676.676,0,0,1-.1.04Zm1.439,45.108v.9h-1.439v-1.119a.084.084,0,0,1,.1.034c.054-.016-.014-.046,0-.109.43-.046.546.386.945.255.127.011.26.022.4.036Zm0,2.1v1.443h-1.439v-1.443Zm0,2.641v1.442h-1.439V1171.9Zm0,2.641v1.442h-1.439v-1.442Zm0,2.641v1.441h-1.439v-1.441Zm0,2.64v.777a4.957,4.957,0,0,0-.906.1c-.037-.109.081-.064.145-.073-.186-.117-.266.073-.218.145-.215.015-.09-.029-.073-.145-.135-.075-.095.052-.254.036-.039.136.136.058.109.182a.7.7,0,0,0-.242.076v-1.1Zm2.635-66.022v.514c-.478.122-.959.259-1.439.371v-.885Zm0,.706v.287c-.31-.031-.6.088-.744-.1.246-.059.495-.123.744-.184Zm0,.338v.4h-1.173a2.485,2.485,0,0,0,1.173-.4Zm0,1.6v.309a4.4,4.4,0,0,0-1.439-.1v-.206Zm0,5.281v1.442H946.9a3.576,3.576,0,0,1,.157-.463c-.223-.027.044-.359-.327-.183.154-.232-.026-.26,0-.509.184-.089.341-.2.532-.286Zm0,2.641v.116a.9.9,0,0,0-.13-.116Zm-.777,43.7h-.661v-.618a1.673,1.673,0,0,1,.477.334.868.868,0,0,0,.185.284Zm.777,1.2v1.443h-1.439v-1.443Zm0,2.641v.663a3.36,3.36,0,0,0-.375.779h-1.064V1171.9Zm-1.011,4.082h-.427v-1.442h.353a10.935,10.935,0,0,1,.075,1.442Zm-.414,2.641h-.014v-1.441h.353a4.947,4.947,0,0,0-.339,1.441Zm4.06-64.66v1.279h-1.438v-.954a3.992,3.992,0,0,1,.821,0c.127-.16.15-.157.182-.292.147-.01.292-.022.436-.036Zm-1.438.078v-.241h1.249a3.993,3.993,0,0,1-1.249.241Zm1.438,2.4v1.442h-1.438v-1.442Zm0,2.641v1.443h-1.318c.133-.15.357-.326.3-.408.006.112-.128.164-.182.109-.049-.172.214-.22.145-.291a1.139,1.139,0,0,1-.385-.011v-.357c.216.052.418.127.6.186-.088-.144-.065-.17.036-.292a3.91,3.91,0,0,0-.639-.177v-.03c.074-.1.25-.1.356-.171Zm-1.438.021v-.021h.3a.775.775,0,0,1-.3.021Zm1.438,2.62v1.442h-1.438v-1.442Zm0,2.641v1.251a1.993,1.993,0,0,0-.1.19h-.072a.148.148,0,0,0-.087,0h-.638a.6.6,0,0,1-.232-.119c-.019-.2.311-.008.218-.145-.067,0-.375-.025-.4-.109.057,0,.126,0,.109-.073a.522.522,0,0,1-.239.02v-1.015Zm-1.438,46.266v-.693c.008.06.016.117.021.169a1.824,1.824,0,0,1-.021.524Zm4.074-56.83v1.442H951.16v-1.4a8.03,8.03,0,0,1,1.165-.026c.2.086-.178.22.073.219.22-.061.037-.159.146-.236Zm0,2.641v1.442H951.16v-1.442Zm0,2.641v1.443H951.16v-1.443Zm0,2.641v.791l-.019,0c-.028.015,0,.044.019.08v.084a.09.09,0,0,1-.019.019c-.191.222-.57-.041-.618.182.159.01.2-.011.327.255l-.043.027H951.16v-1.442Zm2.635-7.923v.077c-.123-.036-.274-.044-.4-.077Zm0,.193v1.248h-1.439V1113.8h.576c.294.058.572.132.862.193Zm0,2.448v1.442h-1.439v-1.442Zm0,2.641v1.443h-1.439v-1.443Zm0,2.641v.179a4.9,4.9,0,0,1-1.439.534v-.285c.07-.052.1-.089.019-.106a.134.134,0,0,1-.019.017v-.339Zm2.635-7.923v1.442H956.43V1113.8Zm0,2.641v1.442H956.43v-1.442Zm0,2.641v1.443H956.43v-1.443Zm2.635-5.282v.15l-.078.012.078,0v1.283h-1.439V1113.8Zm0,2.641v1.442h-1.439v-1.442Zm0,2.641v.442c-.138-.189-.241-.417-.55-.355.2.13-.18.169.037.437-.264.09-.531-.008-.581.182a2.942,2.942,0,0,1,1.1.063v.35c-.291.111-.6.22-.913.323h-.526v-1.443Zm0,2.909v.568c-.285-.111-.646.062-1.059,0a.134.134,0,0,1,.218-.073v-.145c.059-.011.063.034.109.036a.405.405,0,0,1,.218-.255c.184-.054.225.157.327.073-.062-.034-.073-.121-.145-.146a.31.31,0,0,1,.332-.054Zm0,.6v.57h-.132a.187.187,0,0,1,.054-.027c-.054-.007-.262,0-.145-.182-.326-.087-.6.144-.727-.073.231-.036.544-.089.8-.109-.024-.037-.084-.038-.073-.11.093,0,.14-.055.223-.069Zm0,26.1v.88h-.56c.016-.037.032-.074.046-.112-.009-.021-.017-.03-.023-.033l-.022.02c-.018.039-.039.115-.1.086.035-.027.068-.056.1-.086.007-.015.013-.024.022-.02a2.531,2.531,0,0,0,.537-.735Zm0,2.08v1.441h-.956c-.009-.045-.019-.089-.03-.131.043.006.031.067.036.11a.782.782,0,0,0,0-.619c-.064-.069-.106.043-.181-.036.023-.145-.1-.146-.073-.292-.11,0-.09.128-.109.219a1.535,1.535,0,0,1,.086-.691Zm0,2.64v1.443h-1.246a4.051,4.051,0,0,0,.353-1.443Zm0,2.641v1.441h-.635a.3.3,0,0,1,.085-.133c-.153.028-.207.157-.436.108a.9.9,0,0,0-.4-.436,1.926,1.926,0,0,0,0-.656c.069-.016.066-.1.182-.073-.041-.081-.076-.166-.111-.252Zm2.635-42.255v.035c-.451.044-.949.041-1.439.047v-.082Zm0,.077v.362a2.252,2.252,0,0,0-.424.161,1.96,1.96,0,0,0,.424-.086v.929H961.7v-1.317c.215,0,.432,0,.651,0-.012.085-.113.082-.146.146.327.02.626-.186.933-.2Zm0,2.8v.056c-.02,0-.042,0-.061,0,.015.014.037.033.061.058v.4c-.2.056-.406-.2-.46.016-.037.052.3.033.327.146-.054.043-.149.045-.182.109.159,0,.243-.035.315,0v.163a.459.459,0,0,1-.533-.052c-.032.117.094.075.109.146-.293.149-.755-.139-.872.073a1.36,1.36,0,0,1,.735.1H961.7v-1.442h.605a2.9,2.9,0,0,0,.833.234Zm0,5.26v1.229H961.7v-.792c.071-.013.008-.159.07-.182.174.04.153-.113.327-.073.062.023.06.11.109.146.161.006-.017-.1.073-.146a.269.269,0,0,1,.291.146c.153-.152.313-.123.545-.146.03-.1-.051-.094-.036-.182Zm0,24.043v.953H961.7v-.219c.011-.019.022-.038.033-.055a2.723,2.723,0,0,0,1.405-.679Zm0,2.153v1.442H961.7v-1.442Zm0,2.641v1.441H961.7v-1.441Zm0,2.64v1.443H961.7v-1.443Zm0,2.641v1.441H961.7v-1.441Zm0,2.641v1.442H961.7v-1.442Zm0,2.641v.23c-.082-.075-.164-.152-.245-.23Zm2.635-47.369v.447a4.734,4.734,0,0,1-.843.095c.079.091.387-.048.4.109-.377.1-.666.21-1,.3v-.794c.409-.015.925-.118,1.439-.153Zm0,15.678v1.258a4.486,4.486,0,0,1-.491.184h-.49c.011-.014.03-.021.065-.012-.033-.1-.114.051-.218,0,.013-.047.064-.057.073-.109-.118.071-.115-.045-.218-.036.074-.06.1-.162.254-.146.006-.06-.224-.06-.218,0-.165-.1.259-.247.218-.109.122-.065-.006-.168.182-.182-.024-.109-.078.035-.145,0,.211-.1.27-.361.509-.437-.214.016-.3-.1-.545-.109.022-.033.044-.065,0-.073a.683.683,0,0,1,.327-.218l-.022-.009Zm0,6.586v.137h-.912a1.859,1.859,0,0,1,.912-.137Zm0,1.336v1.442h-1.4a5.843,5.843,0,0,0,.321-1.442Zm0,2.641v.7c-.18-.293-.325-.588-.807-.259-.195-.029-.42-.132-.581,0a1.886,1.886,0,0,1,.063-.44Zm0,2.64v1.442h-1.439v-.964c.2-.167.423-.318.636-.479Zm0,2.641v1.441h-1.439v-1.441Zm0,2.641v1.442h-1.439v-1.442Zm0,2.641v1.441h-1.439v-1.441Zm0,2.64v1.443h-1.439v-1.443Zm0,2.641v1.441h-1.439v-1.441Zm0,2.641v1.442h-1.439v-1.442Zm0,2.641v.577a3.181,3.181,0,0,0-1.279.51c-.054-.017-.108-.035-.159-.056v-1.031Zm2.635-34.108v.987a.372.372,0,0,0-.1.056.9.9,0,0,1,.1-.02v.2h-.9a.184.184,0,0,0-.113-.1c-.065,0-.1.043-.125.1h-.141a.256.256,0,0,0-.024-.139.305.305,0,0,0-.139.139h0v-.174a.522.522,0,0,1,.213-.038c0-.157.059-.134.109-.291-.11.058-.18.156-.322.181v-.306c.081-.059.173-.079.213-.2-.066.044-.138.006-.213-.046v-.333a.177.177,0,0,1,.067.2.258.258,0,0,0,.109.072c.034-.073,0-.218.036-.364.1-.091.155-.015.255-.072-.069-.045-.06-.055-.034-.066h.825c-.058.034-.118.067-.173.1.15.058.068.079,0,.182.111-.018.232-.042.354-.06Zm0,2.417v1.441h-.6l0-.012a.3.3,0,0,0-.055.012h-.182c.015-.029-.006-.044-.018-.085-.187-.014-.266.136-.436.036.062-.136-.021-.058-.036-.182.322-.118.8-.2.618-.619a.561.561,0,0,1-.291.073c.026-.083.109-.109.182-.146.018-.115-.112-.082-.073-.218a.637.637,0,0,0,.861-.3Zm0,3.334v.748h-.264c-.072-.032-.1-.1-.159,0h-.005c-.075-.159-.484-.276-.579-.178-.1-.041-.108-.184-.254-.182-.006-.1.224.03.218-.073-.077-.031-.171-.042-.218-.182.187-.293.538-.079.835-.291.133.013.166.125.218.219a.868.868,0,0,1,.209-.061Zm-.439,3.389h-.108l.084-.015.024.015Zm-.886,0h-.114v-.011l.114.011Zm1.325,1.2v1.442h-1.439v-1.442Zm0,2.641v.2a1.162,1.162,0,0,0-.281.421,6.048,6.048,0,0,0-1.157.029v-.652Zm0,2.64v1.442h-1.439v-1.442Zm0,2.641v1.441h-1.439v-1.441Zm0,2.641v1.442h-1.439v-1.442Zm0,2.641v1.441h-1.439v-1.441Zm0,2.64v1.443h-1.439v-1.443Zm0,2.641v1.441h-1.439v-1.441Zm0,2.641v1.442h-1.439v-1.442Zm0,2.641v.455c-.225.116-.441.24-.681.341a2.331,2.331,0,0,0-.758-.245v-.552Zm1.781-30.249h-.585v-1.441h.177a1.761,1.761,0,0,0,.2.41c.027.137-.139.079-.145.182.016.033.032.066.073.073.144-.188.606-.121.727.036a.541.541,0,0,1-.4.619c-.019.021-.018.074-.044.122Zm.854,1.2v1.442h-1.439v-1.2a.273.273,0,0,0,.085-.032c.042-.02-.018-.128.03-.208Zm0,2.64v1.442h-1.439v-1.442Zm-1.439,3.456v-.815h1.3c-.356.2-.793.326-1.146.533a.255.255,0,0,0,.109.073,1.805,1.805,0,0,0-.266.208Zm1.439,2.363v.9h-1.439v-.5a3.7,3.7,0,0,1,1.439-.406Zm0,2.1v1.442h-1.439v-1.442Zm0,2.641v1.441h-1.439v-1.441Zm0,2.641v1.442h-1.439v-1.442Zm0,2.641v1.441h-1.439v-1.441Zm0,2.64v1.443h-1.439v-1.443Zm0,2.641v1.441h-1.439v-1.441Zm0,2.641v1.442h-1.439v-1.442Zm-1.439,2.65v-.01h.011l-.011.01Zm4.074-36.981v1.441h-.906a.218.218,0,0,0-.032-.119c-.026-.09-.109.121-.182,0-.027-.31-.2-.547,0-.765.027-.123-.148-.045-.109-.181.065,0,.077-.045.145-.037-.069-.043-.1-.1.036-.109a.255.255,0,0,0-.109-.073c.042-.077.243-.037.4,0,.021-.038.027-.185.218-.146a.037.037,0,0,0-.005-.011Zm0,2.64v.019a1.128,1.128,0,0,1-.511-.019Zm0,2.726v1.356h-1.439v-.858c.2-.051.243-.256.465-.283-.006-.042-.066-.031-.109-.036.1-.084.237.052.327-.073-.093.2.352-.1.327.145a2.683,2.683,0,0,1,.145-.291c.077.01.179.021.284.04Zm0,2.556v1.442h-1.439v-1.442Zm0,2.64v1.166a3.471,3.471,0,0,1-.495.276h-.944v-1.442Zm0,5.8v.923h-1.439v-.814a1.647,1.647,0,0,0,.574-.259c.1.063.387.208.436,0,.143,0,.249.043.291.146a.832.832,0,0,0,.138,0Zm0,2.122v1.442h-1.439v-1.442Zm0,2.641v1.441h-1.439v-1.441Zm0,2.641v1.442h-1.439v-1.442Zm0,2.641v1.441h-1.439v-1.441Zm0,2.64v1.443h-1.439v-1.443Zm0,2.641v1.441h-1.439v-1.441Zm0,2.641v1.442h-1.439v-1.442Zm0,2.641v.941c-.267.006-.423.044-.538-.036a.625.625,0,0,1-.9.039v-.944Zm2.635-46.4v.3h-.891a.081.081,0,0,0,.043-.078.269.269,0,0,1-.436-.181c.184-.007.365-.207.509-.037.027-.1.542-.064.727-.073-.015.119-.2.065-.254.145.056.053.2-.014.254.109.107-.031-.084-.055-.036-.145a.564.564,0,0,1,.085-.045Zm0,6.871v1.357h-1.3a1.062,1.062,0,0,1,.195-.136c.086.011.068.126.182.109.093-.042.047-.233-.073-.145.042-.165.234-.179.363-.255.038-.119.148-.417.363-.473-.024-.037-.083-.038-.073-.109.214.03.21-.183.109-.219.1-.017.121-.2.23-.128Zm0,2.556v1.441h-1.439v-1.441Zm0,2.64v1.442h-.1a.529.529,0,0,1-.131-.175c-.065.029-.054.107-.059.175h-.7a.9.9,0,0,0,.18-.066.262.262,0,0,0-.109-.073c.167.072.437-.162.618-.073,0-.065-.045-.077-.036-.145.059-.01.063.034.109.036.008-.06-.069-.153.109-.182a3.045,3.045,0,0,1-.706-.939Zm-1.439,1.328V1127.3a.86.86,0,0,0,.155-.12c.062.024.023.084-.036.073.136.274-.179.417-.036.692a.319.319,0,0,1,.291.073.933.933,0,0,0-.109.182c-.136,0-.1.041-.218,0a.58.58,0,0,1-.046.134Zm1.439,1.313v1.441h-1.439v-1.441Zm0,2.641v1.442h-1.439v-1.442Zm0,2.64v.033a.359.359,0,0,1-.339.084c.006.043-.008.064-.036.073.025.121.069.222.182.255-.037.064-.063.2-.145.109a.557.557,0,0,0,.339.6v.287h-1.37a.41.41,0,0,1-.059-.27l-.009-.007v-1.166Zm0,2.641v.241a1.547,1.547,0,0,1-.266-.241Zm0,2.641v.051c-.042-.018-.085-.036-.129-.051Zm-.944,1.441h-.494v-1.171l.046.025c-.126.114.112.193,0,.291a.564.564,0,0,0,.363-.219c.11-.013.075.119.109.182-.153.078-.153.308-.363.328-.022.289.148.385.327.473a.884.884,0,0,1,.013.09Zm.944,1.771v.87h-1.439v-1.442H975l.029.022a.088.088,0,0,0,.065-.022h.256c.036.094.049.208.078.313.339,0,.576.279.884.26Zm0,2.069v1.441h-1.439v-1.441Zm0,2.641v1.442h-1.439v-1.442Zm0,2.641v1.441h-1.439v-1.441Zm0,2.64v1.443h-1.439v-1.443Zm0,2.641v1.441h-1.439v-1.441Zm0,2.641v1.442h-1.439v-1.442Zm0,2.641v1.442h-1.439v-1.442Zm0,2.641v1.442h-1.439v-1.442Zm0,2.641v1.441h-.777c-.217-.266-.454-.519-.661-.778v-.663Zm0,2.64v.589c-.079-.171-.16-.339-.23-.506h.109c0-.027-.01-.054-.016-.083Zm0,5.282v1.442h-.568c0-.053.006-.105.01-.16a3.454,3.454,0,0,0,.437-1.281Zm0,2.641v1.172a5.068,5.068,0,0,1-.462-1.172Zm2.635-62.483v.408c-.233-.028-.454-.062-.649-.089.006-.043.066-.03.109-.036-.192-.075-.522-.011-.69-.109.011-.049.091-.03.145-.036a.493.493,0,0,0-.29-.073.854.854,0,0,1,.545,0c.091-.016-.06-.079-.109-.073.041-.149.156.028.291,0,.014-.087-.166.02-.109-.109.246.046.52.063.758.117Zm-.518.543h-.92v-.394a1.134,1.134,0,0,1,.208.062c.01.095-.141.028-.109.145.048.058.142-.147.327-.073.06.166.256.223.494.259Zm.518,4.8v.485H978a.36.36,0,0,0,.046-.081c-.143-.026-.166.068-.27.081h-.052l-.042-.008c.042-.124.072-.058.036-.219.187-.128.521-.129.617,0a1.087,1.087,0,0,1,.613-.259Zm0,1.684v1.442h-1.439v-1.442Zm0,4.083h-1.435v-1.441h.655a.134.134,0,0,0,.134.084c-.084.025-.053.166-.145.182.075.132.146.278-.036.146-.1.185.078.5.036.619.212-.026.177.115.363.036.129.207.3.223.428.374Zm-1.435,2.4V1127h.526c0,.07-.036.12-.1.1a1.5,1.5,0,0,1-.291,1.128.491.491,0,0,0-.135-.032Zm1.439,1.443v1.441h-1.439v-1.441Zm0,2.641v1.442h-1.439v-1.442Zm0,2.64v1.442h-.708c-.082-.069-.185-.035-.305-.015-.133-.16-.284-.3-.426-.454v-.973Zm0,3.22v.327a.469.469,0,0,1-.359-.154c-.219.113-.219.314-.291.51.078.089.226.108.322.18h-.645a2.792,2.792,0,0,1-.149-.4c-.169.078-.207-.011-.317-.054v-.99h.463a.1.1,0,0,0-.037.06c.309.2.694.327,1.013.518Zm-1.439,2.675v-.612h.1a.356.356,0,0,0,.072.368c.026.114-.2.157-.073.255a.973.973,0,0,1-.1-.011Zm.5,3.47h-.5v-.629a.982.982,0,0,0,.135.01.826.826,0,0,0,.37.62Zm.934,1.2v1.441h-1.439v-1.441Zm0,2.641v1.442h-1.439v-1.442Zm0,2.641v1.441h-1.439v-1.441Zm0,2.64v1.443h-1.439v-1.443Zm0,2.641v1.441h-1.439v-1.441Zm0,2.641v1.442h-1.439v-1.442Zm0,2.641v1.442h-1.439v-1.442Zm0,2.641v1.442h-1.439v-1.442Zm0,2.641v1.441h-1.439v-1.441Zm0,2.64v1.443h-1.439v-1.443Zm0,2.641v1.442h-1.439V1171.9Zm0,2.641v1.442h-1.439v-1.442Zm0,2.641v1.441h-1.439v-1.441Zm0,2.64v1.443h-1.439v-1.443Zm0,2.641v1.442h-.91a3.975,3.975,0,0,1-.357-.91c-.045-.176-.087-.352-.126-.532Zm0,2.641v.421c-.069-.142-.144-.282-.222-.421Zm1.2-69.96v-.477a2.431,2.431,0,0,1,.915.17,1.971,1.971,0,0,1-.915.307Zm1.439,4.343v1.038h-1.439v-.684a.4.4,0,0,1,.189.129c-.135-.235.5-.217.4-.51.12.024.158.074.109-.073a1.649,1.649,0,0,0,.582.073.979.979,0,0,0-.327.4c.189.016.274-.246.487-.375Zm0,2.237v.919c-.121-.356-1-.214-1.287-.3-.079-.006-.016.129-.036.181a.537.537,0,0,0-.116.021v-.816Zm0,1.11v.332h-.525a2.309,2.309,0,0,1,.51-.281c.006-.017.011-.034.015-.05Zm0,1.531v1.4l-.148.037h-.57a.538.538,0,0,0-.06-.156c-.24.06-.451-.232-.654-.145l-.007-.018v-1.123Zm0,3.246v.836h-1.439v-.752c.173-.205.223-.506.661-.515.18.239.455.607.778.43Zm0,2.036v1.441h-1.439v-1.441Zm0,2.641v1.442h-1.439v-1.442Zm0,2.64v1.442h-1.439v-1.442Zm0,2.641v.831a.209.209,0,0,0,0,.166v.445h-1.279c-.052-.052-.106-.1-.16-.152v-.1h.007a.144.144,0,0,0-.007-.023v-1.166Zm-1.36,1.442h-.079v-.071c.023.027.054.045.079.071Zm1.36,1.2v.757c-.059-.125-.072-.293-.233-.317-.111.045.053.14-.036.183-.15-.041-.277-.295-.145-.4a.428.428,0,0,0-.172-.223Zm0,3.169v.914H980.32c-.049-.617.635-.985,1.266-.914Zm0,2.113v1.441h-1.439v-1.441Zm0,2.641v1.442h-1.439v-1.442Zm0,2.641v1.441h-1.439v-1.441Zm0,2.64v1.443h-1.439v-1.443Zm0,2.641v1.441h-1.439v-1.441Zm0,2.641v1.442h-1.439v-1.442Zm0,2.641v1.442h-1.439v-1.442Zm0,2.641v1.442h-1.439v-1.442Zm0,2.641v1.441h-1.439v-1.441Zm0,2.64v1.443h-1.439v-1.443Zm0,2.641v1.442h-1.439V1171.9Zm0,2.641v1.442h-1.439v-1.442Zm0,2.641v1.441h-1.439v-1.441Zm0,2.64v1.443h-1.439v-1.443Zm0,2.641v1.442h-1.439v-1.442Zm0,2.641v1.442h-1.439V1185.1Zm0,2.641v.317a.859.859,0,0,0-.269.176c-.35-.043-.812-.021-.981.291a.423.423,0,0,0-.189-.059v-.725Zm2.635-67.72v.5h-1.439V1119.5c.305.08.661.07.86.326-.263-.02-.317.167-.618.109.077.044.105.137.218.145.125-.108.458,0,.618.073a.516.516,0,0,1,.361-.128Zm0,1.7v1.442h-1.439v-1.442Zm0,2.641v.53a.59.59,0,0,0-.18.246h0a1.185,1.185,0,0,1,.18.115v.55H984.2c-.21-.148-.667-.048-.809-.264.009-.04.072-.025.073-.073-.255.017-.475.037-.678.063v-1.168Zm-.392,1.441h-.089l.011-.01c.027,0,.053.005.078.01Zm.392,1.2v1.442h-1.439V1127Zm0,2.641v1.441h-1.439v-1.441Zm0,2.641v1.442h-1.439v-1.442Zm0,2.64v1.442h-1.439v-1.442Zm0,2.641v1.442h-.3a.119.119,0,0,0,.016-.034c-.079-.07-.18.006-.3.034H983.5c.034-.123-.092-.405.108-.361-.006-.043-.066-.031-.109-.036a.311.311,0,0,0,.036-.219.645.645,0,0,0,.291-.146c-.04-.049-.253.036-.363.037-.037-.048-.036-.134-.073-.182a1.705,1.705,0,0,0-.605-.049v-.484Zm0,2.641v.209l-.034.014c-.03-.155.026-.169-.109-.218l0,0Zm0,.394v.023c0-.008,0-.016,0-.023Zm-.135,3.689h-1.3v-.348c.139.008.277.008.387.019.04.118.105.21.145.327a1.947,1.947,0,0,1,.772,0Zm.135,1.2v1.441h-1.439v-1.441Zm0,2.641v1.442h-1.439v-1.442Zm0,2.641v1.441h-1.439v-1.441Zm0,2.64v1.443h-1.439v-1.443Zm0,2.641v1.441h-1.439v-1.441Zm0,2.641v1.442h-1.439v-1.442Zm0,2.641v1.442h-1.439v-1.442Zm0,2.641v1.442h-1.439v-1.442Zm0,2.641v1.441h-1.439v-1.441Zm0,2.64v1.443h-1.439v-1.443Zm0,2.641v1.442h-1.439V1171.9Zm0,2.641v1.442h-1.439v-1.442Zm0,2.641v1.441h-1.439v-1.441Zm0,2.64v1.443h-1.439v-1.443Zm0,2.641v1.442h-1.439v-1.442Zm0,2.641v1.442h-1.439V1185.1Zm-1.439,2.951v-.311h1.323l-.1.056c-.25.012-.377-.068-.545.036-.021.117.068.113,0,.182-.153-.084-.418-.114-.472.073l-.206-.036Zm3.392-67.531h-.757v-.167a3.082,3.082,0,0,1,.757.167Zm.682,1.2v.437a7.346,7.346,0,0,1-1.439-.295v-.142Zm0,.993v.421a.641.641,0,0,1-.272-.29c.125.029.173-.02.146-.145.038,0,.081.009.126.015Zm-.616.448h-.822v-1.043a.446.446,0,0,1,.368.288c-.068.053-.043.2-.182.182.139.112.36.268.291.474a1.33,1.33,0,0,1,.345.1Zm.616,1.2v1.441h-1.439v-.4l0-.012,0-.006v-1.025Zm0,2.64v1.442h-1.439V1127Zm0,2.641v1.441h-1.439v-1.441Zm0,2.641v1.442h-1.439v-1.442Zm0,2.64v.26a.789.789,0,0,0-.272-.071.348.348,0,0,1,.177-.189Zm0,2.641v1.442h-1.439v-1.126a4.024,4.024,0,0,0,.8.037.9.9,0,0,1,.382-.352Zm0,2.641v.788a1.7,1.7,0,0,0-.744-.274c-.073.1-.005.334-.073.437a.4.4,0,0,0-.4.073c-.078-.026-.149-.059-.222-.091v-.933Zm-.088,4.083h-.2c0-.03-.014-.067.02-.073a.9.9,0,0,1,.183.073Zm-.314,0h-.132a.969.969,0,0,1,.117-.036c.028.005.021.022.015.036Zm.4,1.2v1.441h-1.439v-1.441Zm0,2.641v1.442h-1.439v-1.442Zm0,2.641v1.441h-1.439v-1.441Zm0,2.64v1.443h-1.439v-1.443Zm0,2.641v1.441h-1.439v-1.441Zm0,2.641v1.442h-1.439v-1.442Zm0,2.641v1.442h-1.439v-1.442Zm0,2.641v1.442h-1.439v-1.442Zm0,2.641v1.441h-.66c-.059-.185-.126-.367-.193-.539a2.872,2.872,0,0,1-.03.539h-.556v-1.441Zm-.8,1.441h-.042a.135.135,0,0,1,.057-.066l-.016.066Zm.8,1.2v.982a1.337,1.337,0,0,0-.526-.79,1.486,1.486,0,0,0,.035-.192Zm-.034,1.443h-1.4v-1.443h.679c-.052.541.566.925.726,1.443Zm.034,1.2v1.442h-1.439V1171.9Zm0,2.641v1.442h-1.439v-1.442Zm0,2.641v1.441h-1.439v-1.441Zm0,2.64v1.443h-1.439v-1.443Zm0,2.641v1.442h-1.439v-1.442Zm-1.254,4.083h-.184V1185.1h1.327a12.792,12.792,0,0,1-1.142,1.442Zm3.89-64.5v1.12h-1.439v-.133a1.226,1.226,0,0,0,.348.034c-.038-.21-.222-.273-.348-.393v-.21c.245-.216.639-.283.857-.527.172.058.4.064.582.109Zm-1.439-.072v-.249h.31a1.134,1.134,0,0,1-.31.249Zm1.439,2.392v1.441h-1.439v-1.441Zm0,2.64v1.442h-1.439V1127Zm0,2.641v1.441h-1.439v-1.441Zm0,2.641v1.442h-1.439v-1.442Zm0,2.64v.687a5.325,5.325,0,0,0-.727-.352c.168-.031.021-.125.073-.182.289.128.172.008.472.073a.317.317,0,0,1-.041-.226Zm-1.439.5v-.292c.109.02.205.036.276-.09.081.136.3-.107.436.073-.083.061-.136.1-.073.219a.762.762,0,0,1-.509-.036.615.615,0,0,1-.13.127Zm1.439,2.48v1.1h-1.439v-1.442h.725a.58.58,0,0,0,.168.243h0c.128.024.321.06.546.095Zm0,2.3v1.441h-.442a1.285,1.285,0,0,0-.1-.527c.012-.157.2-.14.218-.291.01-.059-.034-.063-.036-.11-.188-.006-.219.144-.327.219-.228.021-.263-.15-.472-.146a.54.54,0,0,0-.276.235v-.822Zm0,2.64v1.442h-1.151a5.257,5.257,0,0,0,.591-1.442Zm0,2.641v1.441h-.246c-.076-.112-.152-.228-.227-.347-.145-.031-.268.054-.327,0,.144-.226.1-.768.182-.947-.259.291-.154.867-.327,1.165a1.234,1.234,0,0,1-.494-.389v-.924Zm-1.33,1.441h-.109v-.229l.109.229Zm1.33,2.3v.119a.327.327,0,0,0-.11,0,1.275,1.275,0,0,0,0,.221h-1.333v-1.442h.691a5.793,5.793,0,0,0,.748,1.1Zm0,1.537v1.441h-1.439v-1.441Zm0,2.64v1.443h-1.439v-1.443Zm0,2.641v1.441h-1.439v-1.441Zm0,2.641v1.442h-1.439v-1.442Zm0,2.641v1.442h-1.439v-1.442Zm0,2.641v1.442h-.185l0-.01c-.044-.053-.084-.015-.125.01H989.1l-.009-.01v.01h-.169a.7.7,0,0,1-.123-.265c-.065.131-.114-.051-.145-.073q.01.12-.109.109c-.038-.038-.075-.26-.145-.146.028.1-.214.311-.348.132v-1.2Zm0,2.641v1.441h-1.439v-1.148c.307-.034.49.168.675-.192-.1.038-.279.068-.327-.036.009-.111.225-.026.159-.065Zm0,2.64v1.443h-1.439v-1.443Zm0,2.641v1.442h-.382c-.006-.023-.012-.046-.019-.068.331-.007.148-.882-.107-1.374Zm-.6,1.442h-.84V1171.9h.811a6.855,6.855,0,0,1,.03,1.442Zm.6,1.2v1.442h-1.439v-1.442h1.038a.659.659,0,0,0,0,.226c.154.045.1-.121.182-.146.016.129.132.159.182.255h0a1.656,1.656,0,0,1-.13-.335Zm0,2.641v1.008a.988.988,0,0,1-.364.363c-.036,0-.028-.045-.036-.073a.218.218,0,0,0-.041.143h-1v-1.441Zm-.092,4.083h-1.347v-1.443H989.3c.012.083.025.17.042.26.2-.008.066.785-.036,1.055.02.082.057-.044.109.037a.9.9,0,0,1-.018.09Zm2.727-62.182v.072a.341.341,0,0,1-.144-.072Zm0,2.641v1.442h-1.439v-1.425a1.565,1.565,0,0,0,.481-.017Zm0,2.641v1.441h-1.439v-1.441Zm0,2.64v1.442h-1.439V1127Zm0,2.641v1.441h-1.439v-1.441Zm0,2.641v1.442h-1.439v-1.442Zm0,2.64v1.442h-1.439v-1.442Zm0,2.641v1.442h-1.439v-1.017c.454-.02.843-.13.965-.424Zm0,2.641v1.441h-1.439v-1.441Zm0,2.64v1.442h-1.439v-1.442Zm0,2.641v1.441h-1.439v-1.441Zm0,2.641v1.442h-1a1.041,1.041,0,0,0-.442-.372v-1.069Zm0,2.641v1.083a1.062,1.062,0,0,0-.165-.065,1.6,1.6,0,0,1-.487-1.018Zm-.222,4.083h-1.217v-1.443h.679a11.39,11.39,0,0,1,.538,1.443Zm.222,1.2v1.441h-1.439v-1.441Zm0,2.641v1.442h-1.439v-1.442Zm0,2.641v1.442h-1.439v-1.442Zm0,2.641v1.442h-1.439v-1.442Zm0,2.641v1.441h-1.439v-1.441Zm-.168,4.082h-1.271v-1.443h1.018a.828.828,0,0,0,.364.629,1.619,1.619,0,0,0-.111.814Zm.168,1.2v1.442h-1.439V1171.9Zm0,2.641v1.442h-1.439v-1.442Zm2.635-57.926v.754c-.08.023-.156.05-.184.126-.286-.121-.177.161-.4.036-.086.01.04.1.073.109-.043.069-.189.221-.254.146-.085.025.018.045.04.1h-.713v-.831a.24.24,0,0,1,.164.041c-.064-.243.727-.4,1.054-.364.076-.011-.053-.1.036-.146.062.014.123.023.184.031Zm-1.023,3.91h-.1c.033,0,.066-.006.1-.008l0,.008Zm-.416-.962v-.481h.381a1.573,1.573,0,0,0,.983.451,1.566,1.566,0,0,1-1.235,0,.4.4,0,0,1-.128.03Zm1.439,2.16v1.442h-1.439v-1.442Zm0,2.641v1.441h-1.439v-1.441Zm0,2.64v1.442h-1.439V1127Zm0,2.641v1.441h-1.439v-1.441Zm0,2.641v1.442h-1.439v-1.442Zm-.029,4.082h-1.41v-1.442H994.5c-.075.263-.135.543-.355.662a2.456,2.456,0,0,0,.582.546,1.4,1.4,0,0,0,.01.233Zm.029,1.2v1.442h-1.439v-1.442Zm0,2.641v1.441h-1.439v-1.441Zm0,2.64v1.442h-1.439v-1.442Zm0,2.641v1.441h-1.439v-1.441Zm0,2.641v1.442h-1.439v-1.442Zm0,2.641v1.441h-1.439v-1.441Zm0,2.64v1.443h-.969c-.009-.361.028-.8-.305-.952v-.182a.919.919,0,0,1-.164-.12v-.188Zm0,2.641v.8a.675.675,0,0,1-.439,0,1.882,1.882,0,0,1-.252-.8Zm-.819,1.441h-.62v-1.441h.03a3.751,3.751,0,0,1,.934,1.235,1.42,1.42,0,0,0-.344.206Zm.819,1.2v1.442h-1.439v-1.442Zm0,2.641v1.442h-1.439v-1.442Zm0,2.641v.658c-.26.252-.514.51-.753.784h-.686v-1.442Zm0,13.2v1.441h-.2a4.416,4.416,0,0,0-.137-1.441Zm0,2.64v1.443h-.728a1.116,1.116,0,0,1,.072-.308,1.512,1.512,0,0,1-.193-1.134Zm2.635-63.38v.092a3.705,3.705,0,0,1-1.439.368v-.384a2.822,2.822,0,0,1,.4-.043.131.131,0,0,0-.039-.034Zm0,3.672v.411h-.918c-.1-.174-.417-.13-.412-.408a6.05,6.05,0,0,1,1.33,0Zm0,1.609v1.442h-1.439v-1.442Zm0,2.641v1.441h-1.439v-1.441Zm0,2.64v1.442h-1.439V1127Zm0,2.641v1.441h-1.439v-1.441Zm0,2.641v1.442h-1.439v-1.442Zm0,2.64v.03c0-.009-.008-.02-.012-.03Zm0,.239v1.2h-.714c-.088-.208-.3-.287-.362-.525-.208.015-.372-.016-.327-.255.292-.095.458.185.581.036-.077-.093-.238-.1-.254-.255.108-.35.611-.29,1.076-.2Zm-1.274,3.843h-.165v-1.052a1.573,1.573,0,0,1,.181.289c.27-.028.415.07.472.255-.115-.146-.365-.04-.472.036.021.2-.043.342-.016.471Zm1.274,1.781v.86h-1.439v-1.441h.506c.1.042.208.088.329.15.22.111.384.307.6.432Zm0,2.059v1.442h-1.439v-1.442Zm-.342,4.082h-1.1v-1.441h.475a.092.092,0,0,1,0,.039c-.109.122-.272-.032-.327.145.033.122.068.018.182.036.1.491.479.754.509,1.128.079.031.124.095.254.073l.007.019Zm.342,1.2v1.442h-1.439v-1.442Zm0,2.641v1.441h-1.439v-1.441Zm0,2.64v1.443h-1.439v-1.443Zm-1.439,2.917v-.276h.97a8.852,8.852,0,0,0-.97.276Zm1.439,2.365v1.442h-1.439v-1.442Zm0,2.641v.436a7.16,7.16,0,0,1-.745,1.005h-.693v-1.442Zm0,13.2v1.442h-1.439v-.355a2.024,2.024,0,0,1,.254-.2.169.169,0,0,1,.1.083c-.01.034-.018.067-.024.1a.083.083,0,0,0,.024-.1,1.374,1.374,0,0,1,.23-.448c.1.044,0,.19,0,.256a.4.4,0,0,0,.145-.437c.072-.062.107-.16.218-.182a.356.356,0,0,1-.066-.153Zm0,2.641v.667c-.069.26-.146.518-.228.774h-1.211v-1.441Zm-1.185,4.083h-.254v-1.443h.794c-.179.485-.364.964-.54,1.443Zm3.82-62.182v1.443h-.292c-.3-.163-.518-.438-.948-.336-.006-.1-.067-.151-.073-.255.1-.03.094.052.182.036a1.249,1.249,0,0,1-.182-.437.171.171,0,0,0-.125-.012v-.339c.024-.033.049-.066.075-.1Zm-1.3,1.443h-.142v-.008c.048,0,.1,0,.142.008Zm-.142-.058v-.031a.041.041,0,0,1,0,.031Zm1.438,1.257v1.442h-1.438v-1.442Zm0,2.641v1.441h-1.438v-1.441Zm0,2.64v1.442h-1.438V1127Zm0,2.641v1.441h-1.438v-1.441Zm0,2.641v1.442h-1.438v-1.442Zm0,2.64v1.442h-1.438v-1.442Zm0,2.641v1.442h-1.438v-1.442Zm0,2.641v1.441h-1.438v-.943a.826.826,0,0,1,.307-.02c-.038-.158-.091-.316-.138-.477Zm0,2.64v1.442h-1.438v-1.442Zm0,2.641v1.441h-1.251c-.063-.036-.126-.073-.187-.112v-1.329Zm0,3.629v.454h-1.438v-.511h.016c-.01.065.035.074.036.036.06.037.04.155.073.219.187,0,.365,0,.4-.146.173.07.477.008.654.073-.048-.034.026-.176.177-.076a.617.617,0,0,1-.1.039c.043-.006.1.006.109-.037l-.005,0a.937.937,0,0,0,.083-.048Zm0,1.653v1.441h-1.438v-1.441Zm0,2.64v.706a1.09,1.09,0,0,0-.768.477c-.016.117.039.162.042.26h-.713v-1.443Zm-1.217,4.083h-.222v-.084a1.159,1.159,0,0,1,.271-.013.487.487,0,0,0-.049.1Zm-.222,1.609v-.409h.078a2.115,2.115,0,0,1-.078.409Zm4.074-40.022v.13a1.055,1.055,0,0,1-.485-.13Zm0,.24v1.136c-.578-.025-1.079-.091-.969-.779a.891.891,0,0,0-.469-.33v-.267h.595a.576.576,0,0,0,.056.124,3.957,3.957,0,0,0,.787.116Zm-1.081,1.2h-.357v-.475a2.4,2.4,0,0,0,.357.475Zm1.081,1.2v1.442h-1.438v-1.174a6.015,6.015,0,0,0,.905.092c.106-.031-.022-.117,0-.182.142-.06.293-.111.429-.177Zm-1.438.084v-.084h.454a1.24,1.24,0,0,1-.454.084Zm1.438,2.557v1.441h-1.438v-1.441Zm0,2.64v1.442h-1.438V1127Zm0,2.641v1.441h-1.438v-1.441Zm0,2.641v1.442h-1.438v-1.442Zm0,2.64v1.442h-1.438v-1.442Zm0,2.641v1.442h-1.438v-1.442Zm0,2.641v1.441h-1.438v-1.441Zm0,2.64v1.442h-1.438v-1.442Zm0,2.641v1.441h-1.438v-1.441Zm0,2.641v.186c-.32-.058-.641-.133-.9-.168l-.01-.019Zm-.264,1.442h-1.175V1148.5c.144.607.662.838,1.175,1.074Zm.264,1.2v.956a.257.257,0,0,0-.133-.01.207.207,0,0,0,.036-.146.668.668,0,0,0-.241.641h-1.1v-1.441Zm2.635-36.522v.688a1.716,1.716,0,0,1-1.025-.139c.039-.107.324.033.363-.073-.039-.083-.228-.014-.327-.037.04-.117.2-.115.363-.109-.022-.032-.044-.065,0-.073.006-.079-.129-.017-.182-.037a1.207,1.207,0,0,1,.807-.221Zm0,2.953v.092c-.043-.026-.118-.021-.153-.057.049-.01.1-.022.153-.035Zm0,.177v.322a.594.594,0,0,1-.226-.063c0-.093.122-.072.218-.073-.026-.132-.265-.049-.4-.072,0-.066.045-.077.036-.146.151-.006.179.111.327.109.095,0-.061-.086.044-.077Zm0,1.7v1.443h-1.439v-1.443Zm0,2.641v1.442h-1.439v-1.442Zm0,2.641v1.441h-1.439v-1.441Zm0,2.64v1.442h-1.439V1127Zm0,2.641v1.441h-1.439v-1.441Zm0,2.641v1.442h-1.439v-1.442Zm0,2.64v1.442h-1.439v-1.442Zm0,2.641v1.442h-1.439v-1.442Zm0,2.641v1.441h-1.439v-1.441Zm0,2.64v1.442h-1.439v-1.442Zm0,2.641v1.441h-1.439v-1.441Zm0,2.641v.38a1.956,1.956,0,0,0-.989.113v-.109a.6.6,0,0,1-.45,0v-.387Zm2.635-32.981v.091H1006.5v-.517a1.62,1.62,0,0,1,.394.039.2.2,0,0,0-.036.146c.014-.041.145-.139.182-.037.054-.016-.014-.047,0-.109.554-.056.653.2.9.387Zm0,1.523v1.209H1006.5v-.974a3.619,3.619,0,0,1,.794-.034c-.056-.209-.117.029-.255-.072a1.757,1.757,0,0,1,.9-.128Zm0,2.408v1.443H1006.5v-1.443Zm0,2.641v1.442H1006.5v-1.442Zm0,2.641v1.441H1006.5v-1.441Zm0,2.64v1.442H1006.5V1127Zm0,2.641v1.441H1006.5v-1.441Zm0,2.641v1.442H1006.5v-1.442Zm0,2.64v1.442H1006.5v-1.442Zm0,2.641v1.442H1006.5v-1.442Zm0,2.641v1.441H1006.5v-1.441Zm0,2.64v1.442H1006.5v-1.442Zm0,2.641v1.441H1006.5v-1.441Zm0,2.641v1.377a1.4,1.4,0,0,1-.463-.7c-.1,0-.177-.1-.327-.036.038-.256-.049-.387-.218-.436a1.3,1.3,0,0,1-.43.059v-.261Zm2.635-31.69v1.442h-1.439v-1.246c.09-.01.188-.012.266-.017-.051-.071-.188-.055-.254-.11.2-.054.57.035.872,0a.526.526,0,0,1-.116-.07Zm0,2.641v1.443h-1.439v-1.443Zm0,2.641v1.442h-1.439v-1.442Zm0,2.641v1.441h-1.439v-1.441Zm0,2.64v1.442h-1.439V1127Zm0,2.641v1.441h-1.439v-1.441Zm0,2.641v1.442h-1.439v-1.442Zm0,2.64v1.442h-1.439v-1.442Zm0,2.641v1.442h-1.439v-1.442Zm0,2.641v1.441h-1.439v-1.441Zm0,2.64v1.442h-1.439v-1.442Zm0,2.641v1.441h-1.439v-1.441Zm0,2.641v1.442h-1.439v-1.442Zm0,2.693v.128c-.29.735-.974.531-1.439.1v-.283h1.333a.358.358,0,0,1,.105.052Zm2.635-34.383v1.442h-1.438v-1.442h.26a.118.118,0,0,0-.014.034c.162.052.254-.02.472,0a.332.332,0,0,1,.052-.034Zm0,2.641v1.443h-1.438v-1.443Zm0,2.641v1.442h-1.438v-1.442Zm0,2.641v1.441h-1.438v-1.441Zm0,2.64v1.442h-1.438V1127Zm0,2.641v1.441h-1.438v-1.441Zm0,2.641v1.442h-1.438v-1.442Zm0,2.64v1.442h-1.438v-1.442Zm0,2.641v1.442h-1.438v-1.442Zm0,2.641v1.441h-1.438v-1.441Zm0,2.64v1.442h-1.438v-1.442Zm0,2.641v1.441h-1.438v-1.441Zm0,2.641v1.442h-1.438v-1.442Zm0,2.641v1.441h-1.438v-1.441Zm0,2.64v1.443h-1.438v-1.443Zm0,2.641v1.441h-.26c-.2-.494-.419-.99-.619-1.441Zm2.353-38.171h-.734c.078-.205.484-.031.641-.1,0,.036.035.07.093.1Zm-1.156-.015v-1.335a1.043,1.043,0,0,1,.373.2c.085,0-.013-.1-.073-.073.217-.122.357.222.581.109.108.149.068.221.254.291-.092.393-.569.4-.908.546-.011.1.141.029.109.146a1.821,1.821,0,0,0-.336.12Zm1.439,1.213v1.443h-1.439v-1.443Zm0,2.641v1.442h-1.439v-1.442Zm0,2.641v1.441h-1.439v-1.441Zm0,2.64v1.442h-1.439V1127Zm0,2.641v1.441h-1.439v-1.441Zm0,2.641v1.442h-1.439v-1.442Zm0,2.64v1.442h-1.439v-1.442Zm0,2.641v1.442h-1.439v-1.442Zm0,2.641v1.441h-1.439v-1.441Zm0,2.64v1.442h-1.439v-1.442Zm0,2.641v1.441h-1.439v-1.441Zm0,2.641v1.442h-1.439v-1.442Zm0,2.641v1.441h-1.439v-1.441Zm0,2.64v1.319l-.012-.028a.407.407,0,0,0-.235.151h-1.192v-1.443Zm-.246,4.083h-1.193v-1.441h1.252c.015.461-.036.948-.06,1.441Zm.246,1.307v1.334h-.234a1.943,1.943,0,0,0-.069-.262c.132-.29.386-1.007.073-1.02a.257.257,0,0,1,.23-.052Zm-1.439,1.085v-1.193h.8a1.172,1.172,0,0,1-.132.269c.054.188.237.085.327.182-.7-.283-.623.586-.99.741Zm4.074-40.806v1.443h-1.439v-1.443Zm0,2.641v1.442h-1.439v-1.442Zm0,2.641v1.441h-1.439v-1.441Zm0,2.64v1.442h-1.439V1127Zm0,2.641v1.441h-1.439v-1.441Zm0,2.641v1.442h-1.439v-1.442Zm0,2.64v1.442h-1.439v-1.442Zm0,2.641v1.442h-1.439v-1.442Zm0,2.641v1.441h-1.439v-1.441Zm0,2.64v1.442h-1.439v-1.442Zm0,2.641v1.441h-1.439v-1.441Zm0,2.641v1.442h-1.439v-1.442Zm0,2.641v1.4c-.026.015-.051.03-.075.046h-1.364v-1.441Zm-1.439,2.937v-.3h.281a2.985,2.985,0,0,1-.281.3Zm4.074-34.629v1.443h-1.439v-1.443Zm0,2.641v1.442h-1.439v-1.442Zm0,2.641v1.441h-1.439v-1.441Zm0,2.64v1.442h-1.439V1127Zm0,2.641v1.441h-1.439v-1.441Zm0,2.641v1.442h-1.439v-1.442Zm0,2.64v1.442h-1.439v-1.442Zm0,2.641v1.442h-1.439v-1.442Zm0,2.641v1.441h-1.439v-1.441Zm0,2.64v1.442h-1.439v-1.442Zm0,2.641v1.441h-1.439v-1.441Zm0,2.641v1.442h-1.439v-1.442Zm-1.439,2.756v-.115h.553a.182.182,0,0,1,.035.145c-.059,0-.158-.061-.073,0a1.732,1.732,0,0,1-.516-.03Zm.6-.115h.39c-.115.087-.3-.027-.295.108-.054-.015-.071-.065-.095-.108Zm.555,0h.084a.125.125,0,0,1-.084,0Zm2.917-31.691v1.443h-1.439v-1.443Zm0,2.641v1.442h-1.439v-1.442Zm0,2.641v1.441h-1.439v-1.441Zm0,2.64v1.442h-1.439V1127Zm0,2.641v.2c-.041.007-.072.01-.071-.011-.01-.093.007-.158.055-.192Zm0,.449v.992h-.991a1.208,1.208,0,0,0,.3-.122,1.3,1.3,0,0,0-.036-.364c.069-.072.172-.018.254,0,.008-.223.242-.219.4-.291h0a1.461,1.461,0,0,1,.071-.215Zm-1.439.889v-1.338h.96a4.908,4.908,0,0,1-.21.665,1.783,1.783,0,0,1-.75.673Zm1.439,1.3v1.442h-1.439v-1.442Zm0,2.64v1.442h-1.439v-1.442Zm0,2.641v1.442h-1.439v-1.442Zm0,2.641v1.441h-1.439v-1.441Zm0,2.64v1.442h-1.439v-1.442Zm0,2.641v1.441h-1.439v-1.441Zm0,2.641v1.442h-1.439v-1.442Zm0,2.641v1.441h-.644a.666.666,0,0,0-.335-.277c-.089,0-.008.121.036.109,0,.113-.142-.112-.145,0-.09-.051-.064-.125-.036-.219-.037.024-.038.084-.109.073a.855.855,0,0,1-.205-.189v-.939Zm0,2.64v1.212l-.034.043a3.267,3.267,0,0,0-.076-1.255Zm2.635-36.643v.538a1.679,1.679,0,0,0-.235,0c-.094.009.05.062,0,.145a4.368,4.368,0,0,1-1.2-.254v-.537c.341.045.75.239,1.094.281-.1-.06-.2-.113-.291-.181,0-.044.144-.052.1-.064l-.062-.008a.6.6,0,0,1,.062.008c.17.026.351.047.537.068Zm0,2.4v1.352h-1.439v-1.1c.155.042.315.078.477.112.18-.211,0-.277-.077-.451h.509a1.68,1.68,0,0,0,.53.091Zm0,2.55v1.442h-1.439v-1.442Zm0,2.641v1.441h-1.439v-1.441Zm0,2.64v1.442h-1.439V1127Zm0,2.641v1.441h-1.439v-1.441Zm0,2.641v1.442h-1.439v-1.442Zm0,2.64v1.442h-1.439v-1.442Zm0,2.641v1.442h-1.439v-1.442Zm0,2.641v1.441h-1.439v-1.441Zm0,2.64v1.442h-1.439v-1.442Zm0,2.641v1.441h-1.439v-1.441Zm0,2.641v1.442h-1.439v-1.442Zm0,2.641v1.441h-1.439v-1.441Zm0,2.64v1.443h-.691a3.094,3.094,0,0,0-.562-1.1.485.485,0,0,1-.186.553v-.9Zm0,2.641v.538c-.058-.152-.139-.3-.2-.431-.042.005-.031.066-.036.109-.03-.071-.058-.142-.085-.215Zm0,6.037v.686h-.809a2.933,2.933,0,0,1-.63-.588v-.551c.462.091,1.131.121,1.439.452Zm1.2-44.773v-.4c.106.019.21.038.312.061.026.1-.171-.026-.145.073-.026.1.171-.026.145.073a.675.675,0,0,1-.312.188Zm1.439,1.764v1.443h-1.439v-1.342c.169.049.263.132.385.1-.042-.067-.193-.026-.145-.182a.42.42,0,0,1,.051-.015h.217a2.477,2.477,0,0,0,.458.051l-.078-.051Zm-1.439.081v-.069c.068,0,.143.005.2,0,0,.161-.083.066-.2.066Zm1.439,2.56v1.442h-1.439v-1.442Zm0,2.641v1.441h-1.439v-1.441Zm0,2.64v1.442h-1.439V1127Zm0,2.641v1.441h-1.439v-1.441Zm0,2.641v1.442h-1.439v-1.442Zm0,2.64v1.442h-1.439v-1.442Zm0,2.641v1.442h-1.439v-1.442Zm0,2.641v1.441h-1.439v-1.441Zm0,2.64v1.442h-1.439v-1.442Zm0,2.641v1.441h-1.439v-1.441Zm0,2.641v1.442h-1.439v-1.442Zm0,2.641v1.441h-1.439v-1.441Zm0,2.64v1.443h-1.439v-1.443Zm0,2.641v1.441h-.029c-.085-.187-.194-.322-.335-.316-.124.025.16.121.036.146-.127-.152-.226-.333-.363-.473-.2.076-.407-.011-.582.036v-.51a.2.2,0,0,0-.167-.076v-.249Zm-1.294,4.083h-.145v-.382a2.134,2.134,0,0,1,.145.382Zm1.294,1.2v1.438H1028c-.012-.02-.025-.042-.036-.063.072-.248-.2-.616-.182-.947-.011-.121-.112.142-.145,0a.533.533,0,0,0,.074-.432h1.3l0,0Zm0,3.254v.825h-1.439v-1.442h.812c.028.063.05.133.081.194a1.225,1.225,0,0,1,.546.423Zm0,2.024v1.36a1.873,1.873,0,0,1-.146-.239,2.1,2.1,0,0,1-.79-1.121Zm2.635-47.536v1.443h-1.439v-1.443Zm0,2.641v1.442h-1.439v-1.442Zm0,2.641v1.441h-1.439v-1.441Zm0,2.64v1.442h-1.439V1127Zm0,2.641v1.441h-1.439v-1.441Zm0,2.641v1.442h-1.439v-1.442Zm0,2.64v1.442h-1.439v-1.442Zm0,2.641v1.442h-1.439v-1.442Zm0,2.641v1.441h-1.439v-1.441Zm0,2.64v1.442h-1.439v-1.442Zm0,2.641v1.441h-1.439v-1.441Zm0,2.641v1.442h-1.439v-1.442Zm0,2.641v.155a1.681,1.681,0,0,0-1.073.426c.008.053.108.013.109.073-.1.034-.3,0-.218.364a.543.543,0,0,0-.256.208v-1.227Zm0,3.627v.456h-1.439v-1.443h.408a13.6,13.6,0,0,0,.938,1.036c.039-.05.068-.06.093-.05Zm0,1.655v1.441h-1.439v-1.441Zm-1.439,3.1v-.273a.255.255,0,0,1,.1-.191h.964c-.047.067-.031.128-.042.233-.082.083-.16-.025-.218-.073-.086.031.1.09.036.219-.471-.024-.37.527-.836.509a1.244,1.244,0,0,0,0-.423Zm.809,8.9h-.809v-1.441h.155a.222.222,0,0,0,.1.029.235.235,0,0,1-.036.181c.142.041.338.026.472.073a.506.506,0,0,0,.254.4,2.076,2.076,0,0,0-.138.757Zm.63,1.2v1.036q-.226-.054-.456-.116c-.017-.114.1-.1.109-.182-.187-.215-.572-.008-.763-.218.069.017.156-.113.145.036a1.738,1.738,0,0,0,.33-.556h.131c.146.067.4.123.472,0Zm-1.371,0h.01l0,.009-.007-.009Zm4.007-49.885v1.152h-1.439v-1.432a.463.463,0,0,1,.273.15c.27.037.663.1,1.166.131Zm0,2.35v1.442h-1.439v-1.442Zm0,2.641v1.441h-1.439v-1.441Zm0,2.64v1.442h-1.439V1127Zm0,2.641v1.441h-1.439v-1.441Zm0,2.641v1.442h-1.439v-1.442Zm0,2.64v1.442h-1.439v-1.442Zm0,2.641v1.085a2.828,2.828,0,0,1-.257.213.416.416,0,0,1,.033.144h-1.214v-1.442Zm0,2.641v1.441h-1.439v-1.441Zm0,2.64v1.442h-1.439v-1.442Zm0,2.641v1.441h-1.439v-1.441Zm0,2.641v1.442h-1.439v-1.442Zm-1.246,4.083h-.192v-.3c.106.008.193.062.237.238a.678.678,0,0,0-.044.059Zm-.192-1.091v-.35h.6c-.208.107-.4.234-.6.35Zm1.439,12.853v1.442h-1.316a1.675,1.675,0,0,1,.114-1.43.132.132,0,0,0,.071-.012h.151c.039.261.348.157.5.158-.126.152.248.047.254.181a1.018,1.018,0,0,0,.084-.339Zm0,2.641v.673c-.177.069-.394.112-.475-.062-.136-.039-.1.09-.218.073-.052-.263.011-.523-.1-.684Zm0,3.146v.936h-.492c-.314-.053-.629-.105-.946-.162v-.7a3.579,3.579,0,0,1,.745.087c.177-.042.074-.363.291-.365.114,0,.125.094.145.182.084,0,.171.011.257.023Zm0,10.746v.754h-.255a3.141,3.141,0,0,1,.255-.754Zm0,1.953v1.442h-.425c-.077-.509-.181-1-.29-1.437v0h0v0a1.853,1.853,0,0,1,.2.563.2.2,0,0,0,.145-.145.912.912,0,0,1-.173-.422h.16a.358.358,0,0,1-.023.24c.016.091.1-.035.073-.109.075.058.012.255.073.328.152-.03.084-.28.182-.365-.017-.031-.032-.063-.047-.094Zm0,2.641v1.442h-.4a6.407,6.407,0,0,0,.09-1.442Zm0,2.641v.968c-.465.012-.809-.319-1.2-.512a.82.82,0,0,1,.1-.456Zm2.635-68.316v1.1h-1.438v-1.13l.181-.008a6.565,6.565,0,0,1,1.258.042Zm0,2.294v1.442h-1.438v-1.442Zm0,2.641v1.441h-1.438v-1.441Zm0,2.64v.594c-.1.283-.163.58-.284.848h-1.155V1127Zm0,2.641v1.441h-1.438v-1.441Zm0,2.641v1.442h-1.438v-1.442Zm0,2.64v1.442h-1.438v-1.442Zm0,2.641v1.322c-.333-.3-.72-.1-1.02.12h-.418v-1.442Zm-1.438,3.88v-.185a.132.132,0,0,0,.108.042c-.034.044-.071.092-.108.143Zm0-.253v-.986h.148c.174.089.338.19.505.041.114.044.18.135.363.109a3.114,3.114,0,0,0,.036.4c-.37-.24-.38.131-.836.146.214.1-.033.193,0,.364-.165.06-.115-.175-.217-.073Zm1.438,2.434v.384a.435.435,0,0,0-.458.024.74.74,0,0,1,.458.047v.208h-1.438v-1.442h.8c.215.253.417.527.635.78Zm0,1.861v1.441h-1.438v-1.441Zm0,2.641v.583a.381.381,0,0,0-.022.2c-.138-.072-.138.087-.291,0-.037.024-.037.084-.109.073-.015.1.135.034.145.109-.014.12-.106.161-.145.255-.035,0-.028-.045-.036-.072-.08,0-.015.154-.036.218-.1-.15-.157.005-.244.076h-.152l0,0v0h-.544v-1.442Zm0,13.212v1.434h-1.379a1.13,1.13,0,0,0,.194-.537c.247.043.423-.207.617-.328.109.024-.035.078,0,.146.147-.069.238-.021.327-.182a.661.661,0,0,0-.145-.109c-.02-.129.129-.089.109-.218.03.031.1.021.109.073.057-.1.113-.189.167-.278Zm0,2.633v1.442h-1.438v-1.442Zm0,2.641v1.108c-.232.11-.461.223-.693.333h-.088c.022-.263-.018-.465-.222-.5-.167-.033-.175.092-.327.073-.068-.069.022-.066,0-.182a1.05,1.05,0,0,1-.108.009v-.838Zm-.472,4.082h-.143a.567.567,0,0,0,.084-.049.242.242,0,0,0,.059.049Zm-.433,0h-.534v-.282c.182-.03.362-.058.472.087,0,.066-.044.078-.036.146a.805.805,0,0,0,.1.049Zm-.534-.61v-.217c.112,0,.216.011.29.012a.516.516,0,0,1-.29.2Zm1.438,9.731v1.443h-1.438v-1.443Zm0,2.641v1.442h-1.438v-1.442Zm0,2.641v1.442h-1.438V1185.1Zm0,2.641v.112a2.781,2.781,0,0,0-1.438.313v-.425Zm2.635-67.595v.375h-1.439v-.472l.016.027c.449,0,.935.041,1.422.07Zm0,1.573v1.442h-1.439v-1.442Zm0,2.641v1.441h-1.439v-1.441Zm0,5.337v1.386h-1.439v-1.258a.59.59,0,0,0,.2-.1.474.474,0,0,0-.023-.082h1.163c.034.017.068.036.1.055Zm0,2.586v1.442h-1.439v-1.442Zm0,2.64v1.442h-1.439v-1.442Zm-.989,4.083h-.449v-1.442h.9a3.014,3.014,0,0,1,.284.533c-.273.067-.292.388-.472.547-.234-.053-.245.118-.363.182.07.026.07.12.106.18Zm.989,1.2v1.441h-.414c.008-.253-.147-.444-.318-.782a.175.175,0,0,1-.254-.073c0-.194.158.013.073-.182.157.127.015-.047.254.036a3.322,3.322,0,0,0-.378-.44Zm-.883,9.364h-.556v-.8a.475.475,0,0,1,.6-.189,3.654,3.654,0,0,1-.042.985Zm.883,3.84v1.307a.064.064,0,0,0-.005.02l.005,0v.112h-.978a.927.927,0,0,1-.081-.479c.125.045.131.208.291.219a9.023,9.023,0,0,0-.091-1.182Zm0,2.641v.179a.309.309,0,0,1-.115,0c.018-.16-.12-.041-.142-.179Zm-.386,0h.071a.11.11,0,0,0-.017.07.177.177,0,0,1-.054-.07Zm-1.052,6.411v-1.019c.281-.122.4.272.743.248-.05.434-.488.221-.654.328.028.105.09.177.254.146-.076.141.054.06.036.219a2.474,2.474,0,0,1-.38.078Zm0-1.028v-.1h.026a.084.084,0,0,1-.026.1Zm1.439,3.2v.389a.687.687,0,0,0-.161.388h-.178a.108.108,0,0,0-.065-.083c0-.179.083.083.146-.036.027-.112-.1-.07-.073-.182.122-.132.175-.335.291-.474a.079.079,0,0,1,.042,0Zm-1.439.12v-.776a2.1,2.1,0,0,0,.67.587c.049.274-.444.2-.545.11a.328.328,0,0,0-.125.08Zm1.439,1.857v.6a.441.441,0,0,1-.078.049.936.936,0,0,1,.078.233v.523l-.005.037h-.49a1.01,1.01,0,0,0-.092-.466c-.1.02-.189.053-.291.073-.143-.208.053-.4-.073-.546a.624.624,0,0,0,.292-.5Zm0,10.94v1.065h-1.439v-.006c.655-.06,1.035-.629,1.439-1.059Zm0,2.263v1.443h-1.439v-1.443Zm0,2.641v1.442h-1.439v-1.442Zm0,2.641v1.442h-1.439V1185.1Zm2.635-64.777v.2h-1.439v-.346a4.288,4.288,0,0,0,.8-.1c.194.059.413.155.642.248Zm0,1.4v1.442h-1.439v-1.442Zm0,2.641v1.441h-1.439v-1.441Zm-.265,6.723h-.66q-.251-.306-.514-.6v-.727c.194.182.349.355.469.477-.017-.209.477.648.691.838l.014.012Zm-1.158,0h-.016v-.09c0,.03.01.06.016.09Zm1.423,1.2v0l0,0Zm-.487,1.442h-.952v-1.442h.66a2.615,2.615,0,0,1,.391.863c-.039.183-.071.378-.1.578Zm-.587,2.641h-.365v-1.442h.8a3.686,3.686,0,0,1-.432,1.442Zm-.356,5.281h-.008v-.124a1,1,0,0,1,.008.124Zm1.43,1.219v1.39c-.02-.191-.216-.377-.025-.659-.12-.086-.145-.294-.327-.4-.14.041.14.142,0,.182.029.037.127-.014.182.073-.136.16.057.255-.073.4-.072-.025-.1-.1-.109-.182.042-.123.072-.057.036-.218-.114-.017-.1.092-.145.146-.111-.157-.213-.322-.327-.474-.035-.132.177-.016.109-.182.2.125.063-.15.255-.036a.451.451,0,0,1-.007-.058h.4a.2.2,0,0,0,.029.02Zm-1.439,13.631v-.447h.285a.22.22,0,0,1,.111.107c-.1,0-.207-.015-.254.036.079.142.268.191.182.4.055-.172.155.065.218-.036a.574.574,0,0,1,0,.4c-.2-.079-.206-.351-.509-.327a.724.724,0,0,0-.034-.134Zm1.439,2.772v.864h-.836l-.1-.044c-.008.016-.016.031-.023.044h-.413v-.008l-.028.008h-.042v-.262a.605.605,0,0,1,.07,0c.1-.054.041-.1.073-.255.215.07.158-.133.291-.146.067.069.294.123.254.4a.2.2,0,0,1,.145-.037c.067-.067.047-.22.109-.292.09-.006.112.057.181.073.083-.039.014-.229.037-.327.114-.018.148.045.182.108.029-.089.047-.123.1-.128Zm0,2.063v.016a.323.323,0,0,1-.253-.016Zm0,2.935v.427a.886.886,0,0,0-.17.31,4.787,4.787,0,0,1-1.269.007v-.4c.531.087,1.059.22,1.269-.266.126,0,.152-.034.17-.082Zm-1.187,3.788h-.252v-.273c.094.1.12.232.252.207v.066Zm-.252-.6v-.082c.012.025.024.048.034.072a.278.278,0,0,0-.034.011Zm.419,4.441h.622a4.033,4.033,0,0,1-.716.318c-.022-.144.081-.162.182-.182a.13.13,0,0,1-.087-.136Zm1.02,3.106v.977h-.919c-.152-.159-.009-.305.022-.524.125.112.122-.061.254.072-.107-.19.142-.149,0-.291a.926.926,0,0,1,.291.146c-.159-.192-.018-.264-.109-.437.056-.009.359.127.291-.181.153.033.067.118.145.254a.186.186,0,0,0,.025-.015Zm0,2.176v1.441h-1.439v-1.441Zm0,2.64v1.443h-1.439v-1.443Zm0,2.641v1.442h-1.439v-1.442Zm0,2.641v1.274c-.31.057-.621.111-.926.167h-.512V1185.1Zm2.635-64.981v.4H1043.5l.021-.008c-.041-.019-.082-.037-.123-.054V1120a1.184,1.184,0,0,0,.414,0c0,.036-.045.029-.073.037q.56.032,1.1.08Zm0,1.6v1.442h-1.439v-1.442Zm0,2.641v1.063a.744.744,0,0,0-.08.042,1.781,1.781,0,0,1-.145-.292c-.136-.039-.1.091-.218.073-.194-.146-.241-.438-.436-.582-.117-.033-.051.118-.109.146a1.173,1.173,0,0,0-.45-.091v-.358Zm-1.218,9.364h-.221v-.2a2.373,2.373,0,0,0,.221.2Zm-.221-1.141v-.2c.245.21.476.4.668.547-.161-.042-.407-.263-.668-.344Zm1.439,2.95v.832h-.273a3.978,3.978,0,0,0-.68-1.326c.034.022.134.085.109-.037.287.173.56.361.844.531Zm-.257,2.031h.229a.22.22,0,0,1-.052.169c-.06-.055-.119-.112-.177-.169Zm.257,3.1v.981h-1.439v-.056a1.265,1.265,0,0,0,.523-.143c.037.048.036.135.073.182.119-.033.3.02.363-.146-.259-.318.228-.732-.109-1.092.116-.018.152-.115.291-.109.059.056-.027.272-.117.238a.186.186,0,0,0-.029-.02.087.087,0,0,0,.029.02c.1.086.109.27.3.272a.4.4,0,0,1,.117-.127Zm0,2.18v.163a.713.713,0,0,1-.335-.163Zm0,31.691v1.442h-1.439v-1.042a1.036,1.036,0,0,0,.159.154c-.046.112-.133.182-.145.328.11.013.075-.119.109-.182.062-.013.069.028.073.073.078.006.016-.13.036-.183.2.03.459,0,.436.256.08,0,.016-.155.036-.219.072.036.155.063.182.146.075-.01.008-.161.109-.146-.039-.106-.076-.216-.181-.255.045-.17.18-.248.273-.371Zm0,2.641v1.441h-1.439v-1.441Zm0,2.64v1.443h-1.439v-1.443Zm0,2.641v1.442h-1.439v-1.442Zm0,2.641v1.442h-1.439V1185.1Zm0,2.641v.437c-.088.063-.175.13-.262.2.042.144-.013.175.073.291-.073-.111-.169.026-.182-.146-.072,0-.046.1-.145.073.038-.2-.122-.193-.145-.328.053-.052.115-.027.109.073a1.156,1.156,0,0,0,.067-.6Zm2.635-67.256v.036h-1.439v-.271q.739.1,1.439.234Zm0,1.235v1.442h-1.439v-1.442Zm0,2.641v1.441h-.215a.347.347,0,0,0-.1-.046c-.045.011-.049.028-.039.046h-.127a.243.243,0,0,0-.162-.01l.013.01h-.807v-.441a1.535,1.535,0,0,0,.176-.078c-.042-.046-.243-.117-.109-.219-.022-.022-.044-.042-.067-.063v-.64Zm0,2.71v1.372h-1.439V1127h1.357a.627.627,0,0,0,.082.069Zm0,2.572v.435c-.184-.144-.37-.289-.551-.435Zm-.835,6.723h-.6v-.327l.1.021c.095-.051.1-.188.145-.291a1.1,1.1,0,0,0,.355.6Zm-.247,2.641h-.356v-.489a2.97,2.97,0,0,1,.356.489Zm.483,2.641h-.26a.171.171,0,0,1,.032-.017c-.009-.064-.062-.083-.145-.073a.1.1,0,0,0-.045.09h-.422v-1.441h.487c.131.471.12,1.022.525,1.279a.22.22,0,0,0-.172.162Zm.6,24.968v.149c-.236.05-.729.022-.9.061a.867.867,0,0,0-.094-.21Zm0,.158v.039c-.017-.015-.027-.024,0-.039Zm0,.119v.913a.254.254,0,0,1-.136-.215c-.1.1-.1.314-.218.4a.083.083,0,0,0,.052.066h-.056c-.054-.04-.115-.071-.172,0h-.019c-.1-.059-.1-.221-.131-.357h.109c.039-.093-.156-.127-.036-.182-.166.039-.154-.333-.473-.254,0-.052.006-.1-.036-.11a.4.4,0,0,1,.472,0c.1-.056.121-.195.218-.255.148,0,.172.119.363.073.063-.014-.033-.086.063-.079Zm0,6.4v.041h-1.227a.3.3,0,0,0,.037-.4.573.573,0,0,0-.249.035v-.244c.133,0,.3.071.321-.12.122.078-.059.269.036.328.091.006.114-.055.146-.109.112.213.307.4.581.255-.041.122.174.219.354.209Zm0,1.24v1.442h-1.439v-1.442Zm0,2.641v1.441h-1.439v-1.441Zm0,2.64v1.443h-1.439v-1.443Zm0,2.641v1.442h-1.439v-1.442Zm0,2.641v1.442h-1.439V1185.1Zm0,2.641v1.442h-1.349a.4.4,0,0,0-.09-.126v-1.316Zm0,2.641v.667c-.307-.019-.644-.112-.935-.157-.125-.081-.123-.289-.4-.219a.422.422,0,0,1-.1-.224v-.067Zm0,2.641v1.283a.308.308,0,0,1-.1.045.48.48,0,0,0-.363-.073,3.686,3.686,0,0,1,.129-1.254Zm2.635-71.3v.393a.143.143,0,0,1-.119-.071c-.151.009.068.182-.146.146a.523.523,0,0,0,.265.241v.614a1.257,1.257,0,0,1-.337-.054,2.511,2.511,0,0,0,.333.172h-1.435v-1.442Zm0,2.641v.7l-.01,0a.049.049,0,0,0,.01.041v.155c-.146.1-.073.2-.3.277.05.119.194.145.254.255-.442-.026-.868-.334-1.392-.319v-1.113Zm-1.348,4.082h-.09v-.666c.242.1.5.2.52.491-.2.04-.229-.087-.363-.109-.015-.087.066-.079.036-.182s-.067.1-.182.037c.146.093.078.163,0,.29a.6.6,0,0,0,.079.139Zm.488,2.641h-.565l-.013-.012v-1.429h.312a1.924,1.924,0,0,0,.5.446c-.026.07-.171-.044-.218-.073-.189-.019-.226.265-.363.182a1.116,1.116,0,0,1,.349.886Zm.86,35.531v1.441h-1.439v-.781a4.1,4.1,0,0,0,.3-.522c.2.086.288-.046.472-.073a.116.116,0,0,0,0-.065Zm0,2.64v.367a2.983,2.983,0,0,1-.154-.367Zm0,.631v.022l-.01-.024.01,0Zm0,.32v.492h-.557c.086-.252.314-.513.557-.492Zm-1.422,5.773h-.016v-.014l.016.014Zm1.422,1.2v1.441h-1.439v-1.441Zm0,2.64v1.443h-1.439v-1.443Zm0,2.641v1.442h-1.439v-1.442Zm0,2.641v1.442h-1.439V1185.1Zm0,2.641v1.442h-1.439v-1.442Zm0,2.641v.223c-.349.152-.6.4-.918.506-.076.135-.154-.111-.218,0-.007.14.03.013.109.036-.037.1-.06.207-.181.219.023-.168-.02-.211-.145-.146a.375.375,0,0,0-.084-.177v-.66Zm-1.439,2.982v-.34h.328a.988.988,0,0,0-.208.417c-.139.006-.013-.03-.036-.109a.228.228,0,0,0-.084.033Zm4.074-71.628v1.128c-.463-.11-.954-.243-1.439-.371v-.773h.062q.332.153.657.322c-.066-.2-.277-.251-.469-.322h.551a.4.4,0,0,0,.192,0h.359l.088.017Zm-.757,2.625h.319l.009.011a2.131,2.131,0,0,1-.328-.011Zm.757,43.113v.582H1051.3v-1.148a1.968,1.968,0,0,0,.246.027c.006.043-.008.065-.036.073a5.728,5.728,0,0,1,1.228.467Zm0,1.781v1.443H1051.3v-1.443Zm-.267,4.083h-.8a1.35,1.35,0,0,0,.277-.76c.143,0,.143-.148.291-.146a1.594,1.594,0,0,1,.109.765c.009.075.16.01.182.073a.2.2,0,0,0-.056.068Zm.267,1.588v1.052H1051.3V1174.9c.023-.122.047-.243.073-.36h1.2a.874.874,0,0,0,.1.407.253.253,0,0,0,.066-.018Zm0,2.252v1.441H1051.3v-1.441Zm0,2.64v1.443H1051.3v-1.443Zm0,2.641v1.442H1051.3v-1.442Zm0,2.641v1.442H1051.3V1185.1Zm0,2.641v.928l-.029.037c-.262.015-.438.215-.592.476h-.817v-1.442Zm-1.439,2.659v-.018h.028l-.028.018Zm2.976-67.239h-.185c-.029-.023-.055-.048-.074-.064l-.082-.008v-.16a2.353,2.353,0,0,1,.34.231Zm-.34-.251v-.219l.155.08c0,.1-.074.121-.155.139Zm0-.356v-.156c.071.057.2.058.264.116a.413.413,0,0,1-.264.039Zm0-.186v-.279a1.285,1.285,0,0,1,.336.245c-.064.06-.216.031-.336.034Zm1.439,46.945v.488a.457.457,0,0,1-.267-.026c-.03.007-.036.036-.073.036a1.1,1.1,0,0,0,.34.67v.216h-1.018a1.645,1.645,0,0,0-.421-.177v-1.266h1.359a.777.777,0,0,1,.08.059Zm0,2.583v.079c-.044-.024-.087-.051-.129-.079Zm-.862,6.723h-.577v-.521a.52.52,0,0,1,.009.123c.069-.016.219.05.182-.073.082.075.045.271.109.364.018-.136.189-.023.277.107Zm.862,1.617v1.025h-1.439v-1.443h1.039a.467.467,0,0,0,.133.442c.112-.009-.057-.3.109-.255-.052.106-.028.041.073.036a.2.2,0,0,0,.085.195Zm0,2.223v1.442h-1.439v-1.442Zm0,2.641v.519a11.336,11.336,0,0,1-.736.922h-.7V1185.1Zm1.2-15.677v-.169h.977c-.27.2-.729.352-.977.169Zm0,2.944v-.415a.774.774,0,0,0,.535.152c-.008.113-.181.061-.291.073.032.089.2.04.182.182a.44.44,0,0,1-.426.008Zm1.439,23.3v.549a2.306,2.306,0,0,1-.722.067c0-.066.045-.077.036-.145h-.218c0-.1.061-.074,0-.146a.6.6,0,0,1-.472.037c.048-.131,0-.134.036-.256.085-.011.136-.057.254-.036a.168.168,0,0,1,.021-.07Zm2.635-1.965v.766h-1.439v-.082a8.657,8.657,0,0,0,1.439-.684Zm1.2.1v-.777h1.049a8.083,8.083,0,0,1-1.049.777Zm3.719-4.617h-.515c-.05-.409-.053-.823.163-.986.076.071-.142.325.036.328.078-.07.3.226.436.255a2.721,2.721,0,0,0-.12.4Zm.355,1.349v.9a1.242,1.242,0,0,0-.753.387h-.685v-.838a1.937,1.937,0,0,0,.473-.6h.729a.586.586,0,0,0,.236.15Z" transform="translate(-0.24 -0.54)"/><text class="f" transform="translate(962.413 1176.164)"><tspan x="-50.745" y="0" xml:space="preserve">1234   5678   1234   5678</tspan></text><text class="f" transform="translate(985.505 1197.071)"><tspan x="-11.417" y="0">00/00</tspan></text><text class="g" transform="translate(945.5 1189.804)"><tspan x="8.196" y="5">VALID</tspan><tspan x="9.053" y="11.132">THRU</tspan></text><g transform="translate(1020.393 1187.948)"><path class="h" d="M3.836,0C5.965,0,7.69,3.566,7.69,7.965S5.965,15.93,3.836,15.93s-4.4-4.595-4.4-7.789S1.707,0,3.836,0Z" transform="translate(12.611 2.193)"/><path class="i" d="M34.779,73.979a10.141,10.141,0,0,1,3.854-7.965,10.158,10.158,0,1,0,0,15.93A10.14,10.14,0,0,1,34.779,73.979Z" transform="translate(-22.186 -63.82)"/><path class="j" d="M45.483,63.82a10.1,10.1,0,0,0-6.3,2.193,10.157,10.157,0,0,1,0,15.93,10.154,10.154,0,1,0,6.3-18.123Z" transform="translate(-22.74 -63.82)"/></g><path class="k" d="M7.018,18.386V0h14.3a.951.951,0,0,1,.926.973V3.53H15.464V18.386Zm9.138,0V14.853h6.092v2.556a.951.951,0,0,1-.926.974Zm-15.23,0A.951.951,0,0,1,0,17.409V14.853H6.092v3.531ZM16.16,13.432V9.9h6.095v3.532ZM0,13.432V9.9H6.1v3.532ZM16.16,8.479V4.947h6.095V8.479ZM0,8.479V4.947H6.1V8.479ZM0,3.53V.973A.951.951,0,0,1,.926,0H6.092V3.53Z" transform="translate(912.044 1136.668)"/></g></g></svg>