<?xml version="1.0" encoding="utf-8"?>
<!-- Generator: Adobe Illustrator 24.1.2, SVG Export Plug-In . SVG Version: 6.00 Build 0)  -->
<svg version="1.1" id="Layer_1" xmlns="http://www.w3.org/2000/svg" xmlns:xlink="http://www.w3.org/1999/xlink" x="0px" y="0px"
	 width="60px" height="60px" viewBox="0 0 60 60" style="enable-background:new 0 0 60 60;" xml:space="preserve">
<style type="text/css">
	.st0{fill:none;stroke:#4680DC;stroke-width:2;stroke-miterlimit:10;}
	.st1{fill:#4680DC;}
</style>
<g>
	<path class="st0" d="M11.2,8"/>
	<path class="st1" d="M51.2,0h-43c-1.7,0-3,1.4-3,3v3c0,1.6,1.3,3,3,3h2v37.5c0,0.4,0.2,0.7,0.5,0.9s0.7,0.2,1,0l5.4-3.3l5.4,3.3
		c0.3,0.2,0.7,0.3,1.1,0.3s0.7-0.1,1-0.3l5.4-3.3l5.4,3.3c0.6,0.4,1.5,0.4,2.1,0l5.4-3.3l4.8,3c0.3,0.2,0.7,0.2,1,0s0.5-0.5,0.5-0.9
		V9h2c1.7,0,3-1.4,3-3V3C54.2,1.3,52.9,0,51.2,0z M47.2,44.3l-3.8-2.4c-0.3-0.2-0.7-0.2-1.1,0l-5.9,3.7l-5.9-3.7
		c-0.3-0.2-0.7-0.2-1,0l-5.9,3.7l-5.9-3.7c-0.2-0.1-0.3-0.2-0.5-0.2s-0.4,0-0.5,0.2l-4.4,2.7V6h35L47.2,44.3L47.2,44.3z M52.2,6
		c0,0.5-0.5,1-1,1h-2V5c0-0.5-0.5-1-1-1h-37c-0.6,0-1,0.5-1,1v2h-2c-0.6,0-1-0.5-1-1V3c0-0.6,0.4-1,1-1h43c0.5,0,1,0.4,1,1V6z"/>
	<g>
		<path class="st1" d="M31.2,17h-15c-0.6,0-1-0.4-1-1s0.4-1,1-1h15c0.6,0,1,0.4,1,1S31.8,17,31.2,17z"/>
		<path class="st1" d="M41.2,22h-25c-0.6,0-1-0.4-1-1s0.4-1,1-1h25c0.6,0,1,0.4,1,1S41.8,22,41.2,22z"/>
		<path class="st1" d="M27.2,27h-11c-0.6,0-1-0.4-1-1s0.4-1,1-1h11c0.6,0,1,0.4,1,1S27.8,27,27.2,27z"/>
		<path class="st1" d="M42.2,27h-10c-0.6,0-1-0.4-1-1s0.4-1,1-1h10c0.6,0,1,0.4,1,1S42.8,27,42.2,27z"/>
		<path class="st1" d="M43.2,17h-7c-0.6,0-1-0.4-1-1s0.4-1,1-1h7c0.6,0,1,0.4,1,1S43.8,17,43.2,17z"/>
	</g>
	<g>
		<path class="st1" d="M17.3,11h-1.1c-0.6,0-1-0.4-1-1s0.4-1,1-1h1.1c0.6,0,1,0.4,1,1S17.9,11,17.3,11z"/>
		<path class="st1" d="M21.6,11h-1.1c-0.6,0-1-0.4-1-1s0.4-1,1-1h1.1c0.6,0,1,0.4,1,1S22.2,11,21.6,11z"/>
		<path class="st1" d="M25.9,11h-1c-0.6,0-1-0.4-1-1s0.4-1,1-1h1c0.6,0,1,0.4,1,1S26.5,11,25.9,11z"/>
		<path class="st1" d="M30.3,11h-1.1c-0.6,0-1-0.4-1-1s0.4-1,1-1h1.1c0.6,0,1,0.4,1,1S30.9,11,30.3,11z"/>
		<path class="st1" d="M34.6,11h-1.1c-0.6,0-1-0.4-1-1s0.4-1,1-1h1.1c0.6,0,1,0.4,1,1S35.2,11,34.6,11z"/>
		<path class="st1" d="M38.9,11h-1.1c-0.6,0-1-0.4-1-1s0.4-1,1-1h1.1c0.6,0,1,0.4,1,1S39.5,11,38.9,11z"/>
		<path class="st1" d="M43.2,11h-1.1c-0.6,0-1-0.4-1-1s0.4-1,1-1h1.1c0.6,0,1,0.4,1,1S43.8,11,43.2,11z"/>
	</g>
	<g>
		<path class="st1" d="M16.2,39c-0.6,0-1-0.4-1-1v-5c0-0.6,0.4-1,1-1s1,0.4,1,1v5C17.2,38.6,16.8,39,16.2,39z"/>
		<path class="st1" d="M19.2,39c-0.6,0-1-0.4-1-1v-5c0-0.6,0.4-1,1-1s1,0.4,1,1v5C20.2,38.6,19.8,39,19.2,39z"/>
		<path class="st1" d="M22.2,39c-0.6,0-1-0.4-1-1v-5c0-0.6,0.4-1,1-1s1,0.4,1,1v5C23.2,38.6,22.8,39,22.2,39z"/>
		<path class="st1" d="M25.2,39c-0.6,0-1-0.4-1-1v-5c0-0.6,0.4-1,1-1s1,0.4,1,1v5C26.2,38.6,25.8,39,25.2,39z"/>
		<path class="st1" d="M28.2,39c-0.6,0-1-0.4-1-1v-5c0-0.6,0.4-1,1-1s1,0.4,1,1v5C29.2,38.6,28.8,39,28.2,39z"/>
		<path class="st1" d="M31.2,39c-0.6,0-1-0.4-1-1v-5c0-0.6,0.4-1,1-1s1,0.4,1,1v5C32.2,38.6,31.8,39,31.2,39z"/>
		<path class="st1" d="M34.2,39c-0.6,0-1-0.4-1-1v-5c0-0.6,0.4-1,1-1s1,0.4,1,1v5C35.2,38.6,34.8,39,34.2,39z"/>
		<path class="st1" d="M37.2,39c-0.6,0-1-0.4-1-1v-5c0-0.6,0.4-1,1-1s1,0.4,1,1v5C38.2,38.6,37.8,39,37.2,39z"/>
		<path class="st1" d="M40.2,39c-0.6,0-1-0.4-1-1v-5c0-0.6,0.4-1,1-1s1,0.4,1,1v5C41.2,38.6,40.8,39,40.2,39z"/>
		<path class="st1" d="M43.2,39c-0.6,0-1-0.4-1-1v-5c0-0.6,0.4-1,1-1s1,0.4,1,1v5C44.2,38.6,43.8,39,43.2,39z"/>
	</g>
</g>
</svg>
