<?xml version="1.0" encoding="utf-8"?>
<!-- Generator: Adobe Illustrator 24.1.2, SVG Export Plug-In . SVG Version: 6.00 Build 0)  -->
<svg version="1.1" id="Layer_1" xmlns="http://www.w3.org/2000/svg" xmlns:xlink="http://www.w3.org/1999/xlink" x="0px" y="0px"
	 width="60px" height="60px" viewBox="0 0 60 60" style="enable-background:new 0 0 60 60;" xml:space="preserve">
<style type="text/css">
	.st0{fill:#4680DC;}
</style>
<g>
	<path class="st0" d="M30.3,43.2h-1.2c-1.3,0-2.2-0.9-2.2-2.2v-4.1c-1.6-1-2.5-2.8-2.4-4.6c0.1-2.7,2.5-5,5.2-5
		c2.9,0,5.3,2.4,5.3,5.3c0,1.8-0.9,3.4-2.5,4.4V41C32.5,42.2,31.6,43.2,30.3,43.2z M29.7,29.2c-1.6,0-3.1,1.5-3.2,3.1
		c-0.1,1.5,0.9,2.6,1.8,3.1l0.6,0.3V41c0,0.1,0.1,0.2,0.2,0.2h1.2c0.1,0,0.2-0.1,0.2-0.2v-5.3l0.6-0.3c1.2-0.6,1.9-1.6,1.9-2.9
		C33,30.7,31.5,29.2,29.7,29.2z"/>
	<path class="st0" d="M43.7,19.2h-1.2v-0.1v-7c0-6.7-5.4-12-12-12h-1.6c-6.6,0-12,5.4-12,12v7v0.1h-1.2c-2.8,0-5,2.2-5,5v22
		c0,2.8,2.2,5,5,5h28c2.8,0,5-2.2,5-5v-22C48.7,21.4,46.5,19.2,43.7,19.2z M19,12.1c0-5.5,4.5-9.9,10-9.9l1.5-0.1
		c5.5,0,10,4.5,10,10v7h-2.4v-7c0-4.2-3.4-7.6-7.6-7.6h-1.6c-4.2,0-7.6,3.4-7.6,7.6v7H19V12.1z M23.3,19.1v-7c0-3.1,2.5-5.6,5.6-5.6
		h1.6c3.1,0,5.6,2.5,5.6,5.6v7v0.1L23.3,19.1L23.3,19.1z M46.7,46.2c0,1.7-1.3,3-3,3h-28c-1.7,0-3-1.3-3-3v-22c0-1.7,1.3-3,3-3h28
		c1.7,0,3,1.3,3,3V46.2z"/>
</g>
</svg>
