<?xml version="1.0" encoding="utf-8"?>
<!-- Generator: Adobe Illustrator 24.1.2, SVG Export Plug-In . SVG Version: 6.00 Build 0)  -->
<svg version="1.1" id="Layer_1" xmlns="http://www.w3.org/2000/svg" xmlns:xlink="http://www.w3.org/1999/xlink" x="0px" y="0px"
	 width="60px" height="60px" viewBox="0 0 60 60" style="enable-background:new 0 0 60 60;" xml:space="preserve">
<style type="text/css">
	.st0{fill:#FFFFFF;stroke:#4680DC;stroke-width:2;stroke-linejoin:round;stroke-miterlimit:10;}
	.st1{fill:none;stroke:#4680DC;stroke-width:2;stroke-miterlimit:10;}
	.st2{fill:#FFFFFF;stroke:#4680DC;stroke-width:2;stroke-linecap:round;stroke-miterlimit:10;}
</style>
<g>
	<g transform="matrix(1, 0, 0, 1, 0, 0)">
		<path id="облако-2_3_" class="st0" d="M42.6,31.5h5.7c4.4,0,8-3.6,8-8s-3.6-8-8-8l0,0c-0.2,0-0.3,0-0.5,0l0,0
			c0-5.6-4.5-10.1-10-10.1c-1.8,0-3.5,0.5-5.1,1.3c-3.4-5.5-10.6-7.3-16.1-4c-3.5,2.1-5.7,6-5.7,10.1v0.1c-5.1,0.8-8.6,5.6-7.8,10.7
			c0.7,4.5,4.6,7.9,9.2,7.9"/>
		<path id="облако-2_5_" class="st0" d="M42.6,31.5"/>
		<path id="облако-2_4_" class="st0" d="M12.4,31.5"/>
	</g>
	<g>
		<path class="st1" d="M38.6,47.5H16.4c-2.2,0-4-1.8-4-4V23h30.2v20.6C42.6,45.7,40.8,47.5,38.6,47.5z"/>
		<g>
			<path class="st1" d="M38,47.5h-7V34.1c0-1.1,0.9-2,2-2h3c1.1,0,2,0.9,2,2V47.5z"/>
			<path class="st1" d="M25.5,41.9H19c-1.1,0-2-0.9-2-2v-5.8c0-1.1,0.9-2,2-2h6.5c1.1,0,2,0.9,2,2v5.8C27.5,41,26.6,41.9,25.5,41.9z
				"/>
		</g>
		<path class="st2" d="M9.6,19.1v3.7c0,1.8,1.3,3.5,3.2,3.6c1.6,0.2,2.9-0.7,3.6-2c0.1-0.3,0.5-0.3,0.6,0c0.5,1.2,1.8,2.1,3.2,2.1
			s2.6-0.8,3.2-2.1c0.1-0.3,0.5-0.3,0.6,0c0.5,1.2,1.8,2.1,3.2,2.1s2.6-0.8,3.2-2.1c0.1-0.3,0.5-0.3,0.6,0c0.5,1.2,1.8,2.1,3.2,2.1
			s2.6-0.8,3.2-2.1c0.1-0.3,0.5-0.3,0.6,0c0.6,1.3,2,2.2,3.5,2c1.8-0.2,3.2-1.8,3.2-3.6v-3.7c0-0.2-0.2-0.4-0.3-0.4H9.9
			C9.7,18.8,9.6,18.9,9.6,19.1z"/>
		<path class="st0" d="M44.7,18.8H9.6l7.6-4.2c0,0,0.1,0,0.2,0h19.5c0.1,0,0.1,0,0.2,0L44.7,18.8z"/>
	</g>
</g>
</svg>
