<?xml version="1.0" encoding="utf-8"?>
<!-- Generator: Adobe Illustrator 24.1.2, SVG Export Plug-In . SVG Version: 6.00 Build 0)  -->
<svg version="1.1" id="Layer_1" xmlns="http://www.w3.org/2000/svg" xmlns:xlink="http://www.w3.org/1999/xlink" x="0px" y="0px"
	 width="60px" height="60px" viewBox="0 0 60 60" style="enable-background:new 0 0 60 60;" xml:space="preserve">
<style type="text/css">
	.st0{fill:none;stroke:#4680DC;stroke-width:2;stroke-linejoin:round;stroke-miterlimit:10;}
	.st1{fill:#4680DC;}
</style>
<g transform="matrix(1, 0, 0, 1, 0, 0)">
	<path id="облако-2_11_" class="st0" d="M41.9,29.2"/>
	<path id="облако-2_10_" class="st0" d="M14.2,29.2"/>
</g>
<g>
	<g>
		<g>
			<g>
				<path class="st1" d="M30.8,24.5h-12c-0.6,0-1-0.4-1-1s0.4-1,1-1h12c0.6,0,1,0.4,1,1S31.3,24.5,30.8,24.5z"/>
			</g>
			<g>
				<path class="st1" d="M36.4,24.5H34c-0.6,0-1-0.4-1-1s0.4-1,1-1h2.4c0.6,0,1,0.4,1,1S36.9,24.5,36.4,24.5z"/>
			</g>
		</g>
		<g>
			<g>
				<path class="st1" d="M30.8,28.6h-12c-0.6,0-1-0.4-1-1s0.4-1,1-1h12c0.6,0,1,0.4,1,1S31.3,28.6,30.8,28.6z"/>
			</g>
			<g>
				<path class="st1" d="M36.4,28.6H34c-0.6,0-1-0.4-1-1s0.4-1,1-1h2.4c0.6,0,1,0.4,1,1S36.9,28.6,36.4,28.6z"/>
			</g>
		</g>
		<g>
			<g>
				<path class="st1" d="M30.8,32.6h-12c-0.6,0-1-0.4-1-1c0-0.6,0.4-1,1-1h12c0.6,0,1,0.4,1,1C31.8,32.1,31.3,32.6,30.8,32.6z"/>
			</g>
			<g>
				<path class="st1" d="M36.4,32.6H34c-0.6,0-1-0.4-1-1c0-0.6,0.4-1,1-1h2.4c0.6,0,1,0.4,1,1C37.4,32.1,36.9,32.6,36.4,32.6z"/>
			</g>
		</g>
		<g>
			<g>
				<path class="st1" d="M30.8,36.6h-12c-0.6,0-1-0.4-1-1s0.4-1,1-1h12c0.6,0,1,0.4,1,1S31.3,36.6,30.8,36.6z"/>
			</g>
		</g>
		<g>
			<g>
				<path class="st1" d="M25.5,42.2h-6.4c-0.6,0-1-0.4-1-1s0.4-1,1-1h6.4c0.6,0,1,0.4,1,1S26.1,42.2,25.5,42.2z"/>
			</g>
		</g>
	</g>
	<g>
		<path class="st1" d="M47.1,30.2c4.6,0,8.4-3.8,8.4-8.4c0-4.4-3.5-8.1-7.9-8.4c-0.5-5.2-4.9-9.3-10.2-9.3c0,0,0,0,0,0
			c-1.5,0-2.9,0.3-4.3,0.9c-3.5-4.9-10.4-6.4-15.6-3.2c-3.3,2-5.4,5.5-5.6,9.4c-4.8,1.2-7.9,5.9-7.2,10.8c0.7,4.1,3.8,7.3,7.8,8
			v15.1c0,2.3,1.9,4.2,4.2,4.2h23.4v0c0.1,0,0.2,0,0.3,0c4.3,0,7.8-3.5,7.8-7.8c0-3.5-2.4-6.5-5.6-7.5v-3.9H47.1z M12.9,12L12.9,12
			L12.9,12L12.9,12z M6.7,21.8c-0.7-4.1,2.2-8,6.3-8.7c0.5-0.1,0.8-0.6,0.8-1.1c0-3.4,1.8-6.6,4.7-8.4c2.2-1.4,4.9-1.8,7.4-1.1
			c2.5,0.6,4.7,2.2,6,4.4c0.3,0.5,0.9,0.6,1.4,0.3c1.2-0.7,2.7-1.1,4.1-1.1c0,0,0,0,0,0c2.2,0,4.3,0.9,5.8,2.4
			c1.6,1.6,2.4,3.6,2.4,5.9c0,0.3,0.1,0.5,0.3,0.7c0.2,0.2,0.5,0.3,0.7,0.3l0.1,0c0.1,0,0.2,0,0.3,0c3.5,0,6.4,2.9,6.4,6.4
			s-2.9,6.4-6.4,6.4h-4.5V15.5c0-2.3-1.9-4.2-4.2-4.2H20.3l-7.7,7.8V28C9.5,27.4,7.2,25,6.7,21.8z M19.7,14.8v1.6
			c0,1.2-1,2.2-2.2,2.2H16L19.7,14.8z M16.7,47.4c-1.2,0-2.2-1-2.2-2.2V20.5h3c2.3,0,4.2-1.9,4.2-4.2v-3h16.6c1.2,0,2.2,1,2.2,2.2
			v18.2c-0.1,0-0.1,0-0.2,0c-4.3,0-7.8,3.5-7.8,7.8c0,2.3,1,4.4,2.6,5.8H16.7z M46.2,41.6c0,3.2-2.6,5.8-5.8,5.8s-5.8-2.6-5.8-5.8
			c0-3.2,2.6-5.8,5.8-5.8S46.2,38.4,46.2,41.6z"/>
		<path class="st1" d="M39.6,45.4c-0.3,0-0.5-0.1-0.7-0.3l-2-2c-0.4-0.4-0.4-1,0-1.4s1-0.4,1.4,0l1.2,1.2l2.6-3.2
			c0.4-0.4,1-0.5,1.4-0.1c0.4,0.4,0.5,1,0.1,1.4l-3.3,4C40.1,45.2,39.9,45.3,39.6,45.4C39.6,45.4,39.6,45.4,39.6,45.4z"/>
	</g>
</g>
</svg>
