<?xml version="1.0" encoding="utf-8"?>
<!-- Generator: Adobe Illustrator 24.1.2, SVG Export Plug-In . SVG Version: 6.00 Build 0)  -->
<svg version="1.1" id="Layer_1" xmlns="http://www.w3.org/2000/svg" xmlns:xlink="http://www.w3.org/1999/xlink" x="0px" y="0px"
	 width="60px" height="60px" viewBox="0 0 60 60" style="enable-background:new 0 0 60 60;" xml:space="preserve">
<style type="text/css">
	.st0{fill:#487FDA;}
</style>
<g>
	<path class="st0" d="M7,20.1h10.5c0.5,0,1-0.5,1-1s-0.5-1-1-1H7c-0.6,0-1,0.5-1,1S6.4,20.1,7,20.1z"/>
	<path class="st0" d="M21.7,20.1H28c0.5,0,1-0.5,1-1s-0.5-1-1-1h-6.3c-0.5,0-1,0.5-1,1S21.1,20.1,21.7,20.1z"/>
	<path class="st0" d="M7,26.1h12.9c0.5,0,1-0.5,1-1s-0.5-1-1-1H7c-0.6,0-1,0.5-1,1S6.4,26.1,7,26.1z"/>
	<path class="st0" d="M33,24.1h-8.9c-0.5,0-1,0.5-1,1s0.5,1,1,1H33c0.5,0,1-0.5,1-1S33.5,24.1,33,24.1z"/>
	<path class="st0" d="M13.4,30.1H7c-0.6,0-1,0.5-1,1s0.4,1,1,1h6.4c0.6,0,1-0.5,1-1S14,30.1,13.4,30.1z"/>
	<path class="st0" d="M30,30.1H17.6c-0.5,0-1,0.5-1,1s0.5,1,1,1h12.3c0.5,0,1-0.5,1-1S30.5,30.1,30,30.1z"/>
	<path class="st0" d="M36,11.1H4c-2.2,0-4,1.8-4,4v20c0,2.2,1.8,4,4,4h2v4c0,0.8,0.5,1.6,1.3,1.9c0.3,0.1,0.5,0.2,0.8,0.2
		c0.5,0,1.1-0.2,1.4-0.6l5.4-5.4H36c2.2,0,4-1.8,4-4v-20C40,12.9,38.2,11.1,36,11.1z M38,35.1c0,1.1-0.9,2-2,2H14.1l-6,6l0.7,0.7
		L8,43.1v-6H4c-1.1,0-2-0.9-2-2v-20c0-1.1,0.9-2,2-2h32c1.1,0,2,0.9,2,2V35.1z"/>
	<path class="st0" d="M56,0.2H29c-2.2,0-4,1.8-4,4v3.7c0,0.5,0.5,1,1,1s1-0.5,1-1V4.2c0-1.1,0.9-2,2-2h27c1.1,0,2,0.9,2,2v20
		c0,1.1-0.9,2-2,2h-4v6h-0.1l-6-6h-2.5c-0.5,0-1,0.5-1,1s0.5,1,1,1h1.7l5.4,5.4c0.4,0.4,0.9,0.6,1.5,0.6c0.3,0,0.5,0,0.8-0.2
		c0.8-0.3,1.3-1.1,1.3-1.9v-4h2c2.2,0,4-1.8,4-4v-20C60,2,58.3,0.2,56,0.2z"/>
	<path class="st0" d="M53.1,9.3c0.5,0,1-0.5,1-1s-0.5-1-1-1h-5.7c-0.5,0-1,0.5-1,1s0.5,1,1,1H53.1z"/>
	<path class="st0" d="M43.4,7.3H32.1c-0.5,0-1,0.5-1,1s0.5,1,1,1h11.3c0.5,0,1-0.5,1-1S44,7.3,43.4,7.3z"/>
	<path class="st0" d="M42.4,14.3c0,0.5,0.5,1,1,1h9.7c0.5,0,1-0.5,1-1s-0.5-1-1-1h-9.7C42.9,13.3,42.4,13.8,42.4,14.3z"/>
	<path class="st0" d="M53.1,18.6h-6.7c-0.5,0-1,0.5-1,1s0.5,1,1,1h6.7c0.5,0,1-0.5,1-1S53.6,18.6,53.1,18.6z"/>
</g>
</svg>
