<?xml version="1.0" encoding="utf-8"?>
<!-- Generator: Adobe Illustrator 24.1.2, SVG Export Plug-In . SVG Version: 6.00 Build 0)  -->
<svg version="1.1" id="Layer_1" xmlns="http://www.w3.org/2000/svg" xmlns:xlink="http://www.w3.org/1999/xlink" x="0px" y="0px"
	 width="60px" height="60px" viewBox="0 0 60 60" style="enable-background:new 0 0 60 60;" xml:space="preserve">
<style type="text/css">
	.st0{fill:#4680DC;}
</style>
<g>
	<path class="st0" d="M48,18c0-9.9-8.1-18-18-18S12,8.1,12,18c0,6.4,3.4,12.4,9,15.6V49c0,0.4,0.2,0.7,0.6,0.9s0.8,0.1,1.1-0.1
		l7.4-5.9l7.4,5.8c0.2,0.1,0.4,0.2,0.6,0.2c0.2,0,0.3,0,0.4-0.1c0.3-0.2,0.6-0.5,0.6-0.9V33.6C44.4,30.5,48,24.7,48,18z M37,46.9
		l-6.4-5.1c-0.4-0.3-0.9-0.3-1.2,0L23,46.9V34.6c2.2,0.9,4.6,1.4,7,1.4c2.5,0,4.8-0.5,7-1.4V46.9z M30,34c-2.6,0-5.2-0.7-7.5-1.9
		C17.3,29.3,14,23.9,14,18c0-8.8,7.2-16,16-16s16,7.2,16,16S38.8,34,30,34z"/>
	<g>
		<path class="st0" d="M24.8,26.8c-0.2,0-0.4-0.1-0.6-0.2c-0.3-0.2-0.5-0.6-0.4-1l0.9-5.3l-3.9-3.8c-0.3-0.3-0.4-0.7-0.3-1
			s0.4-0.6,0.8-0.7l5.4-0.8l2.4-4.9c0.3-0.7,1.5-0.7,1.8,0l2.4,4.9l5.3,0.8c0.4,0,0.7,0.3,0.8,0.7s0,0.8-0.3,1l-3.9,3.8l0.9,5.3
			c0.1,0.4-0.1,0.8-0.4,1c-0.3,0.2-0.7,0.3-1,0.1L30,24.1l-4.8,2.5C25.1,26.7,24.9,26.8,24.8,26.8z M30,22c0.2,0,0.3,0,0.5,0.1
			l3.5,1.8L33.3,20c-0.1-0.3,0-0.7,0.3-0.9l2.8-2.7l-3.9-0.6c-0.3,0-0.6-0.3-0.8-0.5L30,11.8l-1.7,3.5c-0.1,0.3-0.4,0.5-0.8,0.5
			l-3.9,0.6l2.8,2.7c0.2,0.2,0.3,0.6,0.3,0.9L26,23.8l3.5-1.8C29.7,22,29.8,22,30,22z"/>
	</g>
</g>
</svg>
