<?xml version="1.0" encoding="utf-8"?>
<!-- Generator: Adobe Illustrator 24.1.2, SVG Export Plug-In . SVG Version: 6.00 Build 0)  -->
<svg version="1.1" id="Layer_1" xmlns="http://www.w3.org/2000/svg" xmlns:xlink="http://www.w3.org/1999/xlink" x="0px" y="0px"
	 width="60px" height="60px" viewBox="0 0 60 60" style="enable-background:new 0 0 60 60;" xml:space="preserve">
<style type="text/css">
	.st0{fill:#FFFFFF;}
	.st1{fill:#4680DC;}
	.st2{fill:#5181DF;}
</style>
<g>
	<g>
		<line class="st0" x1="4.6" y1="4" x2="5.6" y2="4"/>
		<path class="st1" d="M5.6,5h-1c-0.6,0-1-0.4-1-1s0.4-1,1-1h1c0.6,0,1,0.4,1,1S6.1,5,5.6,5z"/>
	</g>
	<g>
		<line class="st0" x1="8.6" y1="4" x2="9.6" y2="4"/>
		<path class="st1" d="M9.6,5h-1c-0.6,0-1-0.4-1-1s0.4-1,1-1h1c0.6,0,1,0.4,1,1S10.1,5,9.6,5z"/>
	</g>
	<g>
		<line class="st0" x1="12.6" y1="4" x2="13.6" y2="4"/>
		<path class="st1" d="M13.6,5h-1c-0.6,0-1-0.4-1-1s0.4-1,1-1h1c0.6,0,1,0.4,1,1S14.1,5,13.6,5z"/>
	</g>
	<g>
		<path class="st1" d="M38.4,16.6c-0.3,0-0.5-0.1-0.7-0.3L36.3,15c-0.4-0.4-0.4-1,0-1.4s1-0.4,1.4,0l0.7,0.7l2.1-2.1
			c0.4-0.4,1-0.4,1.4,0s0.4,1,0,1.4l-2.8,2.8C38.9,16.5,38.6,16.6,38.4,16.6z"/>
	</g>
	<g>
		<path class="st1" d="M38.4,23.6c-0.3,0-0.5-0.1-0.7-0.3L36.3,22c-0.4-0.4-0.4-1,0-1.4s1-0.4,1.4,0l0.7,0.7l2.1-2.1
			c0.4-0.4,1-0.4,1.4,0s0.4,1,0,1.4l-2.8,2.8C38.9,23.5,38.6,23.6,38.4,23.6z"/>
	</g>
	<g>
		<path class="st1" d="M16.6,13h-10c-0.6,0-1,0.4-1,1s0.4,1,1,1h10c0.6,0,1-0.4,1-1S17.1,13,16.6,13z"/>
		<path class="st1" d="M20.8,15h12.5c0.6,0,1-0.4,1-1s-0.4-1-1-1H20.8c-0.6,0-1,0.4-1,1S20.3,15,20.8,15z"/>
		<path class="st1" d="M16.6,20h-10c-0.6,0-1,0.4-1,1s0.4,1,1,1h10c0.6,0,1-0.4,1-1S17.1,20,16.6,20z"/>
		<path class="st1" d="M33.3,20H20.8c-0.6,0-1,0.4-1,1s0.4,1,1,1h12.5c0.6,0,1-0.4,1-1S33.9,20,33.3,20z"/>
		<path class="st1" d="M16.6,27h-10c-0.6,0-1,0.4-1,1s0.4,1,1,1h10c0.6,0,1-0.4,1-1S17.1,27,16.6,27z"/>
		<path class="st1" d="M33.3,27H20.8c-0.6,0-1,0.4-1,1s0.4,1,1,1h12.5c0.6,0,1-0.4,1-1S33.9,27,33.3,27z"/>
		<path class="st1" d="M16.6,34h-10c-0.6,0-1,0.4-1,1s0.4,1,1,1h10c0.6,0,1-0.4,1-1S17.1,34,16.6,34z"/>
		<path class="st1" d="M33.3,34H20.8c-0.6,0-1,0.4-1,1s0.4,1,1,1h12.5c0.6,0,1-0.4,1-1S33.9,34,33.3,34z"/>
	</g>
	<g>
		<path class="st2" d="M49.6,22.2V7V3c0-1.7-1.3-3-3-3h-43c-1.7,0-3,1.3-3,3v4v34c0,1.7,1.3,3,3,3h44v0c0.1,0,0.2,0,0.3,0
			c6.1,0,11-4.9,11-11C58.9,27.6,54.8,23,49.6,22.2z M2.6,3c0-0.6,0.4-1,1-1h43c0.6,0,1,0.4,1,1v3h-45V3z M3.6,42c-0.6,0-1-0.4-1-1
			V8h45v14c-5.9,0.2-10.7,5-10.7,11c0,3.7,1.9,7,4.7,9H3.6z M47.9,42c-5,0-9-4-9-9s4-9,9-9s9,4,9,9S52.8,42,47.9,42z"/>
		<path class="st2" d="M48.8,32.4v-1.9c0.4,0.1,0.6,0.2,0.9,0.2c0.5,0,0.9-0.4,0.9-0.8c0-0.7-1-1-1.8-1.1v-1c0-0.4-0.3-0.8-0.8-0.8
			s-0.8,0.3-0.8,0.8v1c-1.4,0.2-2.3,1-2.3,2.4c0,1.6,1.2,2.1,2.3,2.5v2c-0.6-0.1-1-0.4-1.4-0.4c-0.6,0-0.9,0.5-0.9,0.8
			c0,0.8,1.3,1.1,2.3,1.2v0.8c0,0.4,0.3,0.8,0.8,0.8s0.8-0.3,0.8-0.8v-0.8c1.3-0.3,2.2-1.2,2.2-2.5C51,33.2,50,32.8,48.8,32.4z
			 M47.3,31.8c-0.2-0.1-0.5-0.3-0.5-0.7c0-0.3,0.2-0.5,0.5-0.6V31.8z M48.8,35.4v-1.2c0.2,0.1,0.3,0.3,0.3,0.6
			C49.1,35.1,49,35.3,48.8,35.4z"/>
	</g>
</g>
</svg>
