<?xml version="1.0" encoding="utf-8"?>
<!-- Generator: Adobe Illustrator 24.1.2, SVG Export Plug-In . SVG Version: 6.00 Build 0)  -->
<svg version="1.1" id="Layer_1" xmlns="http://www.w3.org/2000/svg" xmlns:xlink="http://www.w3.org/1999/xlink" x="0px" y="0px"
	 width="60px" height="60px" viewBox="0 0 60 60" style="enable-background:new 0 0 60 60;" xml:space="preserve">
<style type="text/css">
	.st0{fill:#4680DC;}
</style>
<g>
	<path class="st0" d="M28.5,41h-11c-1.7,0-3-1.3-3-3V28c0-1.7,1.3-3,3-3h11c1.7,0,3,1.3,3,3v10C31.5,39.7,30.2,41,28.5,41z M17.5,27
		c-0.6,0-1,0.4-1,1v10c0,0.6,0.4,1,1,1h11c0.6,0,1-0.4,1-1V28c0-0.6-0.4-1-1-1H17.5z"/>
	<path class="st0" d="M56,7.2c0.1-0.4-0.1-0.9-0.5-1.1L44.6,0.2C44.4,0.1,44.1,0,43.9,0H16.1c-0.3,0-0.5,0.1-0.7,0.2L4.5,6.1
		C4.1,6.3,3.9,6.8,4,7.2c0,0.1,0,0.2,0,0.3v5.3c0,2.7,1.7,5,4,5.9V44c0,2.8,2.2,5,5,5h21.5h12H48c2.8,0,5-2.2,5-5V18.2
		c1.8-1.1,3-3.1,3-5.4V7.5C56,7.4,56,7.3,56,7.2z M16.3,2h27.5l7.3,4H8.9L16.3,2z M36.5,47V28c0-0.6,0.4-1,1-1h6c0.6,0,1,0.4,1,1v19
		H36.5z M51,44c0,1.7-1.3,3-3,3h-1.5V28c0-1.7-1.3-3-3-3h-6c-1.7,0-3,1.3-3,3v19H13c-1.7,0-3-1.3-3-3V19c2,0,3.9-1,5-2.7
		c1.1,1.7,3,2.7,5,2.7c2,0,3.9-1,5-2.7c1.1,1.7,3,2.7,5,2.7s3.9-1,5-2.7c1.1,1.7,3,2.7,5,2.7c2,0,3.9-1,5-2.7
		c1.2,1.8,3.4,2.9,5.6,2.7c0.1,0,0.3,0,0.4-0.1V44z M54,12.8c0,2.2-1.6,4-3.6,4.2c-1.7,0.2-3.3-0.8-4-2.3c-0.2-0.5-0.8-0.9-1.3-0.9
		c0,0,0,0,0,0c-0.6,0-1.1,0.3-1.4,0.9C43,16.1,41.6,17,40,17c-1.6,0-3-0.9-3.6-2.3c-0.2-0.5-0.8-0.9-1.4-0.9s-1.1,0.3-1.4,0.9
		C33,16.1,31.6,17,30,17s-3-0.9-3.6-2.3c-0.2-0.5-0.8-0.9-1.4-0.9s-1.1,0.3-1.4,0.9C23,16.1,21.6,17,20,17c-1.6,0-3-0.9-3.6-2.3
		c-0.2-0.5-0.8-0.9-1.4-0.9c0,0,0,0,0,0c-0.6,0-1.1,0.3-1.3,0.9c-0.7,1.6-2.3,2.5-4,2.3c-2-0.2-3.6-2-3.6-4.2V8h48V12.8z"/>
</g>
</svg>
