<?xml version="1.0" encoding="utf-8"?>
<!-- Generator: Adobe Illustrator 24.1.2, SVG Export Plug-In . SVG Version: 6.00 Build 0)  -->
<svg version="1.1" id="Layer_1" xmlns="http://www.w3.org/2000/svg" xmlns:xlink="http://www.w3.org/1999/xlink" x="0px" y="0px"
	 width="60px" height="60px" viewBox="0 0 60 60" style="enable-background:new 0 0 60 60;" xml:space="preserve">
<style type="text/css">
	.st0{fill:#4680DC;}
</style>
<g>
	<path class="st0" d="M54.2,29.5h-5V18.7c1.8-1.1,3-3.1,3-5.4V8c0-0.1,0-0.2,0-0.3c0.1-0.4-0.1-0.9-0.5-1.1L40.8,0.7
		c-0.2-0.1-0.5-0.2-0.7-0.2H12.4c-0.3,0-0.5,0.1-0.7,0.2L0.8,6.7C0.4,6.9,0.2,7.3,0.3,7.8c0,0.1,0,0.2,0,0.3v5.3c0,2.7,1.7,5,4,5.9
		v25.2c0,2.8,2.2,5.1,5,5.1H34c0.1,0,0.2,0,0.3,0h20c2.8,0,5-2.2,5-5v-10C59.2,31.8,57,29.5,54.2,29.5z M12.5,2.5H40l7.3,4H5.2
		L12.5,2.5z M2.2,13.3V8.5h48v4.8c0,2.2-1.6,4-3.6,4.2c-1.7,0.2-3.3-0.8-4-2.3c-0.2-0.5-0.8-0.9-1.3-0.9c0,0,0,0,0,0
		c-0.6,0-1.1,0.3-1.4,0.9c-0.6,1.4-2.1,2.3-3.6,2.3c-1.6,0-3-0.9-3.6-2.3c-0.2-0.5-0.8-0.9-1.4-0.9s-1.1,0.3-1.4,0.9
		c-0.6,1.4-2.1,2.3-3.6,2.3s-3-0.9-3.6-2.3c-0.2-0.5-0.8-0.9-1.4-0.9s-1.1,0.3-1.4,0.9c-0.6,1.4-2.1,2.3-3.6,2.3
		c-1.6,0-3-0.9-3.6-2.3c-0.2-0.5-0.8-0.9-1.4-0.9c0,0,0,0,0,0c-0.6,0-1.1,0.3-1.3,0.9c-0.7,1.6-2.3,2.5-4,2.3
		C3.8,17.3,2.2,15.5,2.2,13.3z M20.7,47.5h-8v-19c0-0.6,0.4-1,1-1h6c0.6,0,1,0.4,1,1V47.5z M22.7,47.5v-19c0-1.7-1.3-3-3-3h-6
		c-1.7,0-3,1.3-3,3v19H9.2c-1.7,0-3-1.4-3-3.1V19.5c2,0,3.9-1,5-2.7c1.1,1.7,3,2.7,5,2.7c2,0,3.9-1,5-2.7c1.1,1.7,3,2.7,5,2.7
		s3.9-1,5-2.7c1.1,1.7,3,2.7,5,2.7c2,0,3.9-1,5-2.7c1.2,1.8,3.4,2.9,5.6,2.7c0.1,0,0.3,0,0.4-0.1v10.1h-4.5v-1c0-1.7-1.3-3-3-3h-11
		c-1.7,0-3,1.3-3,3v10c0,1.7,1.3,3,3,3h0.5v3c0,1.1,0.4,2.1,1,3H22.7z M29.2,34.5v5h-0.5c-0.6,0-1-0.4-1-1v-10c0-0.6,0.4-1,1-1h11
		c0.6,0,1,0.4,1,1v1h-6.5C31.5,29.5,29.2,31.8,29.2,34.5z M57.2,44.5c0,1.7-1.3,3-3,3h-10v0H34c-1.5-0.1-2.7-1.4-2.7-3v-10
		c0-1.7,1.3-3,3-3h20c1.7,0,3,1.3,3,3V44.5z"/>
	<g>
		<path class="st0" d="M37.3,43.3c-0.1,0.3-0.5,0.6-0.8,0.6c-0.5,0-0.9-0.3-0.9-0.8c0-0.1,0-0.2,0-0.3L38,36c0.2-0.5,0.4-0.8,1-0.8
			s0.8,0.3,1,0.8l2.3,6.8c0,0.1,0,0.2,0,0.3c0,0.5-0.4,0.8-0.9,0.8c-0.3,0-0.7-0.2-0.8-0.6l-0.4-1.2h-2.6L37.3,43.3z M39.2,38.7
			c-0.1-0.3-0.2-0.8-0.2-1.2c0,0.4-0.1,0.8-0.2,1.2l-0.6,2.1h1.7L39.2,38.7z"/>
		<path class="st0" d="M45,40.9v2.2c0,0.4-0.4,0.8-0.8,0.8c-0.4,0-0.8-0.4-0.8-0.8v-6.9c0-0.5,0.4-0.9,0.9-0.9H46
			c2.3,0,3.1,1.3,3.1,2.8c0,1.8-1.2,2.8-3.1,2.8H45z M45,39.4h1c0.9,0,1.4-0.4,1.4-1.3c0-0.6-0.3-1.3-1.4-1.3h-1V39.4z"/>
		<path class="st0" d="M50.2,36c0-0.4,0.4-0.8,0.8-0.8c0.5,0,0.8,0.4,0.8,0.8v7.1c0,0.4-0.4,0.8-0.8,0.8c-0.5,0-0.8-0.4-0.8-0.8V36z
			"/>
	</g>
</g>
</svg>
