<?xml version="1.0" encoding="utf-8"?>
<!-- Generator: Adobe Illustrator 24.1.2, SVG Export Plug-In . SVG Version: 6.00 Build 0)  -->
<svg version="1.1" id="Layer_1" xmlns="http://www.w3.org/2000/svg" xmlns:xlink="http://www.w3.org/1999/xlink" x="0px" y="0px"
	 width="60px" height="60px" viewBox="0 0 60 60" style="enable-background:new 0 0 60 60;" xml:space="preserve">
<style type="text/css">
	.st0{fill:#4680DC;}
</style>
<g>
	<path class="st0" d="M51,44H8c-1.7,0-3-1.3-3-3V7c0-0.6,0.4-1,1-1h47c0.6,0,1,0.4,1,1v34C54,42.7,52.7,44,51,44z M7,8v33
		c0,0.6,0.4,1,1,1h43c0.6,0,1-0.4,1-1V8H7z"/>
	<path class="st0" d="M53,8H6C5.4,8,5,7.6,5,7V3c0-1.7,1.3-3,3-3h43c1.7,0,3,1.3,3,3v4C54,7.6,53.6,8,53,8z M7,6h45V3
		c0-0.6-0.4-1-1-1H8C7.4,2,7,2.4,7,3V6z"/>
	<path class="st0" d="M10,5H9C8.4,5,8,4.6,8,4s0.4-1,1-1h1c0.6,0,1,0.4,1,1S10.6,5,10,5z"/>
	<path class="st0" d="M14,5h-1c-0.6,0-1-0.4-1-1s0.4-1,1-1h1c0.6,0,1,0.4,1,1S14.6,5,14,5z"/>
	<path class="st0" d="M18,5h-1c-0.6,0-1-0.4-1-1s0.4-1,1-1h1c0.6,0,1,0.4,1,1S18.6,5,18,5z"/>
	<g>
		<path class="st0" d="M16,16h-5c-0.6,0-1-0.4-1-1v-4c0-0.6,0.4-1,1-1h5c0.6,0,1,0.4,1,1v4C17,15.6,16.6,16,16,16z M12,14h3v-2h-3
			V14z"/>
		<g>
			<path class="st0" d="M25,14h-5c-0.6,0-1-0.4-1-1s0.4-1,1-1h5c0.6,0,1,0.4,1,1S25.6,14,25,14z"/>
			<path class="st0" d="M34,14h-5c-0.6,0-1-0.4-1-1s0.4-1,1-1h5c0.6,0,1,0.4,1,1S34.6,14,34,14z"/>
			<path class="st0" d="M48,14H38c-0.6,0-1-0.4-1-1s0.4-1,1-1h10c0.6,0,1,0.4,1,1S48.6,14,48,14z"/>
		</g>
	</g>
	<g>
		<path class="st0" d="M16,24h-5c-0.6,0-1-0.4-1-1v-4c0-0.6,0.4-1,1-1h5c0.6,0,1,0.4,1,1v4C17,23.6,16.6,24,16,24z M12,22h3v-2h-3
			V22z"/>
		<g>
			<path class="st0" d="M25,22h-5c-0.6,0-1-0.4-1-1s0.4-1,1-1h5c0.6,0,1,0.4,1,1S25.6,22,25,22z"/>
			<path class="st0" d="M34,22h-5c-0.6,0-1-0.4-1-1s0.4-1,1-1h5c0.6,0,1,0.4,1,1S34.6,22,34,22z"/>
			<path class="st0" d="M48,22H38c-0.6,0-1-0.4-1-1s0.4-1,1-1h10c0.6,0,1,0.4,1,1S48.6,22,48,22z"/>
		</g>
	</g>
	<g>
		<path class="st0" d="M16,32h-5c-0.6,0-1-0.4-1-1v-4c0-0.6,0.4-1,1-1h5c0.6,0,1,0.4,1,1v4C17,31.6,16.6,32,16,32z M12,30h3v-2h-3
			V30z"/>
		<g>
			<path class="st0" d="M25,30h-5c-0.6,0-1-0.4-1-1c0-0.6,0.4-1,1-1h5c0.6,0,1,0.4,1,1C26,29.6,25.6,30,25,30z"/>
			<path class="st0" d="M34,30h-5c-0.6,0-1-0.4-1-1c0-0.6,0.4-1,1-1h5c0.6,0,1,0.4,1,1C35,29.6,34.6,30,34,30z"/>
			<path class="st0" d="M48,30H38c-0.6,0-1-0.4-1-1c0-0.6,0.4-1,1-1h10c0.6,0,1,0.4,1,1C49,29.6,48.6,30,48,30z"/>
		</g>
	</g>
	<g>
		<path class="st0" d="M16,40h-5c-0.6,0-1-0.4-1-1v-4c0-0.6,0.4-1,1-1h5c0.6,0,1,0.4,1,1v4C17,39.6,16.6,40,16,40z M12,38h3v-2h-3
			V38z"/>
		<g>
			<path class="st0" d="M25,38h-5c-0.6,0-1-0.4-1-1s0.4-1,1-1h5c0.6,0,1,0.4,1,1S25.6,38,25,38z"/>
			<path class="st0" d="M34,38h-5c-0.6,0-1-0.4-1-1s0.4-1,1-1h5c0.6,0,1,0.4,1,1S34.6,38,34,38z"/>
			<path class="st0" d="M48,38H38c-0.6,0-1-0.4-1-1s0.4-1,1-1h10c0.6,0,1,0.4,1,1S48.6,38,48,38z"/>
		</g>
	</g>
</g>
</svg>
